<svg id="SvgjsSvg1724" width="360" height="360" xmlns="http://www.w3.org/2000/svg" version="1.1" xmlns:xlink="http://www.w3.org/1999/xlink" xmlns:svgjs="http://svgjs.com/svgjs"><defs id="SvgjsDefs1725"></defs><g id="SvgjsG1726"><svg xmlns="http://www.w3.org/2000/svg" enable-background="new 0 0 850 850" viewBox="0 0 850 850" width="360" height="360"><path fill="#f4ebe9" d="M578.21,608.99c-42.94-15.19-121.8-33.85-178.83,6.28c-4.73,3.33-9.64,6.43-14.85,9.04
		c-27.31,13.7-106.88,47.12-165.83,6.17c-30.52-21.2-46.68-56.56-42.34-91.76c2.1-17.06,8.6-37.07,23.62-58.25
		c8.13-11.47,3.33-27.22-10.19-32.96c-32.43-13.77-80.32-44.62-85.3-107.71c-3.99-50.58,23.75-98.34,70.31-122.63
		c43.28-22.58,107.85-32.43,185.15,30.02c2.38,1.93,4.68,3.95,6.88,6.07c9.56,9.2,52.73,44.56,106.65-7.22
		c5.77-5.54,12.13-10.51,19.12-14.63c8.51-5.02,20.73-11.38,35.42-16.62c82.96-29.57,172.54,31.18,171.29,115.47
		c-0.01,0.6-0.02,1.2-0.04,1.81c-0.34,14-3.24,27.77-8.02,40.94c-5.59,15.42-11.65,48.09,9.97,94.75
		c7.75,16.74,11.95,34.76,11.4,52.91c-0.73,23.99-8.73,53.79-38.34,75.59C647.24,616.16,610.76,620.5,578.21,608.99z" class="colore9e9f4 svgShape"></path><ellipse cx="622.25" cy="607.22" fill="#586f9f" rx="123.64" ry="21.08" class="color3d4e6a svgShape"></ellipse><path fill="#13254c" d="M582.19,233.64c7.43,7.63,3.49,24.16-3.81,42.76c-2.34,5.96-5.59,11.28-9.55,15.66
			c-13.84,15.27-31.63,20.03-40.22,9.49c-8.44-8.66,3.82-29.68,16.09-48.86S573.75,224.98,582.19,233.64z" class="color4c1d13 svgShape"></path><path fill="#e07a5f" d="M579.77,228.99c9.17,11.75,0.77,32.03-14.33,50.53c-8.24,7.45-31.34,26.75-38.52,17.34
			c-7.18-9.41-2.58-32.9,12.51-51.4S572.51,219.68,579.77,228.99z" class="colord57346 svgShape"></path><path fill="#163168" d="M529.08,288.09l-0.49-1.12l17.95-12.65c1.46-1.03,2.69-2.52,3.56-4.32l15.76-32.5l0.86,0.67l-15.76,32.5
				c-0.96,1.99-2.32,3.64-3.93,4.77L529.08,288.09z" class="color682b16 svgShape"></path><path fill="#de7a60" d="M554.4 283.35l-.47-1.14c17.41-11.45 22.83-44.37 22.88-44.71l.99.25c-.01.08-1.38 8.54-4.92 18.32C569.61 265.13 563.74 277.2 554.4 283.35zM530.88 279.32l-1-.16c1.25-12.26 8.11-24.75 13.65-33.07 5.98-8.98 11.75-15.18 11.81-15.24l.65.98C555.76 232.07 533.22 256.41 530.88 279.32z" class="colorde9960 svgShape"></path><path fill="#13254c" d="M274.9,252.29c7.43,7.63,3.49,24.16-3.81,42.76c-2.34,5.96-5.59,11.28-9.55,15.66
			c-13.84,15.27-31.63,20.03-40.22,9.49c-8.44-8.66,3.82-29.68,16.09-48.86C249.68,252.15,266.46,243.63,274.9,252.29z" class="color4c1d13 svgShape"></path><path fill="#e07a5f" d="M272.48,247.63c9.17,11.75,0.77,32.03-14.33,50.53c-8.24,7.45-31.34,26.75-38.52,17.34s-2.58-32.9,12.51-51.4
			C247.24,245.6,265.22,238.33,272.48,247.63z" class="colord57346 svgShape"></path><path fill="#163168" d="M221.79,306.74l-0.49-1.12l17.95-12.65c1.46-1.03,2.69-2.52,3.56-4.32l15.76-32.5l0.86,0.67l-15.76,32.5
				c-0.96,1.99-2.32,3.64-3.93,4.77L221.79,306.74z" class="color682b16 svgShape"></path><path fill="#de7a60" d="M247.12 301.99l-.47-1.14c17.41-11.45 22.83-44.37 22.88-44.71l.99.25c-.01.08-1.38 8.54-4.92 18.32C262.32 283.77 256.45 295.85 247.12 301.99zM223.6 297.97l-1-.16c1.25-12.26 8.11-24.75 13.65-33.07 5.98-8.98 11.75-15.18 11.81-15.24l.65.98C248.48 250.72 225.93 275.06 223.6 297.97z" class="colorde9960 svgShape"></path><rect width="145.13" height="158.91" x="120.3" y="451.5" fill="#5f646f" class="color5384eb svgShape"></rect><rect width="126.48" height="34.05" x="130.03" y="466.9" fill="#ceb2aa" class="colorceaaaa svgShape"></rect><rect width="126.48" height="34.05" x="130.03" y="520.41" fill="#ceb2aa" class="colorceaaaa svgShape"></rect><rect width="126.48" height="34.05" x="130.03" y="570.68" fill="#ceb2aa" class="colorceaaaa svgShape"></rect><path fill="#cc5d40" d="M158.06,555.46h-2.49c-5.52,0-10-4.48-10-10v-12.93h22.49v12.93C168.06,550.98,163.58,555.46,158.06,555.46z
			" class="colorcc4040 svgShape"></path><rect width="12.37" height="10.32" x="164.69" y="537.11" fill="none" stroke="#cc5d40" stroke-miterlimit="10" stroke-width="3" class="colorStrokecc4040 svgStroke"></rect><path fill="#cc5d40" d="M232.65,501.13h-2.49c-5.52,0-10-4.48-10-10V478.2h22.49v12.93C242.65,496.66,238.17,501.13,232.65,501.13z" class="colorcc4040 svgShape"></path><rect width="12.37" height="10.32" x="239.28" y="482.79" fill="none" stroke="#cc5d40" stroke-miterlimit="10" stroke-width="3" class="colorStrokecc4040 svgStroke"></rect><path fill="#cc5d40" d="M231.03,555.46h-2.49c-5.52,0-10-4.48-10-10v-12.93h22.49v12.93C241.03,550.98,236.55,555.46,231.03,555.46z
			" class="colorcc4040 svgShape"></path><rect width="12.37" height="10.32" x="237.66" y="537.11" fill="none" stroke="#cc5d40" stroke-miterlimit="10" stroke-width="3" class="colorStrokecc4040 svgStroke"></rect><path fill="#cc5d40" d="M154.82,604.91h-2.49c-5.52,0-10-4.48-10-10v-12.93h22.49v12.93C164.82,600.44,160.34,604.91,154.82,604.91z
			" class="colorcc4040 svgShape"></path><rect width="12.37" height="10.32" x="161.44" y="586.57" fill="none" stroke="#cc5d40" stroke-miterlimit="10" stroke-width="3" class="colorStrokecc4040 svgStroke"></rect><path fill="none" stroke="#fe5427" stroke-miterlimit="10" stroke-width="7" d="M439.93 363.34h-86.8v-62.16c0-6.95 5.63-12.58 12.58-12.58h61.63c6.95 0 12.58 5.63 12.58 12.58V363.34zM507.59 356.87c-11.34 15.88-9.66 37.58-4.57 56.42 5.09 18.84 13.14 37.32 13.05 56.83-.11 24.67-14.51 48.77-36.17 60.57M288.23 356.87c11.34 15.88 9.66 37.58 4.57 56.42-5.09 18.84-13.14 37.32-13.05 56.83.11 24.67 14.51 48.77 36.17 60.57" class="colorStrokefec227 svgStroke"></path><path fill="#2a406f" stroke="#ccdcfe" stroke-miterlimit="10" stroke-width="3" d="M482.12,422.41V612.9H313.34V422.41c0,0,27.73-10.85,32.55-63.9h101.27
		C447.16,358.51,454.39,411.56,482.12,422.41z" class="color6f2b2a svgShape colorStrokeccebfe svgStroke"></path><circle cx="398.27" cy="437.16" r="38.71" fill="#e0d3cf" class="colorfec227 svgShape"></circle><path fill="#13254c" d="M432.15,424.38c3.46,3.55,1.62,11.24-1.77,19.88c-1.09,2.77-2.6,5.25-4.44,7.28
			c-6.44,7.1-14.71,9.32-18.7,4.41c-3.92-4.03,1.78-13.8,7.48-22.72C420.42,424.32,428.23,420.36,432.15,424.38z" class="color4c1d13 svgShape"></path><path fill="#e07a5f" d="M431.03,422.22c4.26,5.46,0.36,14.89-6.66,23.5c-3.83,3.46-14.57,12.44-17.91,8.06
			c-3.34-4.37-1.2-15.3,5.82-23.9C419.29,421.28,427.65,417.89,431.03,422.22z" class="colord57346 svgShape"></path><path fill="#163168" d="M407.45,449.71l-0.23-0.52l8.35-5.88c0.68-0.48,1.25-1.17,1.66-2.01l7.33-15.11l0.4,0.31l-7.33,15.11
				c-0.45,0.92-1.08,1.69-1.83,2.22L407.45,449.71z" class="color682b16 svgShape"></path><path fill="#de7a60" d="M419.23 447.5l-.22-.53c8.09-5.33 10.61-20.64 10.64-20.79l.46.12c-.01.04-.64 3.97-2.29 8.52C426.3 439.03 423.57 444.64 419.23 447.5zM408.29 445.63l-.47-.08c.58-5.7 3.77-11.51 6.35-15.38 2.78-4.18 5.46-7.06 5.49-7.09l.3.45C419.86 423.66 409.38 434.97 408.29 445.63z" class="colorde9960 svgShape"></path><g><path fill="#13254c" d="M402.88,426.78c4.5,2.06,5.56,9.89,5.52,19.18c-0.02,2.98-0.53,5.83-1.52,8.39
			c-3.44,8.94-10.36,13.99-15.85,10.86c-5.11-2.34-3.32-13.51-1.21-23.89C391.91,430.95,397.76,424.44,402.88,426.78z" class="color4c1d13 svgShape"></path><path fill="#e07a5f" d="M401.05,425.17c5.94,3.56,5.7,13.76,2.25,24.32c-2.33,4.61-9.11,16.85-13.8,13.98
			c-4.69-2.88-6.63-13.84-3.19-24.39C389.76,428.52,396.34,422.35,401.05,425.17z" class="colord57346 svgShape"></path><path fill="#163168" d="M388.96,459.3l-0.4-0.4l5.67-8.49c0.46-0.69,0.74-1.54,0.82-2.47l1.39-16.74l0.49,0.15l-1.39,16.74
				c-0.08,1.02-0.4,1.97-0.91,2.73L388.96,459.3z" class="color682b16 svgShape"></path><path fill="#de7a60" d="M399.16 453l-.39-.41c5.63-7.89 2.46-23.07 2.43-23.23l.47-.06c.01.04.83 3.94.93 8.77C402.7 442.55 402.17 448.77 399.16 453zM388.28 455.2l-.46.1c-1.51-5.53-.63-12.09.38-16.63 1.09-4.9 2.55-8.55 2.57-8.59l.45.32C391.15 430.53 385.45 444.87 388.28 455.2z" class="colorde9960 svgShape"></path></g><g><path fill="#13254c" d="M362.37,425.54c-3.46,3.55-1.62,11.24,1.77,19.88c1.09,2.77,2.6,5.25,4.44,7.28
			c6.44,7.1,14.71,9.32,18.7,4.41c3.92-4.03-1.78-13.8-7.48-22.72C374.1,425.47,366.29,421.51,362.37,425.54z" class="color4c1d13 svgShape"></path><path fill="#e07a5f" d="M363.49,423.37c-4.26,5.46-0.36,14.89,6.66,23.5c3.83,3.46,14.57,12.44,17.91,8.06s1.2-15.3-5.82-23.9
			C375.23,422.43,366.87,419.05,363.49,423.37z" class="colord57346 svgShape"></path><path fill="#163168" d="M387.06,450.86l0.23-0.52l-8.35-5.88c-0.68-0.48-1.25-1.17-1.66-2.01l-7.33-15.11l-0.4,0.31l7.33,15.11
				c0.45,0.92,1.08,1.69,1.83,2.22L387.06,450.86z" class="color682b16 svgShape"></path><path fill="#de7a60" d="M375.29 448.65l.22-.53c-8.09-5.33-10.61-20.64-10.64-20.79l-.46.12c.01.04.64 3.97 2.29 8.52C368.22 440.18 370.95 445.8 375.29 448.65zM386.22 446.78l.47-.08c-.58-5.7-3.77-11.51-6.35-15.38-2.78-4.18-5.46-7.06-5.49-7.09l-.3.45C374.65 424.81 385.14 436.13 386.22 446.78z" class="colorde9960 svgShape"></path></g><g><path fill="#e07a5f" d="M397.42,599.12L397.42,599.12c-18.19,0-33.13-14.39-33.82-32.57L360.94,496c28.7,8.27,50.1,10.21,72.96,0
			l-2.66,70.55C430.55,584.73,415.61,599.12,397.42,599.12z" class="colord57346 svgShape"></path><ellipse cx="396.93" cy="494.54" fill="#efcbc2" rx="36.97" ry="6.32" class="colorefc2c2 svgShape"></ellipse><path fill="#13254c" d="M429.52,497.46c0,7.34-61.28,7.9-61.29,0c0-2.15,13.72-3.89,30.64-3.89S429.52,495.31,429.52,497.46z" class="color4c1d13 svgShape"></path><path fill="#e07a5f" d="M427.58,506.21v67.12c15.04,0,27.24-12.2,27.24-27.24v-12.65C454.81,518.41,442.62,506.21,427.58,506.21z
			 M448.49,543.67c0,10.21-8.28,18.48-18.48,18.48V517.4c10.21,0,18.48,8.28,18.48,18.48V543.67z" class="colord57346 svgShape"></path><path fill="#efcbc2" d="M370.67,512.54c-0.16,6.31-0.22,12.58-0.12,18.83c0.08,3.13,0.15,6.24,0.36,9.35
				c0.17,3.11,0.4,6.21,0.79,9.29c0.33,3.08,0.78,6.15,1.41,9.18c0.59,3.03,1.35,6.03,2.33,8.94c2,5.77,4.88,11.4,9.82,15.42
				c-2.82-1.45-5.24-3.69-7.22-6.22c-1.97-2.56-3.54-5.41-4.79-8.37c-2.48-5.95-3.78-12.29-4.53-18.6
				c-0.71-6.33-0.83-12.7-0.51-19.02C368.55,525.01,369.27,518.71,370.67,512.54z" class="colorefc2c2 svgShape"></path></g><g><path fill="#1e3242" d="M690.96 577.63l19.75-10.06c2.56-1.31 5.68.06 6.46 2.83l11.81 42.04c.68 2.44-1.22 4.82-3.74 4.7l0 0c-1.1-.05-2.12-.59-2.78-1.47l-12.98-17.19c-1.26-1.67-3.51-2.25-5.42-1.41l-10.8 4.77L690.96 577.63zM563.88 582.01v24.95c0 1.41-1.14 2.56-2.56 2.56h-41.66c-2.16 0-3.92-1.76-3.92-3.92l0 0c0-1.75 1.16-3.29 2.84-3.77l18.94-5.41c1.35-.39 2.28-1.62 2.28-3.03v-11.38H563.88z" class="color81c4eb svgShape"></path><path fill="#e5a695" d="M615.1,363.85l5.51,18.74c9.11,2.94,17.1,2.13,24.17-1.76c0,0-7.8-14.95-5.62-21.49L615.1,363.85z" class="colore5959d svgShape"></path><path fill="#f9bcac" d="M625.08,345.45c-0.56,0.3-1.21-0.15-1.15-0.77c1.12-10.67-0.51-17.84-10.31-13.13
			c0.05,0.09,0.1,0.19,0.16,0.28c0,0-4.61,4.2-4.85,11.66l-5.44,5.46l2.77,2.39l-0.86,2.79l0.88,1.13l-0.54,1.64l1.22,1.17
			c-3.22,6.75,2.73,5.45,8.56,7.87l17.97-3.28C635.57,351.07,639.17,337.94,625.08,345.45z" class="colorf9aeac svgShape"></path><path fill="#021e59" d="M645.39,329.05c-0.25-0.23-0.5-0.47-0.73-0.71c-10.11-10.63-38.4-9.79-31.03,3.21
			c9.8-4.71,11.42,2.46,10.31,13.13c-0.07,0.63,0.59,1.07,1.15,0.77c14.09-7.51,10.48,5.62,8.41,17.21l5.38-0.98
			C647.65,348.36,653.27,336.21,645.39,329.05z" class="color100259 svgShape"></path><path fill="#08235c" d="M667.03,475.42c13.54,17.37-1.6,54.15-9.1,90.08c-0.69,3.29,1.73,6.42,5.08,6.68l38.4,2.95v27.51h-70.72
			c-6.52,0-11.8-5.28-11.8-11.8v-84.5c0-1.64-1.65-2.76-3.17-2.15l-43.02,17.21c-3.25,1.3-5.38,4.45-5.38,7.95v56.1h-27.51
			l-9.17-70.32c-0.7-5.34,1.77-10.61,6.33-13.49l57.86-36.54L667.03,475.42z" class="color08085c svgShape"></path><path fill="#ca5e41" d="M591.38,468.91c3.44-37.98-12.11-85.81,29.23-91.49c10.32,10.36,24.07,0,24.07,0
			c31.2-5.47,29.99,44.59,26.23,99.03c-0.14,2.08-0.29,4.17-0.44,6.27h-79.08V468.91z" class="colorca4143 svgShape"></path><path fill="#13254c" d="M625.16,417.63c11.69,6.3,9.69,25.12,3.52,47.04c-1.98,7.02-5.33,13.6-9.85,19.33
				c-15.77,20.02-39.08,29.74-52.94,20.6c-13.28-7.15-0.83-32.95,12-56.78C590.72,423.99,611.88,410.48,625.16,417.63z" class="color4c1d13 svgShape"></path><path fill="#e07a5f" d="M620.91,413.24c14.9,10.29,7.57,34.3-9.26,58.12c-9.73,10.15-37.31,36.9-49.03,28.62
				c-11.72-8.28-10.23-34.77,6.6-58.59C586.06,417.57,609.11,405.09,620.91,413.24z" class="colord57346 svgShape"></path><path fill="#163168" d="M563.78,489.98l-0.9-1.08l21.92-18.25c1.78-1.48,3.15-3.41,3.98-5.57l14.88-39.07l1.31,0.5l-14.88,39.07
					c-0.91,2.39-2.43,4.51-4.39,6.15L563.78,489.98z" class="color682b16 svgShape"></path><path fill="#de7a60" d="M597.38 478.34l-.87-1.1c21.42-16.83 22.11-53.69 22.11-54.06l1.4.02c0 .09-.15 9.56-2.99 21C614.41 454.79 608.86 469.31 597.38 478.34zM564.46 480.07l-1.4.08c-.79-13.52 6.03-28.75 11.89-39.14 6.33-11.22 12.94-19.38 13.01-19.46l1.09.89C588.79 422.76 562.98 454.79 564.46 480.07z" class="colorde9960 svgShape"></path><path fill="#f9bcac" d="M622.33,465.1c0,0-25.55,0-22.48,12.9c0.6,2.52,2.81,4.34,5.4,4.46l0,0c1.55,0.08,3.06-0.47,4.21-1.5
			c3.29-2.97,10.28-8.99,12.87-8.99V465.1z" class="colorf9aeac svgShape"></path><path fill="#af4f38" d="M672.96,392.07l12.9,49.04c1.02,3.86-1.07,7.86-4.81,9.24l-58.72,21.63l-6.88-6.88l39.82-24.51
			c2.93-1.8,4.43-5.24,3.75-8.61l-7.01-35.07c-1.19-5.96,2.79-11.72,8.78-12.72l0,0C666.27,383.28,671.55,386.69,672.96,392.07z" class="colore13268 svgShape"></path></g></svg></g></svg>