<svg id="SvgjsSvg1584" width="360" height="360" xmlns="http://www.w3.org/2000/svg" version="1.1" xmlns:xlink="http://www.w3.org/1999/xlink" xmlns:svgjs="http://svgjs.com/svgjs"><defs id="SvgjsDefs1585"></defs><g id="SvgjsG1586"><svg xmlns="http://www.w3.org/2000/svg" enable-background="new 0 0 850 850" viewBox="0 0 850 850" width="360" height="360"><path fill="#f4ebe9" d="M178.2,555.01c-35.13-50.07-72.92-129.04,5.67-163.46c0.72-0.32,1.46-0.61,2.19-0.91
		c3.71-1.53,23.51-12.12,10.57-59.9c-0.3-1.12-0.84-2.94-1.19-4.05c-2.35-7.38-15.36-55.48,31.75-90.66
		c22.47-16.78,50.37-23.81,77.94-20.67c22.45,2.56,53,9.95,85.55,29.27c0,0,24.14,20.3,45.6-0.92c0,0,26.5-53.13,74.63-15.58
		c6.57,5.12,12.01,11.59,16.37,18.79c7.85,12.96,30.84,36.87,84.24,5.09c0,0,95.67-45.2,80.47,95.02c0,0-21.42,86.83,6.5,137.09
		c7,12.6,11.69,26.43,13.13,40.87c2.91,29.12-0.39,69.72-40.74,72.21c-16.97,1.05-33.7,4.8-49.22,11.94
		c-98.24,45.25-243.44,48.09-354.09,12.12C231.65,609.6,200.28,586.49,178.2,555.01z" class="colore9e9f4 svgShape"></path><path fill="#e5a695" d="M273.93,268.95l-10.77,11.68c-7.7-1.13-13.24-4.6-17-9.99c0,0,11.07-8.1,11.84-13.65L273.93,268.95z" class="colore5959d svgShape"></path><path fill="#f9bcac" d="M273.28,251.94c0.3,0.42,0.94,0.33,1.12-0.15c3.03-8.19,6.8-12.83,12.25-5.86c-0.07,0.05-0.14,0.1-0.22,0.15
		c0,0,1.85,4.72-0.66,10.25l2.01,5.94l-2.88,0.74l-0.38,2.34l-1.05,0.51l-0.19,1.39l-1.31,0.42c-0.08,6.09-3.95,2.99-9.08,2.66
		l-11.93-8.86C263.6,252.26,265.71,241.38,273.28,251.94z" class="colorf9aeac svgShape"></path><path fill="#021e59" d="M264.37,232.66c0.27-0.08,0.53-0.16,0.79-0.26c11.21-4.11,31.54,6.69,21.48,13.52
		c-5.45-6.97-9.22-2.32-12.25,5.86c-0.18,0.48-0.82,0.57-1.12,0.15c-7.57-10.55-9.67,0.33-12.34,9.53l-3.57-2.65
		C255.76,245.93,256.04,235.05,264.37,232.66z" class="color100259 svgShape"></path><path fill="#13254c" d="M571.87,213.96c8.46,8.68,3.98,27.5-4.33,48.67c-2.66,6.79-6.36,12.85-10.88,17.82
			c-15.75,17.38-36.01,22.81-45.78,10.81c-9.6-9.86,4.35-33.78,18.31-55.62S562.26,204.1,571.87,213.96z" class="color4c1d13 svgShape"></path><path fill="#d56446" d="M569.11,208.66c10.43,13.37,0.87,36.46-16.31,57.52c-9.38,8.48-35.68,30.45-43.85,19.74
			c-8.18-10.71-2.94-37.45,14.25-58.51C540.38,206.35,560.85,198.07,569.11,208.66z" class="colord57346 svgShape"></path><path fill="#163168" d="M511.41,275.95l-0.56-1.27l20.43-14.4c1.66-1.17,3.06-2.87,4.05-4.92l17.94-37l0.98,0.76l-17.94,37
				c-1.1,2.26-2.64,4.14-4.47,5.43L511.41,275.95z" class="color682b16 svgShape"></path><path fill="#de7a60" d="M540.24 270.55l-.53-1.29c19.82-13.04 25.98-50.51 26.04-50.89l1.13.29c-.02.1-1.57 9.72-5.6 20.85C557.54 249.8 550.86 263.55 540.24 270.55zM513.46 265.97l-1.14-.19c1.42-13.95 9.24-28.17 15.54-37.64 6.81-10.23 13.38-17.28 13.44-17.35l.74 1.11C541.79 212.18 516.12 239.88 513.46 265.97z" class="colorde9960 svgShape"></path><path fill="#13254c" d="M454.3,284.5c8.46,8.68,3.98,27.5-4.33,48.67c-2.66,6.79-6.36,12.85-10.88,17.82
			c-15.75,17.38-36.01,22.81-45.78,10.81c-9.6-9.86,4.35-33.78,18.31-55.62S444.7,274.64,454.3,284.5z" class="color4c1d13 svgShape"></path><path fill="#d56446" d="M451.55,279.2c10.43,13.37,0.87,36.46-16.31,57.52c-9.38,8.48-35.68,30.45-43.85,19.74
			c-8.18-10.71-2.94-37.45,14.25-58.51C422.81,276.89,443.28,268.61,451.55,279.2z" class="colord57346 svgShape"></path><path fill="#163168" d="M393.84,346.48l-0.56-1.27l20.43-14.4c1.66-1.17,3.06-2.87,4.05-4.92l17.94-37l0.98,0.76l-17.94,37
				c-1.1,2.26-2.64,4.14-4.47,5.43L393.84,346.48z" class="color682b16 svgShape"></path><path fill="#de7a60" d="M422.68 341.08l-.53-1.29c19.82-13.04 25.98-50.51 26.04-50.89l1.13.29c-.02.1-1.57 9.72-5.6 20.85C439.98 320.34 433.3 334.09 422.68 341.08zM395.9 336.5l-1.14-.19c1.42-13.95 9.24-28.17 15.54-37.64 6.81-10.23 13.38-17.28 13.44-17.35l.74 1.11C424.22 282.71 398.56 310.42 395.9 336.5z" class="colorde9960 svgShape"></path><path fill="none" stroke="#fe5427" stroke-linecap="round" stroke-miterlimit="10" stroke-width="9" d="M638.35,345.32l-43.11,25.15c-5.15,3.16-8.44,8.62-8.82,14.65l-10.46,164.46" class="colorStrokefec227 svgStroke"></path><polygon fill="#cf674c" points="523.14 450.47 538.23 636.61 633.82 636.61 650.93 453.48" opacity=".89" class="colorcf874c svgShape"></polygon><path fill="#efdad5" d="M585.02,391.1c-30.14,0-55.5,22.38-63.08,52.82H648.1C640.52,413.48,615.16,391.1,585.02,391.1z" opacity=".89" class="colord6d5ef svgShape"></path><rect width="139.86" height="15.09" x="515.59" y="440.91" fill="#3b4252" class="color6b2d16 svgShape"></rect><path fill="#d56446" d="M345.07,636.61L345.07,636.61c-27.1,0-49.35-21.42-50.37-48.5l-3.97-105.08c42.74,12.32,74.62,15.21,108.67,0
			l-3.97,105.08C394.42,615.19,372.17,636.61,345.07,636.61z" class="colord57346 svgShape"></path><ellipse cx="344.35" cy="480.85" fill="#efcbc2" rx="55.06" ry="9.42" class="colorefc2c2 svgShape"></ellipse><path fill="#13254c" d="M392.89,485.2c0,10.93-91.28,11.77-91.28,0c0-3.2,20.43-5.8,45.64-5.8C372.45,479.4,392.89,482,392.89,485.2z
			" class="color4c1d13 svgShape"></path><path fill="#d56446" d="M389.99,498.24v99.97c22.41,0,40.57-18.16,40.57-40.57v-18.84C430.56,516.4,412.39,498.24,389.99,498.24z
			 M421.14,554.02c0,15.2-12.33,27.53-27.53,27.53V514.9c15.2,0,27.53,12.33,27.53,27.53V554.02z" class="colord57346 svgShape"></path><path fill="#efcbc2" d="M305.23,507.66c-0.54,9.37-0.79,18.71-0.75,28.04c0.06,4.66,0.15,9.32,0.42,13.97
				c0.23,4.65,0.57,9.29,1.14,13.89c0.5,4.61,1.19,9.21,2.15,13.73c0.92,4.53,2.07,9.02,3.61,13.37c1.56,4.33,3.44,8.57,5.91,12.46
				c2.44,3.91,5.51,7.46,9.25,10.31c-4.11-2.3-7.61-5.67-10.46-9.47c-2.84-3.82-5.09-8.07-6.89-12.47
				c-3.56-8.84-5.46-18.22-6.55-27.59c-1.06-9.39-1.28-18.84-0.91-28.24C302.55,526.26,303.45,516.88,305.23,507.66z" class="colorefc2c2 svgShape"></path><line x1="312.78" x2="331.17" y1="414.02" y2="476.55" fill="none" stroke="#0b1d42" stroke-miterlimit="10" stroke-width="2" class="colorStroke42210b svgStroke"></line><ellipse cx="335.77" cy="479.31" fill="none" stroke="#08235c" stroke-miterlimit="10" stroke-width="3" rx="7.36" ry="3.68" class="colorStroke08085c svgStroke"></ellipse><polygon fill="#ffc9bb" points="189.56 456.32 185.88 465.52 193.24 472.87 196.92 461.84" class="colorffc1bb svgShape"></polygon><rect width="9.2" height="11.03" x="237.38" y="467.35" fill="#ffc9bb" class="colorffc1bb svgShape"></rect><polygon fill="#e07a5f" points="261.29 283.45 307.26 417.7 325.65 412.18 298.07 274.25" class="colord8814b svgShape"></polygon><ellipse cx="315.49" cy="415.83" fill="#cc5232" rx="10.34" ry="4.86" transform="rotate(-11.046 315.564 415.91)" class="colorcc5d32 svgShape"></ellipse><polygon fill="#ffffff" points="276 279.77 287.03 276.09 288.87 294.48 277.84 292.64" class="colorfff svgShape"></polygon><ellipse cx="306.1" cy="374.25" fill="#eea693" rx="8.22" ry="13.42" transform="rotate(-13.963 306.11 374.254)" class="coloreebf93 svgShape"></ellipse><path fill="#ffc9bb" d="M261.29,307.35l7.36,18.39l27.59,29.43c0,0,7.61,17.24-8.15,9.54c0,0-26.8-29.77-41.51-37.13l-5.52-18.39
		L261.29,307.35z" class="colorffc1bb svgShape"></path><path fill="#586f9f" d="M198.97 341.53l10.82 48.59c0 0-23.91 57.01-22.07 68.05l9.2 5.52 31.26-53.33 7.36 60.69h14.71v-73.16c0-2.62-.39-5.23-1.14-7.74-2.46-8.22-8.05-28.79-8.05-46L198.97 341.53zM186.8 462.76c0 0-7.36-3.68-7.36 5.52l13.31 13.31c.85.85 2.29.74 2.93-.27 1.09-1.75 1.84-4.87-1.53-9.37C194.16 471.95 186.8 468.27 186.8 462.76zM237.1 477.06c0 0 7.64 4.19 11.32 0 0 0 11.03 1.33 9.2 8.69h-22.07C235.54 485.75 233.14 479.41 237.1 477.06z" class="color3c4f6d svgShape"></path><path fill="#b7ceff" d="M241.06,309.19l20.23-1.84l2.78-20.85c0.56-4.21-1.02-8.41-4.21-11.21l-9.6-8.4c0,0-36.78,1.84-49.66,58.85
		l-1.84,18.39h42.3l5.52-16.55L241.06,309.19z" class="colorb7dfff svgShape"></path><line x1="235.54" x2="250.25" y1="496.78" y2="639.04" fill="none" stroke="#18284a" stroke-miterlimit="10" stroke-width="2" class="colorStroke18304a svgStroke"></line><line x1="206.11" x2="191.4" y1="498.56" y2="639.04" fill="none" stroke="#18284a" stroke-miterlimit="10" stroke-width="2" class="colorStroke18304a svgStroke"></line><rect width="88.28" height="12.87" x="176.69" y="485.75" fill="#d76a4d" class="colord7854d svgShape"></rect></svg></g></svg>