<svg id="SvgjsSvg1332" width="360" height="360" xmlns="http://www.w3.org/2000/svg" version="1.1" xmlns:xlink="http://www.w3.org/1999/xlink" xmlns:svgjs="http://svgjs.com/svgjs"><defs id="SvgjsDefs1333"></defs><g id="SvgjsG1334"><svg xmlns="http://www.w3.org/2000/svg" enable-background="new 0 0 850 850" viewBox="0 0 850 850" width="360" height="360" version="1.1" xmlns:xlink="http://www.w3.org/1999/xlink" xmlns:svgjs="http://svgjs.com/svgjs"><path fill="#f4ebe9" d="M194.77,563.18c-35.73-50.07-74.17-129.04,5.77-163.46c0.73-0.32,1.49-0.61,2.23-0.91
		c3.77-1.53,23.91-12.12,10.75-59.9c-0.31-1.12-0.85-2.94-1.21-4.05c-2.39-7.38-15.63-55.48,32.29-90.66
		c22.86-16.78,51.23-23.81,79.27-20.67c22.83,2.56,53.9,9.95,87.01,29.27c0,0,24.55,20.3,46.38-0.92c0,0,26.96-53.13,75.91-15.58
		c6.68,5.12,12.21,11.59,16.65,18.79c7.98,12.96,31.37,36.87,85.68,5.09c0,0,97.3-45.2,81.84,95.02c0,0-21.79,86.83,6.61,137.09
		c7.12,12.6,11.89,26.43,13.36,40.87c2.96,29.12-0.39,69.72-41.43,72.21c-17.26,1.05-34.27,4.8-50.06,11.94
		c-99.92,45.25-247.6,48.09-360.14,12.12C249.14,617.77,217.23,594.66,194.77,563.18z" class="colore9e9f4 svgShape"></path><path fill="#021e59" d="M687.26,365.88c-21.94-37.94-5.49-107.43-53.49-104.23c-42.52,0.91-25.6,60.8-43.43,105.15
		c0,0,21.03-0.91,27.89-5.03C618.23,361.76,667.14,361.3,687.26,365.88z" class="color100259 svgShape"></path><path fill="#091328" d="M655.94 326.79c0 0 6.4 29.71 12.34 35.66l-17.96 1.64-9.35-33.14L655.94 326.79zM619.49 326.79c0 0-6.4 32.46-12.34 38.4l17.96-1.1 9.35-33.14L619.49 326.79z" class="color0a0928 svgShape"></path><path fill="#e5a695" d="M621.88,332.05c0,0-0.46,24.23-3.2,32.46h35.2c0,0-2.74-28.8,0.46-36.12L621.88,332.05z" class="colore5959d svgShape"></path><path fill="#f9bcac" d="M656.11,326.99c6.15-28.4,0.04-50.9-20.6-51.86c-18.54,0.79-23.77,19.22-18.26,51.88
		c0.51,3,2.33,5.62,4.96,7.15l8.89,5.59c1.16,0.73,2.5,1.12,3.87,1.12h3.74c1.47,0,2.9-0.44,4.11-1.27l8.91-6.11
		C653.97,331.96,655.54,329.64,656.11,326.99z" class="colorf9aeac svgShape"></path><path fill="#021e59" d="M668.28,362.45c-6.17-32.58-12.13-78.4-32.92-87.32l-0.46-3.66l20.11,6.4l7.77,25.14l8.69,40.69l0.91,19.66
		L668.28,362.45z" class="color100259 svgShape"></path><rect width="143.78" height="138.62" x="435.95" y="195.89" fill="#e0e0e0" class="colorb7dfff svgShape"></rect><path fill="#cc5d40" d="M471.58,247.68h-0.15c-5.52,0-10-4.48-10-10v-10.55h20.15v10.55C481.58,243.2,477.1,247.68,471.58,247.68z" class="colorcc4040 svgShape"></path><rect width="11.08" height="9.25" x="478.56" y="231.24" fill="none" stroke="#cc5d40" stroke-miterlimit="10" stroke-width="3" class="colorStrokecc4040 svgStroke"></rect><polygon fill="#90939a" points="482.11 261.85 460.89 261.85 461.46 272.24 481.47 272.24" class="color96909a svgShape"></polygon><path fill="#93a8d5" d="M461.46,272.24l0.77,14.12c5.54,2.78,11.69,2.18,18.37,0.22l0.88-14.34H461.46z" class="color93d5b6 svgShape"></path><path fill="#586f9f" d="M462.22,286.35l0.16,2.97c0.15,2.72,2.4,4.85,5.12,4.85h7.8c2.71,0,4.95-2.11,5.12-4.81l0.17-2.78
			C473.91,288.53,467.76,289.13,462.22,286.35z" class="color64acb2 svgShape"></path><circle cx="475.89" cy="265.75" r="2.64" fill="#414753" class="color534741 svgShape"></circle><path fill="#fdf0ec" d="M478.4 283.45h-7.64c-.2 0-.36-.16-.36-.36l0 0c0-.2.16-.36.36-.36h7.64c.2 0 .36.16.36.36l0 0C478.75 283.29 478.59 283.45 478.4 283.45zM476.93 284.66h-6.24c-.16 0-.29-.13-.29-.29l0 0c0-.16.13-.29.29-.29h6.24c.16 0 .29.13.29.29l0 0C477.21 284.53 477.09 284.66 476.93 284.66z" class="colorecf7fd svgShape"></path><path d="M482.82,263.55h-21.88v-1.65h20.23C482.08,261.9,482.82,262.64,482.82,263.55L482.82,263.55z"></path><rect width="43.07" height="2.43" x="501.17" y="228.04" fill="#2a2e37" class="color362a37 svgShape"></rect><rect width="43.07" height="2.43" x="501.17" y="233.5" fill="#2a2e37" class="color362a37 svgShape"></rect><rect width="43.07" height="2.43" x="501.17" y="238.96" fill="#2a2e37" class="color362a37 svgShape"></rect><rect width="43.07" height="2.43" x="501.17" y="270.51" fill="#2a2e37" class="color362a37 svgShape"></rect><rect width="43.07" height="2.43" x="501.17" y="275.97" fill="#2a2e37" class="color362a37 svgShape"></rect><rect width="43.07" height="2.43" x="501.17" y="281.43" fill="#2a2e37" class="color362a37 svgShape"></rect><path fill="#13254c" d="M487.85,302.92c2.58,4.05-0.67,10.98-5.59,18.52c-1.58,2.42-3.5,4.47-5.65,6.04
			c-7.5,5.47-15.79,5.95-18.62,0.51c-2.93-4.59,4.4-12.75,11.57-20.09C476.73,300.56,484.92,298.33,487.85,302.92z" class="color4c1d13 svgShape"></path><path fill="#d56446" d="M487.21,300.65c2.97,6.02-2.59,14.21-10.94,20.99c-4.32,2.54-16.28,8.94-18.59,4.13s1.87-14.76,10.22-21.54
			C476.25,297.44,484.86,295.87,487.21,300.65z" class="colord57346 svgShape"></path><path fill="#163168" d="M459.43,322.1l-0.11-0.54l9.08-3.94c0.74-0.32,1.42-0.87,1.97-1.58l9.93-12.9l0.32,0.37l-9.93,12.9
				c-0.61,0.79-1.36,1.39-2.17,1.75L459.43,322.1z" class="color682b16 svgShape"></path><path fill="#de7a60" d="M471.05 322.32l-.1-.54c8.73-3.46 14.13-17.5 14.18-17.64l.41.2c-.01.04-1.39 3.64-3.85 7.63C479.42 315.67 475.73 320.46 471.05 322.32zM461.03 318.39l-.43-.16c1.67-5.3 5.84-10.18 9.05-13.35 3.46-3.42 6.57-5.63 6.6-5.65l.2.49C476.33 299.81 464.16 308.49 461.03 318.39z" class="colorde9960 svgShape"></path><path fill="#13254c" d="M728.5,217.82c4.26,6.67-1.1,18.1-9.21,30.53c-2.6,3.98-5.77,7.37-9.31,9.95
			c-12.37,9.02-26.03,9.81-30.69,0.85c-4.83-7.57,7.25-21.01,19.06-33.12C710.17,213.92,723.67,210.25,728.5,217.82z" class="color4c1d13 svgShape"></path><path fill="#d56446" d="M727.44,214.07c4.9,9.93-4.27,23.41-18.04,34.6c-7.12,4.18-26.83,14.73-30.63,6.81
			c-3.81-7.92,3.08-24.32,16.85-35.5C709.38,208.79,723.56,206.21,727.44,214.07z" class="colord57346 svgShape"></path><path fill="#163168" d="M681.66,249.43l-0.19-0.89l14.96-6.49c1.21-0.53,2.34-1.43,3.24-2.61l16.36-21.27l0.53,0.62l-16.36,21.27
				c-1,1.3-2.24,2.29-3.58,2.88L681.66,249.43z" class="color682b16 svgShape"></path><path fill="#de7a60" d="M700.8 249.79l-.17-.9c14.39-5.71 23.29-28.84 23.38-29.07l.68.33c-.02.06-2.29 6-6.34 12.58C714.6 238.83 708.51 246.73 700.8 249.79zM684.3 243.32l-.7-.27c2.75-8.73 9.63-16.78 14.91-22 5.7-5.63 10.83-9.27 10.89-9.31l.33.81C709.51 212.7 689.44 227.01 684.3 243.32z" class="colorde9960 svgShape"></path><path fill="#13254c" d="M343.38,237.28c4.26,6.67-1.1,18.1-9.21,30.53c-2.6,3.98-5.77,7.37-9.31,9.95
			c-12.37,9.02-26.03,9.81-30.69,0.85c-4.83-7.57,7.25-21.01,19.06-33.12C325.05,233.38,338.55,229.71,343.38,237.28z" class="color4c1d13 svgShape"></path><path fill="#d56446" d="M342.32,233.53c4.9,9.93-4.27,23.41-18.04,34.6c-7.12,4.18-26.83,14.73-30.63,6.81
			c-3.81-7.92,3.08-24.32,16.85-35.5S338.44,225.67,342.32,233.53z" class="colord57346 svgShape"></path><path fill="#163168" d="M296.54,268.89l-0.19-0.89l14.96-6.49c1.21-0.53,2.34-1.43,3.24-2.61l16.36-21.27l0.53,0.62l-16.36,21.27
				c-1,1.3-2.24,2.29-3.58,2.88L296.54,268.89z" class="color682b16 svgShape"></path><path fill="#de7a60" d="M315.68 269.25l-.17-.9c14.39-5.71 23.29-28.84 23.38-29.07l.68.33c-.02.06-2.29 6-6.34 12.58C329.48 258.29 323.39 266.19 315.68 269.25zM299.17 262.78l-.7-.27c2.75-8.73 9.63-16.78 14.91-22 5.7-5.63 10.83-9.27 10.89-9.31l.33.81C324.39 232.16 304.32 246.46 299.17 262.78z" class="colorde9960 svgShape"></path><path fill="#3d4c6a" d="M589.59,466.85c0,0-6.98,120.61-19.04,140.28h112.99c0,0,7.17-75-21.17-112.72l-3.59-23.12L589.59,466.85z" class="color3d4e6a svgShape"></path><rect width="502.47" height="24.32" x="214.95" y="592.34" fill="#b4c6e6" class="color81c4eb svgShape"></rect><path fill="#edb4a5" d="M556.25 436.94l-13.64 58.14c-2.49 10.59 8.61 19.22 18.26 14.19l27.74-14.44c5.17-2.69 6.69-9.37 3.19-14.03l-4.75-6.34-3.17-31.74L556.25 436.94zM698.66 457.16l8.65 21.64-46.98 14.84c0 0-31.53-24.11-21.64 2.47 0 0-12.69 1.06-19-9.06-1.02-1.64-2.77-2.69-4.7-2.69h-.03c-4.25 0-6.86 4.63-4.67 8.27 6.14 10.19 21.17 25.01 54.37 15.22h58.99c11.57 0 20.13-10.76 17.53-22.03l-11-47.83L698.66 457.16z" class="coloredaea5 svgShape"></path><path fill="#ca5e41" d="M648.55,355.98c-4.2,2.94-11.94,6.71-21.19,3.54c-4.64-1.59-9.75-1.02-13.78,1.77
		c-16.46,11.42-54.54,42.27-60.49,86.83h33.96v29.59h81.89c0,0,3.17-35.62,7.62-47.68l16.5,36.82l44.43-24.12
		c-20.1-35.85-40.34-72.1-80.51-87.76C654.17,353.88,651.02,354.25,648.55,355.98z" class="colorca4143 svgShape"></path><rect width="175.83" height="10.16" x="521.67" y="477.64" fill="#031c51" class="color060351 svgShape"></rect><path fill="#e5a695" d="M370.27,389.99l5.88,33.79c15.3,6.95,29.4,7.14,42.52,1.76c0,0-10.61-27.63-5.51-38.61L370.27,389.99z" class="colore5959d svgShape"></path><path fill="#f9bcac" d="M391.36,359.89c-1.03,0.41-2.09-0.5-1.85-1.58c4.08-18.39,2.67-31.23-15.36-24.96
			c0.07,0.18,0.14,0.35,0.22,0.53c0,0-8.88,6.4-10.79,19.38L353,361.69l4.36,4.72l-2.05,4.69l1.31,2.15l-1.27,2.75l1.89,2.29
			c-6.97,11.14,3.68,10.05,13.36,15.45l32-2.13C408.53,371.8,417.44,349.6,391.36,359.89z" class="colorf9aeac svgShape"></path><path fill="#021e59" d="M430.06,335.34c-0.39-0.45-0.77-0.91-1.13-1.39c-15.52-20.56-65.03-24.75-54.77-0.6
			c18.03-6.27,19.44,6.57,15.36,24.96c-0.24,1.08,0.82,1.98,1.85,1.58c26.08-10.29,17.17,11.91,11.23,31.71l9.58-0.64
			C430.15,369.48,442.38,349.41,430.06,335.34z" class="color100259 svgShape"></path><path fill="#f9bcac" d="M241.01,416.45l-8.42-10.72h-44.8c-1.95,0-2.75,2.49-1.17,3.63c7.09,5.08,21.02,13.42,32.99,10.66
			l10.39,10.39L241.01,416.45z" class="colorf9aeac svgShape"></path><path fill="#cc5d40" d="M322.19,542.07c-0.86,5.25-1.64,10.78-2.37,16.53l-14.51-0.95L322.19,542.07z" class="colorcc4040 svgShape"></path><path fill="#526793" d="M474.11,592.71c0,0,42.85-107.78-16.88-151.93l-38.59-17.54c-2.47-1.12-5.32-1.16-7.77-0.01
			c-6.27,2.93-19.86,7-32.02-4.86c-1.56-1.53-3.56-2.52-5.74-2.73c-11.51-1.14-48.72-1.99-84.45,28.02c-2.47,2.07-6.02,2.2-8.6,0.27
			l-42.28-31.71L218.3,433l51.58,44.7c4.29,3.72,10.14,5.1,15.65,3.68l22.44-5.77c6.4-1.64,12.22,4.17,10.58,10.57l-24.93,97.45
			l23.43,1.31l111.68,6.26l3.83,0.21c0,0,2.04-75.59,10.66-98.12c1.11-2.89,5.15-2.95,6.3-0.07c3.1,7.77,7.34,22.97,3.82,42.35
			l-9.09,59.73 M319.82,558.6l-14.51-0.95l16.88-15.58C321.33,547.32,320.55,552.85,319.82,558.6z" class="color915293 svgShape"></path><ellipse cx="184.94" cy="399.97" fill="#b3b3b3" rx="76.6" ry="11.02" class="colorb3b3b3 svgShape"></ellipse><path fill="#13254c" d="M208.34,398.96c0.96,0,1.96-0.07,2.99-0.2l-0.32-3.79c-5.39,0.71-9.5-0.65-12.23-4.03
				c-3.54-4.39-3.98-11.21-3.98-14.37h11.12v-3.81h-13.97l-0.14,1.71c-0.04,0.49-0.94,12.01,4.79,19.15
				C199.46,397.16,203.4,398.96,208.34,398.96z" class="color4c1d13 svgShape"></path><path fill="#d56446" d="M212.42,404.69h21.65c4.74,0,8.59-3.84,8.59-8.59v-30.59h-38.82v30.59
			C203.83,400.85,207.67,404.69,212.42,404.69z" class="colord57346 svgShape"></path><path fill="#a6c3ff" d="M218.01 323.91c.42 1.17.85 2.31 1.31 3.41.47 1.1.97 2.17 1.56 3.16.59.98 1.24 1.92 2.03 2.66.79.74 1.67 1.3 2.65 1.64l.29.1.11.12c.67.73 1.07 1.46 1.35 2.33.25.86.27 1.8.03 2.65-.27.84-.71 1.57-1.27 2.16-.27.3-.59.54-.89.8-.33.22-.67.42-.99.62.23-.32.45-.63.68-.93.19-.33.4-.63.57-.95.32-.65.55-1.31.6-1.95.05-.65-.07-1.27-.32-1.84-.22-.56-.66-1.15-1.05-1.49l.4.22c-1.36-.37-2.59-1.11-3.55-2.08-.98-.95-1.63-2.12-2.18-3.28-.53-1.17-.89-2.4-1.1-3.63C218.01 326.41 217.9 325.16 218.01 323.91zM212.39 337.39c.42 1.17.85 2.31 1.31 3.41.47 1.1.97 2.17 1.56 3.16.59.98 1.24 1.92 2.03 2.66.79.74 1.67 1.3 2.65 1.64l.29.1.11.12c.67.73 1.07 1.46 1.35 2.33.25.86.27 1.8.03 2.65-.27.84-.71 1.57-1.27 2.16-.27.3-.59.54-.89.8-.33.22-.67.42-.99.62.23-.32.45-.63.68-.93.19-.33.4-.63.57-.95.32-.65.55-1.31.6-1.95.05-.65-.07-1.27-.32-1.84-.22-.56-.66-1.15-1.05-1.5l.4.22c-1.36-.37-2.59-1.11-3.55-2.08-.98-.95-1.63-2.12-2.18-3.28-.53-1.17-.89-2.4-1.1-3.63C212.4 339.88 212.29 338.63 212.39 337.39zM230.54 338.79c.06 1.24.15 2.45.28 3.64.14 1.19.31 2.36.59 3.47.29 1.11.64 2.19 1.18 3.13.54.93 1.23 1.73 2.08 2.33l.25.18.07.15c.43.89.61 1.71.63 2.62-.01.9-.26 1.8-.73 2.55-.5.73-1.13 1.3-1.84 1.71-.35.21-.72.35-1.08.51-.38.12-.76.21-1.13.31.31-.24.61-.48.91-.69.27-.26.56-.49.81-.75.49-.53.9-1.09 1.14-1.7.23-.6.3-1.23.21-1.85-.05-.6-.31-1.29-.58-1.73l.32.33c-1.2-.74-2.16-1.81-2.81-3-.67-1.19-.96-2.5-1.15-3.76-.18-1.28-.17-2.55-.02-3.8C229.84 341.19 230.09 339.96 230.54 338.79z" class="colora6dcff svgShape"></path><rect width="45.88" height="9.63" x="131.79" y="317.89" fill="#da6e52" transform="rotate(-180 154.726 322.706)" class="colorda8952 svgShape"></rect><ellipse cx="154.87" cy="317.25" fill="#13254c" rx="23.08" ry="3.04" class="color4c1d13 svgShape"></ellipse><path fill="#da6e52" d="M133.51,367.78l-1.86-22.49c23.49,3.75,39.53,0.98,46.26-0.71l-1.73,22.11
				C170.81,368.36,158.22,370.69,133.51,367.78z" class="colorda8952 svgShape"></path><path fill="#fff9f8" d="M131.65 345.28l-1.56-18.9 49.27-.28-1.45 18.47C171.18 346.26 155.14 349.04 131.65 345.28zM176.18 366.68l-2.48 31.64h-37.66l-2.52-30.54C158.22 370.69 170.81 368.36 176.18 366.68z" class="colorf8fffe svgShape"></path><path fill="#da6e52" stroke="#0b1d42" stroke-miterlimit="10" d="M129.52,327.59c17.56,4.31,34.5,4.55,50.69,0v-5.45c-16.88,5.76-33.78,5.17-50.69,0V327.59z" class="colorda8952 svgShape colorStroke42210b svgStroke"></path><path fill="#6190f3" d="M317.05,584.94l111.68,6.26c0.22,1.38,0.46,2.75,0.69,4.13h-113.2
			C316.49,591.81,316.76,588.33,317.05,584.94z" class="color6191f3 svgShape"></path><g></g><path fill="#d56446" d="M649.29,474.77L649.29,474.77c9.18,0,16.71-7.26,17.06-16.43l1.34-35.59c-14.48,4.17-25.27,5.15-36.81,0
			l1.34,35.59C632.58,467.52,640.11,474.77,649.29,474.77z" class="colord57346 svgShape"></path><ellipse cx="649.54" cy="422.02" fill="#efcbc2" rx="18.65" ry="3.19" class="colorefc2c2 svgShape"></ellipse><path fill="#13254c" d="M633.1,423.49c0,3.7,30.91,3.99,30.92,0c0-1.08-6.92-1.96-15.46-1.96S633.1,422.41,633.1,423.49z" class="color4c1d13 svgShape"></path><path fill="#d56446" d="M620.34,441.65v6.38c0,7.59,6.15,13.74,13.74,13.74v-33.86C626.49,427.91,620.34,434.06,620.34,441.65z
			 M623.53,442.88c0-5.15,4.17-9.32,9.32-9.32v22.57c-5.15,0-9.32-4.17-9.32-9.32V442.88z" class="colord57346 svgShape"></path><path fill="#efcbc2" d="M662.79,431.1c1.01,3.08,1.53,6.27,1.81,9.47c0.28,3.21,0.28,6.46-0.09,9.69
				c-0.37,3.23-1.09,6.48-2.48,9.51c-0.69,1.51-1.57,2.95-2.66,4.23c-1.1,1.25-2.43,2.34-3.94,2.93c2.3-2.29,3.52-5.1,4.41-7.99
				c0.84-2.92,1.34-5.95,1.69-9.02c0.36-3.07,0.55-6.18,0.74-9.31C662.43,437.47,662.56,434.32,662.79,431.1z" class="colorefc2c2 svgShape"></path><g></g><polygon fill="#90939a" points="610.74 421.28 571.9 421.28 572.94 440.29 609.58 440.29" class="color96909a svgShape"></polygon><path fill="#93a8d5" d="M572.94,440.29l1.41,25.84c10.14,5.09,21.4,3.98,33.63,0.4l1.61-26.24H572.94z" class="color93d5b6 svgShape"></path><path fill="#586f9f" d="M574.34,466.13l0.3,5.43c0.27,4.98,4.38,8.87,9.37,8.87h14.29c4.96,0,9.06-3.86,9.36-8.81l0.31-5.09
			C595.74,470.11,584.49,471.22,574.34,466.13z" class="color64acb2 svgShape"></path><circle cx="599.37" cy="428.42" r="4.83" fill="#414753" class="color534741 svgShape"></circle><path fill="#fdf0ec" d="M604.16 460.82h-14.41c-.24 0-.44-.2-.44-.44v-.43c0-.24.2-.44.44-.44h14.41c.24 0 .44.2.44.44v.43C604.6 460.62 604.41 460.82 604.16 460.82zM601.43 463.03h-11.77c-.19 0-.35-.16-.35-.35v-.34c0-.19.16-.35.35-.35h11.77c.19 0 .35.16.35.35v.34C601.79 462.87 601.63 463.03 601.43 463.03z" class="colorecf7fd svgShape"></path><path d="M612.05,424.39H572v-3.02h38.01c1.12,0,2.03,0.91,2.03,2.03V424.39z"></path><g></g><path fill="#13254c" d="M634.8,587.68c0,4.57-24.38,10.33-53.04,10.33c-28.66,0-53.04-5.77-53.04-10.33s24.38-6.2,53.04-6.2
			C610.42,581.48,634.8,583.11,634.8,587.68z" class="color4c1d13 svgShape"></path><path fill="#08235c" d="M614.43,542.44h-7.64v37.2h7.64c8.59,0,15.55-6.96,15.55-15.55v-6.1
			C629.98,549.41,623.02,542.44,614.43,542.44z M626.77,563.39c0,7.2-5.84,13.04-13.04,13.04h-5.79v-30.77h5.79
			c7.2,0,13.04,5.84,13.04,13.04V563.39z" class="color08085c svgShape"></path><ellipse cx="581.76" cy="586.07" fill="#d56446" rx="51.89" ry="8.27" class="colord57346 svgShape"></ellipse><ellipse cx="581.3" cy="589.06" fill="#efdad5" rx="40.87" ry="4.36" class="colord6d5ef svgShape"></ellipse><path fill="#fd9579" d="M581.07,591.58L581.07,591.58c-18.64,0-33.75-15.11-33.75-33.75v-19.52h67.51v19.52
			C614.83,576.47,599.71,591.58,581.07,591.58z" class="colorfdc179 svgShape"></path><path fill="none" stroke="#efdad5" stroke-linecap="round" stroke-miterlimit="10" stroke-width="3" d="M556.96,547.5c0,0-7.35,25.26,10.1,36.28" class="colorStroked6d5ef svgStroke"></path><ellipse cx="580.84" cy="539.46" fill="#8a3d28" rx="34.21" ry="6.43" class="color8a2829 svgShape"></ellipse><g></g><path fill="#de7a60" d="M241.89,531.45c0,0-13.5,35.04-11.89,52.02c5.77-16.78,22.98-44.9,27.66-52.4L241.89,531.45z" class="colorde9960 svgShape"></path><path fill="#e07a5f" d="M325.25,529.47l-67.59,1.6c-4.68,7.5-21.89,35.62-27.66,52.4c0.52,5.54,2.65,9.16,7.37,9.02
			c0,0,61.59,9.18,83.49,2.42c3.64-1.12,6.24-4.32,6.63-8.1C328.8,573.93,331.66,539.09,325.25,529.47z" class="colorda8a57 svgShape"></path><path fill="#d56446" d="M236.82,516.7c0.22,1.86,0.69,3.97,1.64,5.96c0.66,1.39,0.76,2.97,0.36,4.46c-0.68,2.55-1.2,6.22,1.36,6.59
			c0,0,52.12,7.6,84.52-1.67c1.32-0.38,2.2-1.63,2.07-2.99c-0.13-1.29-0.61-2.84-1.99-3.99c-1.44-1.2-2.28-2.98-2.36-4.86
			c0-0.05,0-0.1-0.01-0.16c-0.22-4.5-4.13-7.92-8.62-7.61c-13.32,0.93-43.49,2.59-50.68-0.81c-1.17-0.55-2.4-0.94-3.68-1.07
			c-3.86-0.37-11.4-0.95-17.17-0.49C238.88,510.34,236.42,513.32,236.82,516.7z" class="colord57346 svgShape"></path><path fill="none" stroke="#0b1d42" stroke-miterlimit="10" stroke-width="2" d="M252.06,524.67c0,0,37.3,5.65,62.17,0" class="colorStroke42210b svgStroke"></path><path fill="#13254c" d="M298.78,546.86c4.75,3.85,2.24,12.2-2.43,21.59c-1.5,3.01-3.58,5.7-6.11,7.91
				c-8.85,7.71-20.24,10.12-25.73,4.79c-5.4-4.37,2.44-14.99,10.29-24.67S293.38,542.49,298.78,546.86z" class="color4c1d13 svgShape"></path><path fill="#d56446" d="M297.23,544.51c5.86,5.93,0.49,16.17-9.17,25.52c-5.27,3.76-20.05,13.51-24.64,8.76
				c-4.59-4.75-1.65-16.61,8.01-25.96C281.08,543.49,292.59,539.81,297.23,544.51z" class="colord57346 svgShape"></path><path fill="#163168" d="M264.8,574.36l-0.31-0.56l11.48-6.39c0.93-0.52,1.72-1.27,2.28-2.18l10.08-16.41l0.55,0.34l-10.08,16.41
					c-0.62,1-1.49,1.84-2.51,2.41L264.8,574.36z" class="color682b16 svgShape"></path><path fill="#de7a60" d="M281.01 571.96l-.3-.57c11.14-5.78 14.6-22.41 14.64-22.58l.63.13c-.01.04-.88 4.31-3.15 9.25C290.73 562.76 286.98 568.86 281.01 571.96zM265.96 569.93l-.64-.08c.8-6.19 5.19-12.5 8.73-16.7 3.83-4.54 7.52-7.67 7.55-7.7l.42.49C281.88 546.07 267.45 558.36 265.96 569.93z" class="colorde9960 svgShape"></path><g></g><path fill="#d56446" d="M494.7,512.19H386.81l0,0c0-12.54,10.17-22.71,22.71-22.71h62.46C484.53,489.48,494.7,499.65,494.7,512.19
			L494.7,512.19z" class="colord57346 svgShape"></path><rect width="108.84" height="53.24" x="386.1" y="519.53" fill="#d56446" class="colord57346 svgShape"></rect><polygon fill="#13254c" points="495.41 569.69 385.62 569.69 379 573.95 502.03 573.95" class="color4c1d13 svgShape"></polygon><path fill="#13254c" d="M484.05 594.77H476c-3.14 0-5.68-2.54-5.68-5.68v0h19.4v0C489.73 592.23 487.19 594.77 484.05 594.77zM405.5 594.77h-8.04c-3.14 0-5.68-2.54-5.68-5.68v0h19.4v0C411.18 592.23 408.63 594.77 405.5 594.77zM484.2 522.51c-1.43.52-2.92.86-4.45.95-10.54.63-53.21 3.09-75.2 2.83 32.72 5.37 52.7 3.8 88.99-3.45h5.99c2.06 0 3.82-1.28 4.53-3.09C500.1 519.52 492.3 519.58 484.2 522.51z" class="color4c1d13 svgShape"></path><path fill="#425575" d="M479.61,523.47c1.51-0.09,3.01-0.38,4.43-0.9c8.16-2.99,16.03-3.05,20.02-2.82
			c0.22-0.55,0.34-1.15,0.34-1.77v-8.73c0-2.69-2.18-4.86-4.86-4.86H381.97c-2.69,0-4.86,2.18-4.86,4.86v8.73
			c0,2.69,2.18,4.86,4.86,4.86h1.19c1.94,0,3.88,0.19,5.79,0.58c5.55,1.12,10.72,2.07,15.61,2.87
			C426.45,526.55,468.82,524.12,479.61,523.47z" class="color722d1d svgShape"></path><circle cx="399.82" cy="514.8" r="2.84" fill="#d56446" class="colord57346 svgShape"></circle><circle cx="412.12" cy="514.8" r="2.84" fill="#d56446" class="colord57346 svgShape"></circle><circle cx="424.42" cy="514.8" r="2.84" fill="#d56446" class="colord57346 svgShape"></circle><path fill="#13254c" d="M416.14 538.46L416.14 538.46c-.91 0-1.66-.74-1.66-1.66v-4.97h3.31v4.97C417.8 537.72 417.06 538.46 416.14 538.46zM408.1 538.46L408.1 538.46c-.91 0-1.66-.74-1.66-1.66v-4.97h3.31v4.97C409.76 537.72 409.01 538.46 408.1 538.46zM477.66 547.92L477.66 547.92c-1.44 0-2.6-1.17-2.6-2.6v-21.53h5.21v21.53C480.26 546.76 479.1 547.92 477.66 547.92z" class="color4c1d13 svgShape"></path><path fill="#425575" d="M413.07,532.31h-1.89c-4.97,0-8.99-4.03-8.99-8.99l0,0h19.87l0,0C422.06,528.28,418.03,532.31,413.07,532.31
			z" class="color722d1d svgShape"></path><path fill="#d56446" d="M486.62,591.93h-92.21c-8.51,0-15.41-6.9-15.41-15.41v-2.57h123.03v2.57
			C502.03,585.03,495.13,591.93,486.62,591.93z" class="colord57346 svgShape"></path><path fill="#de7a60" d="M412.58,572.25L412.58,572.25c-5.28,0-9.61-4.17-9.81-9.45L402,542.34c8.33,2.4,14.53,2.96,21.17,0
				l-0.77,20.47C422.19,568.08,417.86,572.25,412.58,572.25z" class="colorde9960 svgShape"></path><ellipse cx="412.44" cy="541.91" fill="#efcbc2" rx="10.72" ry="1.83" class="colorefc2c2 svgShape"></ellipse><path fill="#13254c" d="M421.89,542.76c0,2.13-17.78,2.29-17.78,0c0-0.62,3.98-1.13,8.89-1.13S421.89,542.14,421.89,542.76z" class="color4c1d13 svgShape"></path><path fill="#de7a60" d="M421.33,545.3v19.47c4.36,0,7.9-3.54,7.9-7.9v-3.67C429.23,548.84,425.69,545.3,421.33,545.3z M427.4,556.16
				c0,2.96-2.4,5.36-5.36,5.36v-12.98c2.96,0,5.36,2.4,5.36,5.36V556.16z" class="colorde9960 svgShape"></path><path fill="#efcbc2" d="M404.82,547.13c0.39,1.88,0.6,3.69,0.8,5.48l0.56,5.27c0.2,1.73,0.43,3.43,0.81,5.08
					c0.41,1.64,0.9,3.24,2.06,4.77c-0.95-0.22-1.8-0.81-2.53-1.51c-0.72-0.71-1.28-1.55-1.74-2.43c-0.9-1.77-1.37-3.68-1.59-5.57
					c-0.22-1.9-0.17-3.79,0.07-5.65C403.54,550.71,403.98,548.87,404.82,547.13z" class="colorefc2c2 svgShape"></path></svg></g></svg>