<svg id="SvgjsSvg2066" width="360" height="360" xmlns="http://www.w3.org/2000/svg" version="1.1" xmlns:xlink="http://www.w3.org/1999/xlink" xmlns:svgjs="http://svgjs.com/svgjs"><defs id="SvgjsDefs2067"></defs><g id="SvgjsG2068"><svg xmlns="http://www.w3.org/2000/svg" enable-background="new 0 0 850 850" viewBox="0 0 850 850" width="360" height="360" version="1.1" xmlns:xlink="http://www.w3.org/1999/xlink" xmlns:svgjs="http://svgjs.com/svgjs"><path fill="#efdad5" d="M157.61,560.93c-37.05-50.07-76.91-129.04,5.98-163.46c0.76-0.32,1.54-0.61,2.31-0.91
		c3.91-1.53,24.8-12.12,11.14-59.9c-0.32-1.12-0.88-2.94-1.26-4.05c-2.48-7.38-16.2-55.48,33.48-90.66
		c23.7-16.78,53.12-23.81,82.2-20.67c23.68,2.56,55.9,9.95,90.23,29.27c0,0,25.46,20.3,48.09-0.92c0,0,27.95-53.13,78.72-15.58
		c6.93,5.12,12.67,11.59,17.27,18.79c8.28,12.96,32.53,36.87,88.84,5.09c0,0,100.9-45.2,84.87,95.02c0,0-22.59,86.83,6.86,137.09
		c7.38,12.6,12.33,26.43,13.85,40.87c3.07,29.12-0.41,69.72-42.96,72.21c-17.9,1.05-35.54,4.8-51.91,11.94
		c-103.62,45.25-256.75,48.09-373.46,12.12C213.98,615.52,180.9,592.41,157.61,560.93z" class="colord6d5ef svgShape"></path><path fill="#13254c" d="M641.28,468.46c-3.1,2.15-1.93,7.41,0.51,13.41c0.78,1.92,1.94,3.67,3.4,5.15c5.1,5.15,12,7.15,15.62,4.13
			c3.52-2.45-0.82-9.34-5.21-15.66S644.8,466.01,641.28,468.46z" class="color4c1d13 svgShape"></path><path fill="#d56446" d="M642.34,467.08c-3.88,3.38-1.04,9.94,4.48,16.13c3.07,2.56,11.73,9.23,14.77,6.52s1.78-10.15-3.74-16.35
			C652.33,467.19,645.41,464.4,642.34,467.08z" class="colord57346 svgShape"></path><path fill="#163168" d="M660.94,486.94l0.22-0.33l-6.78-4.46c-0.55-0.36-1-0.86-1.3-1.45l-5.46-10.57l-0.35,0.18l5.46,10.57
				c0.33,0.65,0.83,1.2,1.44,1.6L660.94,486.94z" class="color682b16 svgShape"></path><path fill="#de7a60" d="M651.07 484.73l.21-.34c-6.59-4.07-7.97-14.46-7.98-14.57l-.4.05c0 .03.35 2.7 1.52 5.84C645.5 478.62 647.54 482.54 651.07 484.73zM660.43 484.16l.4-.02c-.21-3.85-2.62-7.93-4.61-10.68-2.15-2.97-4.28-5.06-4.3-5.08l-.28.29C651.72 468.75 660.04 476.97 660.43 484.16z" class="colorde9960 svgShape"></path><path fill="#13254c" d="M635.96,507.6c-2.35,1.63-1.46,5.6,0.39,10.13c0.59,1.45,1.47,2.78,2.57,3.89c3.85,3.89,9.07,5.41,11.81,3.12
			c2.66-1.85-0.62-7.06-3.94-11.84C643.47,508.13,638.62,505.75,635.96,507.6z" class="color4c1d13 svgShape"></path><path fill="#d56446" d="M636.76,506.56c-2.93,2.56-0.79,7.51,3.38,12.19c2.32,1.93,8.86,6.98,11.17,4.93
			c2.3-2.05,1.34-7.67-2.83-12.36S639.08,504.54,636.76,506.56z" class="colord57346 svgShape"></path><path fill="#163168" d="M650.82,521.57l0.17-0.25l-5.12-3.37c-0.42-0.27-0.76-0.65-0.98-1.09l-4.12-7.99l-0.27,0.14l4.12,7.99
				c0.25,0.49,0.63,0.91,1.09,1.21L650.82,521.57z" class="color682b16 svgShape"></path><path fill="#de7a60" d="M643.36 519.9l.16-.26c-4.98-3.08-6.02-10.93-6.03-11.01l-.3.04c0 .02.26 2.04 1.15 4.41C639.15 515.28 640.69 518.25 643.36 519.9zM650.43 519.47l.3-.02c-.16-2.91-1.98-6-3.49-8.07-1.62-2.24-3.23-3.83-3.25-3.84l-.21.22C643.85 507.82 650.14 514.04 650.43 519.47z" class="colorde9960 svgShape"></path><path fill="#13254c" d="M566.3,500.4c-2.47,1.71-1.54,5.89,0.41,10.67c0.62,1.53,1.54,2.92,2.71,4.1c4.06,4.1,9.54,5.69,12.43,3.28
			c2.8-1.95-0.65-7.43-4.14-12.46C574.21,500.96,569.11,498.45,566.3,500.4z" class="color4c1d13 svgShape"></path><path fill="#d56446" d="M567.15,499.31c-3.09,2.69-0.83,7.9,3.56,12.83c2.45,2.04,9.33,7.35,11.75,5.19s1.41-8.08-2.98-13.01
			C575.09,499.39,569.59,497.17,567.15,499.31z" class="colord57346 svgShape"></path><path fill="#163168" d="M581.95,515.11l0.17-0.27l-5.39-3.55c-0.44-0.29-0.8-0.69-1.04-1.15l-4.34-8.41l-0.28,0.15l4.34,8.41
				c0.27,0.51,0.66,0.95,1.14,1.27L581.95,515.11z" class="color682b16 svgShape"></path><path fill="#de7a60" d="M574.1 513.34l.17-.27c-5.24-3.24-6.34-11.51-6.35-11.59l-.32.04c0 .02.28 2.14 1.21 4.65C569.67 508.48 571.28 511.61 574.1 513.34zM581.54 512.9l.32-.02c-.17-3.06-2.09-6.31-3.67-8.5-1.71-2.36-3.4-4.03-3.42-4.04l-.22.23C574.61 500.63 581.23 507.17 581.54 512.9z" class="colorde9960 svgShape"></path><path fill="#021e59" d="M240.99,296.09c15.71-27.17,3.93-76.93,38.3-74.63c30.44,0.65,18.33,43.54,31.1,75.29
			c0,0-15.06-0.65-19.97-3.6C290.42,293.15,255.39,292.82,240.99,296.09z" class="color100259 svgShape"></path><path fill="#091328" d="M263.41 268.11c0 0-4.58 21.28-8.84 25.53l12.86 1.18 6.69-23.73L263.41 268.11zM289.51 268.11c0 0 4.58 23.24 8.84 27.5l-12.86-.79-6.69-23.73L289.51 268.11z" class="color0a0928 svgShape"></path><path fill="#e5a695" d="M287.8,272.28c0,0,0.33,20.04,2.29,26.85h-25.21c0,0,1.96-23.83-0.33-29.88L287.8,272.28z" class="colore5959d svgShape"></path><path fill="#f9bcac" d="M263.29,268.25c-4.4-20.34-0.03-36.45,14.75-37.14c13.28,0.56,17.02,13.76,13.07,37.15
			c-0.36,2.15-1.67,4.02-3.55,5.12l-6.37,4c-0.83,0.52-1.79,0.8-2.77,0.8h-2.68c-1.05,0-2.08-0.32-2.94-0.91l-6.38-4.38
			C264.82,271.81,263.7,270.14,263.29,268.25z" class="colorf9aeac svgShape"></path><path fill="#021e59" d="M254.57,293.64c4.42-23.33,8.68-56.13,23.57-62.52l0.33-2.62l-14.4,4.58l-5.56,18l-6.22,29.13l-0.65,14.08
			L254.57,293.64z" class="color100259 svgShape"></path><path fill="#2a2e37" d="M282.78 566.91v18.7H312C312 585.61 310.83 568.08 282.78 566.91zM269.92 566.91v18.7H240.7C240.7 585.61 241.87 568.08 269.92 566.91z" class="color362a37 svgShape"></path><polygon fill="#031c51" points="303.82 407.95 299.14 571.58 281.61 571.58 279.27 448.86 269.92 572.75 251.22 572.75 253.56 407.95" class="color060351 svgShape"></polygon><path fill="#f9bcac" d="M350.81,392.56c0,0,16.67,6.35,6.35,13.49c0,0-26.97,18.78-22.61-16.41L350.81,392.56z" class="colorf9aeac svgShape"></path><path fill="#586f9f" d="M247.72,409.12c-10.84-53.21-16.79-102.22,11.69-121.56c18.7,17.53,35.06,0,35.06,0s23.38-2.34,56.1,107.53
			l-15.19,3.51L312,351.85l-5.84,65.45h-57.27L247.72,409.12z" class="color915293 svgShape"></path><path fill="#f9bcac" d="M265.25,370.55l15.18,0.72c4.79,0.23,8.11,4.86,6.79,9.46v0c-1.15,4.02-5.39,6.3-9.38,5.04l-14.92-4.71
			L265.25,370.55z" class="colorf9aeac svgShape"></path><path fill="#6c85b5" d="M256.6,307.38l-2.6,39.57c-0.3,4.55,1.62,8.96,5.15,11.84l13.04,10.64l-9.37,11.67l-27.92-20.02
			c-2.92-2.09-4.42-5.65-3.88-9.21l7.1-46.5c0.8-5.25,5.83-8.76,11.03-7.71h0C253.73,298.58,256.91,302.73,256.6,307.38z" class="color6191f3 svgShape"></path><ellipse cx="305.14" cy="373.6" fill="#b3b3b3" rx="43.54" ry="6.26" class="colorb3b3b3 svgShape"></ellipse><path fill="#031c51" d="M321.89,376.28L321.89,376.28c-6.09,0-11.03-4.94-11.03-11.03v-6.86h22.07v6.86
				C332.92,371.34,327.98,376.28,321.89,376.28z" class="color060351 svgShape"></path><path fill="none" stroke="#031c51" stroke-miterlimit="10" stroke-width="3" d="M331.73,362.57h7.16c0,0,1.19,11.33-10.14,10.14" class="colorStroke060351 svgStroke"></path><polygon fill="#cc5d40" points="270.63 315.49 270.63 319.16 271.86 319.16 271.86 334.46 277.98 334.46 277.98 319.16 279.2 319.16 279.2 315.49" class="colorcc4040 svgShape"></polygon><path fill="#3d4c6a" d="M266.35,342.1v26.08c0,2.34,1.87,4.23,4.17,4.23h8.79c2.31,0,4.17-1.9,4.17-4.23v-26.07
				c0-2.1-0.61-4.15-1.76-5.9l-3.75-5.7v2.17h-6.12v-2.2l-3.76,5.74C266.96,337.97,266.35,340.01,266.35,342.1z" class="color3d4e6a svgShape"></path><rect width="21.22" height="4.45" x="286.72" y="334.17" fill="#da6e52" transform="rotate(-180 297.328 336.398)" class="colorda8952 svgShape"></rect><ellipse cx="297.39" cy="333.88" fill="#13254c" rx="10.67" ry="1.41" class="color4c1d13 svgShape"></ellipse><path fill="#da6e52" d="M287.52,357.24l-0.86-10.4c10.86,1.74,18.28,0.45,21.4-0.33l-0.8,10.22
				C304.76,357.51,298.94,358.59,287.52,357.24z" class="colorda8952 svgShape"></path><path fill="#81a3eb" d="M286.66 346.84l-.72-8.74 22.79-.13-.67 8.54C304.94 347.29 297.52 348.58 286.66 346.84zM307.25 356.73l-1.15 14.63h-17.42l-1.17-14.12C298.94 358.59 304.76 357.51 307.25 356.73z" class="color81c4eb svgShape"></path><path fill="#da6e52" stroke="#0b1d42" stroke-miterlimit="10" d="M285.67,338.66c8.12,1.99,15.95,2.11,23.44,0v-2.52c-7.81,2.66-15.62,2.39-23.44,0V338.66z" class="colorda8952 svgShape colorStroke42210b svgStroke"></path><ellipse cx="289.43" cy="600.01" fill="#f4ddd7" rx="174.32" ry="22.3" class="colorf4d7f4 svgShape"></ellipse><rect width="299.03" height="172.67" x="144.21" y="424.66" fill="#2a2e37" class="color362a37 svgShape"></rect><rect width="420.62" height="16.73" x="144.21" y="417.19" fill="#031c51" class="color060351 svgShape"></rect><polygon fill="#cb806d" points="190.21 445.87 239.8 446.47 239.8 461.41" class="colorfec227 svgShape"></polygon><polygon fill="#cb806d" points="253.54 445.87 317.47 445.87 271.47 468.58 254.14 462" class="colorfec227 svgShape"></polygon><polygon fill="#cb806d" points="180.06 459.62 241.59 475.15 241.59 485.9 198.58 509.8 168.11 479.33" class="colorfec227 svgShape"></polygon><polygon fill="#cb806d" points="159.14 490.68 186.03 516.37 150.18 504.43" class="colorfec227 svgShape"></polygon><polygon fill="#cb806d" points="241.59 501.44 208.73 519.96 222.48 532.51 244.58 542.66" class="colorfec227 svgShape"></polygon><polygon fill="#cb806d" points="273.86 482.32 254.74 492.48 258.32 547.44 308.51 570.15 334.8 499.05" class="colorfec227 svgShape"></polygon><polygon fill="#cb806d" points="184.83 533.1 217.1 546.85 245.18 575.52 245.18 583.29 145.4 583.29 145.4 555.81" class="colorfec227 svgShape"></polygon><polygon fill="#cb806d" points="350.93 501.44 398.13 585.08 436.97 585.08 436.97 522.95" class="colorfec227 svgShape"></polygon><polygon fill="#cb806d" points="369.45 446.47 354.52 485.9 424.42 506.22 426.21 446.47" class="colorfec227 svgShape"></polygon><polygon fill="#cb806d" points="325.24 445.28 353.32 445.28 340.18 482.92" class="colorfec227 svgShape"></polygon><polygon fill="#cb806d" points="343.16 517.57 322.25 574.93 340.18 583.89 381.4 583.89" class="colorfec227 svgShape"></polygon><polygon fill="#cb806d" points="259.52 564.77 303.73 583.29 273.26 583.89 257.73 568.35" class="colorfec227 svgShape"></polygon><rect width="9.44" height="10.39" x="212.87" y="396.14" fill="#b3b3b3" transform="rotate(-180 217.593 401.33)" class="colorb3b3b3 svgShape"></rect><rect width="19.83" height="3.78" x="216.65" y="369.7" fill="#b3b3b3" transform="rotate(-180 226.563 371.588)" class="colorb3b3b3 svgShape"></rect><rect width="12.27" height="17.94" x="209.09" y="356.48" fill="#13254c" transform="rotate(-180 215.232 365.45)" class="color4c1d13 svgShape"></rect><path fill="#d56446" d="M195.88 359.31h30.21c2.61 0 4.72-2.11 4.72-4.72l0 0c0-2.61-2.11-4.72-4.72-4.72h-30.21V359.31zM195.88 418.8h37.77c4.17 0 7.55-3.38 7.55-7.55l0 0c0-4.17-3.38-7.55-7.55-7.55h-37.77V418.8z" class="colord57346 svgShape"></path><rect width="35.88" height="79.31" x="165.66" y="339.48" fill="#da6e52" transform="rotate(-180 183.6 379.141)" class="colorda8952 svgShape"></rect><ellipse cx="494.98" cy="412.67" fill="#b3b3b3" rx="53.91" ry="7.75" class="colorb3b3b3 svgShape"></ellipse><path fill="#13254c" d="M478.51 411.95c-.68 0-1.38-.05-2.11-.14l.23-2.67c3.79.5 6.69-.46 8.61-2.84 2.49-3.09 2.8-7.89 2.8-10.11h-7.83v-2.68h9.83l.1 1.2c.03.34.66 8.46-3.37 13.48C484.76 410.69 481.99 411.95 478.51 411.95zM522.08 411.95c-.68 0-1.38-.05-2.11-.14l.23-2.67c3.8.5 6.7-.46 8.62-2.85 2.49-3.1 2.8-7.88 2.79-10.1h-7.83v-2.68h9.83l.1 1.2c.03.34.66 8.45-3.37 13.48C528.33 410.69 525.56 411.95 522.08 411.95z" class="color4c1d13 svgShape"></path><path fill="#d56446" d="M468.98 415.99h-1.91c-7.02 0-12.71-5.69-12.71-12.71v-14.86h27.32v14.86C481.69 410.3 476 415.99 468.98 415.99zM512.55 415.99h-1.91c-7.02 0-12.71-5.69-12.71-12.71v-14.86h27.32v14.86C525.25 410.3 519.56 415.99 512.55 415.99z" class="colord57346 svgShape"></path><path fill="#a6c3ff" d="M513.93 359.73c.67.96.96 1.97 1.1 2.99.13 1.02.06 2.06-.25 3.1-.31 1.04-.81 2.09-1.71 3.01-.88.93-2.14 1.68-3.53 1.96l1.2-.67c.11-.13 0-.07-.01-.07-.04.01-.08.03-.12.05-.09.04-.18.07-.26.11-.17.07-.37.13-.56.35-.17.22-.31.61-.33 1.13-.01.26.01.54.01.86.05.29.08.63.12 1-.72.03-1.42-.11-2.07-.46-.64-.36-1.25-.94-1.65-1.77-.39-.83-.49-1.87-.31-2.8.1-.46.24-.91.44-1.33.1-.21.21-.41.34-.6.15-.22.22-.35.51-.67l1.2-.67.84-.66c.34-.27.76-.69 1.25-1.17l1.63-1.68C512.37 361.13 513.04 360.47 513.93 359.73zM517.88 369.21c.67.96.96 1.97 1.1 3 .13 1.02.06 2.06-.25 3.1-.31 1.04-.81 2.09-1.71 3.02-.88.93-2.14 1.68-3.53 1.96l1.2-.67c.11-.13 0-.06-.01-.07-.04.01-.08.03-.12.05-.09.04-.18.07-.26.11-.17.07-.37.13-.56.35-.17.22-.31.61-.33 1.13-.01.26.01.54.01.86.05.29.08.63.12 1-.72.03-1.42-.11-2.07-.46-.64-.36-1.25-.94-1.66-1.77-.39-.83-.49-1.87-.31-2.8.1-.46.24-.91.44-1.33.1-.21.21-.41.34-.6.15-.22.22-.35.51-.67l1.2-.67.84-.66c.34-.27.76-.69 1.25-1.17l1.63-1.68C516.32 370.62 516.99 369.95 517.88 369.21z" class="colora6dcff svgShape"></path><path fill="#a6c3ff" d="M505.11 370.2c.92.73 1.49 1.62 1.91 2.55.42.94.65 1.96.65 3.04-.01 1.08-.18 2.23-.78 3.38-.58 1.14-1.57 2.22-2.82 2.88l.96-.98c.06-.16-.02-.06-.04-.06-.04.02-.07.05-.1.08-.07.06-.15.12-.22.18-.14.12-.31.23-.44.5-.1.26-.12.68 0 1.18.06.25.16.51.26.82.13.27.25.58.4.93-.68.23-1.39.3-2.12.15-.72-.16-1.47-.54-2.09-1.22-.61-.69-1-1.65-1.1-2.6-.04-.47-.03-.94.04-1.4.04-.23.09-.45.15-.68.08-.25.11-.4.3-.79l.96-.98.62-.87c.25-.35.53-.88.86-1.47l1.08-2.07C504.01 371.99 504.47 371.16 505.11 370.2zM471.71 359.14c.67.96.96 1.97 1.1 3 .13 1.02.06 2.06-.25 3.1-.31 1.04-.81 2.09-1.71 3.02-.88.93-2.14 1.68-3.52 1.96l1.2-.67c.11-.13 0-.07-.02-.07-.04.01-.08.03-.12.05-.09.04-.18.07-.26.11-.17.07-.37.13-.56.35-.17.22-.31.61-.34 1.13-.01.26.01.54.01.86.05.29.08.63.12 1-.72.03-1.42-.11-2.07-.46-.64-.36-1.25-.94-1.66-1.77-.39-.83-.49-1.87-.31-2.81.1-.46.24-.91.44-1.33.1-.21.21-.41.34-.6.15-.22.22-.35.51-.67l1.2-.67.84-.66c.34-.27.76-.69 1.25-1.17l1.63-1.68C470.15 360.54 470.82 359.88 471.71 359.14zM475.66 368.63c.67.96.96 1.97 1.1 3 .13 1.02.06 2.06-.25 3.1-.31 1.04-.81 2.09-1.71 3.02-.88.93-2.14 1.68-3.52 1.96l1.2-.67c.11-.13 0-.07-.02-.07-.04.01-.08.03-.12.05-.09.04-.18.07-.26.11-.17.07-.37.13-.56.35-.17.22-.31.61-.34 1.13-.01.26.01.54.01.86.05.29.08.63.12 1-.72.03-1.42-.11-2.07-.46-.64-.36-1.25-.94-1.66-1.77-.39-.83-.49-1.87-.31-2.81.1-.46.24-.91.44-1.33.1-.21.21-.41.34-.6.15-.22.22-.35.51-.67l1.2-.67.84-.66c.34-.27.76-.69 1.25-1.16l1.63-1.68C474.1 370.03 474.77 369.37 475.66 368.63z" class="colora6dcff svgShape"></path><path fill="#a6c3ff" d="M462.89,369.62c0.92,0.73,1.49,1.62,1.91,2.55c0.42,0.94,0.65,1.96,0.65,3.04c0,1.08-0.18,2.23-0.78,3.38
				c-0.58,1.14-1.57,2.22-2.82,2.88l0.96-0.98c0.06-0.16-0.02-0.06-0.04-0.06c-0.03,0.02-0.07,0.05-0.1,0.08
				c-0.07,0.06-0.15,0.12-0.22,0.18c-0.15,0.12-0.32,0.23-0.44,0.5c-0.1,0.26-0.12,0.68,0,1.18c0.06,0.25,0.16,0.51,0.26,0.82
				c0.13,0.27,0.25,0.58,0.4,0.93c-0.68,0.23-1.39,0.3-2.12,0.15c-0.72-0.16-1.47-0.54-2.09-1.22c-0.61-0.69-1-1.65-1.1-2.6
				c-0.04-0.47-0.03-0.94,0.04-1.4c0.04-0.23,0.09-0.45,0.15-0.68c0.08-0.25,0.11-0.4,0.3-0.79l0.96-0.98l0.62-0.87
				c0.25-0.35,0.53-0.88,0.86-1.47l1.08-2.07C461.79,371.41,462.25,370.58,462.89,369.62z" class="colora6dcff svgShape"></path><g></g><path fill="#de7a60" d="M374.14,374.06c0,0-9.51,24.67-8.37,36.63c4.07-11.81,16.19-31.62,19.48-36.9L374.14,374.06z" class="colorde9960 svgShape"></path><path fill="#e07a5f" d="M432.85,372.67l-47.6,1.13c-3.29,5.28-15.42,25.08-19.48,36.9c0.37,3.9,1.86,6.45,5.19,6.35
			c0,0,43.37,6.47,58.79,1.71c2.56-0.79,4.4-3.04,4.67-5.71C435.35,403.98,437.36,379.44,432.85,372.67z" class="colorda8a57 svgShape"></path><path fill="#d56446" d="M370.58,363.68c0.16,1.31,0.49,2.8,1.16,4.2c0.47,0.98,0.54,2.09,0.26,3.14c-0.48,1.8-0.84,4.38,0.96,4.64
			c0,0,36.7,5.35,59.52-1.18c0.93-0.27,1.55-1.15,1.46-2.11c-0.09-0.91-0.43-2-1.4-2.81c-1.01-0.85-1.6-2.1-1.66-3.42
			c0-0.04,0-0.07-0.01-0.11c-0.16-3.17-2.91-5.58-6.07-5.36c-9.38,0.65-30.62,1.82-35.69-0.57c-0.82-0.39-1.69-0.66-2.59-0.75
			c-2.72-0.26-8.03-0.67-12.09-0.34C372.03,359.2,370.3,361.3,370.58,363.68z" class="colord57346 svgShape"></path><path fill="none" stroke="#0b1d42" stroke-miterlimit="10" stroke-width="2" d="M381.31,369.29c0,0,26.27,3.98,43.78,0" class="colorStroke42210b svgStroke"></path><path fill="#13254c" d="M414.21,384.92c3.35,2.71,1.57,8.59-1.71,15.21c-1.05,2.12-2.52,4.01-4.3,5.57
				c-6.23,5.43-14.25,7.12-18.12,3.38c-3.8-3.08,1.72-10.55,7.25-17.37S410.41,381.84,414.21,384.92z" class="color4c1d13 svgShape"></path><path fill="#d56446" d="M413.12,383.26c4.13,4.18,0.34,11.39-6.46,17.97c-3.71,2.65-14.12,9.51-17.35,6.17
				c-3.24-3.34-1.16-11.7,5.64-18.28S409.85,379.95,413.12,383.26z" class="colord57346 svgShape"></path><path fill="#163168" d="M390.28,404.28l-0.22-0.4l8.09-4.5c0.66-0.37,1.21-0.9,1.6-1.54l7.1-11.56l0.39,0.24l-7.1,11.56
					c-0.43,0.71-1.05,1.29-1.77,1.7L390.28,404.28z" class="color682b16 svgShape"></path><path fill="#de7a60" d="M401.69 402.59l-.21-.4c7.84-4.07 10.28-15.78 10.31-15.9l.45.09c-.01.03-.62 3.04-2.22 6.51C408.54 396.12 405.9 400.41 401.69 402.59zM391.1 401.16l-.45-.06c.56-4.36 3.65-8.8 6.15-11.76 2.69-3.19 5.29-5.4 5.32-5.42l.29.35C402.31 384.36 392.15 393.02 391.1 401.16z" class="colorde9960 svgShape"></path><path fill="#d56446" d="M718.18,238.36c-31.16,5.8-57.56,4.91-84.91,2.74c-3.53-0.28-7.03-0.78-10.49-1.51
		c-16.04-3.37-69.79-13.44-115.19-7.84l32.57,25.17l94.76,4.44l75.51-10.36L718.18,238.36z" class="colord57346 svgShape"></path><path fill="#b7ceff" d="M716.47,542.28l-60.82-125.47L583.1,422l-58.15,118.63C558.31,555.34,655.89,569.62,716.47,542.28z" opacity=".39" class="colorb7dfff svgShape"></path><path fill="#d56446" d="M677.12,330.2c0,0-16.29,33.31-14.07,59.22l-85.88-3.7c0,0,8.14-19.25-11.84-54.78L677.12,330.2z" class="colord57346 svgShape"></path><path fill="#d56446" d="M658.11,433.75c-25.19,5.06-49.8,5.34-73.57-1.32c-3.06-0.86-5.14-3.68-5.14-6.86v-48.74h85.14
		c-3.53,13.31-4.36,26.73-1,49.25C664.07,429.68,661.67,433.04,658.11,433.75z" class="colord57346 svgShape"></path><path fill="none" stroke="#031c51" stroke-miterlimit="10" stroke-width="2" d="M600.65,381.47c-8.66,21.28,17.25,33.12,3.18,47.19" class="colorStroke060351 svgStroke"></path><rect width="87.15" height="8.26" x="577.95" y="380.1" fill="#13254c" transform="rotate(3.492 621.092 383.943)" class="color4c1d13 svgShape"></rect><path fill="#de7a60" d="M707.47,261.35c0,0-9.43,39.4-25.9,69.67c-4.44,8.16-12.98,13.24-22.27,13.24h-76.1
		c-9.75,0-18.6-5.72-22.59-14.61c-7.68-17.11-18.97-45.54-18.97-64.6L707.47,261.35z" class="colorde9960 svgShape"></path><path fill="#cb806d" d="M735.23,229.89c-66.44,28.54-142.2,29.77-228.01,1.48C534.24,315.39,702.29,310.95,735.23,229.89z" class="colorfec227 svgShape"></path><path fill="#d56446" d="M730.24,570.69l-13.77-28.41c-60.58,27.34-158.16,13.06-191.52-1.66l-12.45,25.41
		c-10.78,21.99,3.74,47.95,28.11,50.31c45.43,4.39,112.51,9.14,160.87,5.04C726.17,619.29,741.05,593,730.24,570.69z" class="colord57346 svgShape"></path><ellipse cx="619.74" cy="544.39" fill="#13254c" rx="96.97" ry="14.68" class="color4c1d13 svgShape"></ellipse><g></g><path fill="#13254c" d="M610.12,204.73c-3.86,2.68-2.41,9.23,0.64,16.7c0.98,2.39,2.42,4.57,4.24,6.41
			c6.35,6.42,14.94,8.91,19.46,5.14c4.39-3.05-1.02-11.63-6.49-19.51S614.5,201.69,610.12,204.73z" class="color4c1d13 svgShape"></path><path fill="#d56446" d="M611.44,203.02c-4.83,4.21-1.3,12.37,5.58,20.09c3.83,3.19,14.6,11.5,18.4,8.12
			c3.79-3.38,2.21-12.65-4.66-20.36C623.88,203.15,615.27,199.68,611.44,203.02z" class="colord57346 svgShape"></path><path fill="#163168" d="M634.6,227.75l0.27-0.42l-8.44-5.55c-0.69-0.45-1.25-1.07-1.62-1.8l-6.8-13.16l-0.44,0.23l6.8,13.16
				c0.42,0.8,1.03,1.49,1.79,1.99L634.6,227.75z" class="color682b16 svgShape"></path><path fill="#de7a60" d="M622.31 224.99l.26-.42c-8.21-5.07-9.92-18.02-9.94-18.15l-.49.06c0 .03.43 3.36 1.89 7.27C615.38 217.38 617.91 222.27 622.31 224.99zM633.97 224.29l.5-.03c-.26-4.79-3.27-9.88-5.75-13.3-2.68-3.7-5.33-6.31-5.35-6.33l-.35.36C623.12 205.09 633.48 215.34 633.97 224.29z" class="colorde9960 svgShape"></path><g></g><path fill="#13254c" d="M561.37,213.63c-3.86,2.68-2.41,9.23,0.64,16.7c0.98,2.39,2.42,4.57,4.24,6.41
			c6.35,6.42,14.94,8.91,19.46,5.14c4.39-3.05-1.02-11.63-6.49-19.51C573.75,214.5,565.76,210.58,561.37,213.63z" class="color4c1d13 svgShape"></path><path fill="#d56446" d="M562.69,211.91c-4.83,4.21-1.3,12.37,5.58,20.09c3.83,3.19,14.6,11.5,18.4,8.12
			c3.79-3.38,2.21-12.65-4.66-20.36C575.13,212.05,566.52,208.58,562.69,211.91z" class="colord57346 svgShape"></path><path fill="#163168" d="M585.86,236.65l0.27-0.42l-8.44-5.55c-0.69-0.45-1.25-1.07-1.62-1.8l-6.8-13.16l-0.44,0.23l6.8,13.16
				c0.42,0.8,1.03,1.49,1.79,1.99L585.86,236.65z" class="color682b16 svgShape"></path><path fill="#de7a60" d="M573.57 233.89l.26-.42c-8.21-5.07-9.92-18.02-9.94-18.15l-.49.06c0 .03.43 3.36 1.89 7.27C566.64 226.28 569.17 231.17 573.57 233.89zM585.23 233.19l.5-.03c-.26-4.79-3.27-9.88-5.75-13.3-2.68-3.7-5.33-6.31-5.35-6.33l-.35.36C574.38 213.98 584.74 224.23 585.23 233.19z" class="colorde9960 svgShape"></path></svg></g></svg>