<svg id="SvgjsSvg2315" width="360" height="360" xmlns="http://www.w3.org/2000/svg" version="1.1" xmlns:xlink="http://www.w3.org/1999/xlink" xmlns:svgjs="http://svgjs.com/svgjs"><defs id="SvgjsDefs2316"></defs><g id="SvgjsG2317"><svg xmlns="http://www.w3.org/2000/svg" enable-background="new 0 0 850 850" viewBox="0 0 850 850" width="360" height="360"><ellipse cx="199.83" cy="635.02" fill="#e07a5f" rx="68.51" ry="17.84" class="colorda8952 svgShape"></ellipse><path fill="#f9e4de" d="M184.46,551.42c-35.13-50.07-72.92-129.04,5.67-163.46c0.72-0.32,1.46-0.61,2.19-0.91
		c3.71-1.53,23.51-12.12,10.57-59.9c-0.3-1.12-0.84-2.94-1.19-4.05c-2.35-7.38-15.36-55.48,31.75-90.66
		c22.47-16.78,50.37-23.81,77.94-20.67c22.45,2.56,53,9.95,85.55,29.27c0,0,24.14,20.3,45.6-0.92c0,0,26.5-53.13,74.63-15.58
		c6.57,5.12,12.01,11.59,16.37,18.79c7.85,12.96,30.84,36.87,84.24,5.09c0,0,95.67-45.2,80.47,95.02c0,0-21.42,86.83,6.5,137.09
		c7,12.6,11.69,26.43,13.13,40.87c2.91,29.12-0.39,69.72-40.74,72.21c-16.97,1.05-33.7,4.8-49.22,11.94
		c-98.24,45.25-243.44,48.09-354.09,12.12C237.91,606.01,206.54,582.9,184.46,551.42z" class="colorf8def9 svgShape"></path><path fill="#e5a695" d="M529.56,355.75c28.84,19.97,72.11,9.98,72.11,9.98l93.19-12.2V409c0,0-117.6,7.77-170.85-15.53L529.56,355.75z
		" class="colore5959d svgShape"></path><rect width="108.97" height="127.5" x="577.25" y="197.14" fill="#e68266" class="colore13268 svgShape"></rect><rect width="89.35" height="112.55" x="587.06" y="204.61" fill="#18284a" class="color18304a svgShape"></rect><rect width="43.23" height="6.97" x="627.06" y="242.96" fill="#ceb2aa" class="colorceaaaa svgShape"></rect><rect width="43.23" height="6.97" x="627.06" y="257.9" fill="#ceb2aa" class="colorceaaaa svgShape"></rect><rect width="43.23" height="6.97" x="627.06" y="272.84" fill="#ceb2aa" class="colorceaaaa svgShape"></rect><rect width="43.23" height="6.97" x="627.06" y="287.78" fill="#ceb2aa" class="colorceaaaa svgShape"></rect><path fill="#13254c" d="M658.4,215.48c1.56,3.63-2.01,8.83-7.01,14.29c-1.6,1.75-3.44,3.16-5.39,4.15
			c-6.82,3.44-13.62,2.72-15.18-2.07c-1.77-4.12,5.28-9.76,12.08-14.77C649.69,212.08,656.63,211.36,658.4,215.48z" class="color4c1d13 svgShape"></path><path fill="#d56446" d="M658.18,213.55c1.61,5.29-4,11.19-11.69,15.58c-3.84,1.48-14.41,5.08-15.64,0.87
			c-1.23-4.21,3.49-11.73,11.18-16.12C649.72,209.49,656.91,209.36,658.18,213.55z" class="colord57346 svgShape"></path><path fill="#163168" d="M632.76,227.25l-0.02-0.45l7.9-1.99c0.64-0.16,1.27-0.51,1.81-1.02l9.78-9.15l0.21,0.35l-9.78,9.15
				c-0.6,0.56-1.29,0.95-2,1.13L632.76,227.25z" class="color682b16 svgShape"></path><path fill="#de7a60" d="M642.16 228.99l-.01-.46c7.55-1.65 13.81-12.32 13.87-12.42l.31.22c-.02.03-1.62 2.77-4.14 5.68C649.85 224.7 646.21 228.1 642.16 228.99zM634.56 224.46l-.32-.19c2.06-4.08 6.1-7.48 9.13-9.63 3.27-2.31 6.09-3.69 6.12-3.7l.1.43C649.46 211.42 638.42 216.84 634.56 224.46z" class="colorde9960 svgShape"></path><path fill="#b7ceff" d="M589.34,260.95v8.09c0,4.09,3.32,7.41,7.41,7.41h6.01v-22.92h-6.01
			C592.65,253.54,589.34,256.86,589.34,260.95z M591.19,260.99c0-3.32,2.69-6.01,6.01-6.01h4.11v20.03h-4.11
			c-3.32,0-6.01-2.69-6.01-6.01V260.99z" class="colorb7dfff svgShape"></path><polygon fill="#d56446" points="621.33 269.85 619.87 284.09 601.64 284.09 600.33 269.85" class="colord57346 svgShape"></polygon><path fill="#a8452a" d="M618.86,294c0,0-9.91,1.86-16.31,0l-0.91-9.91h18.23L618.86,294z" class="colorfec227 svgShape"></path><path fill="#b7ceff" d="M598.91,254.3l-0.9-9.84c0,0,15.69,4.54,26.01-0.83l-1.06,10.38C619.91,254.7,610.59,256.37,598.91,254.3z" class="colorb7dfff svgShape"></path><path fill="#a8452a" d="M598.91,254.3c11.68,2.08,21,0.4,24.05-0.29l-1.62,15.84h-21L598.91,254.3z" class="colorfec227 svgShape"></path><path fill="#f5f0ef" d="M598.01,244.66c0,2.62,5.78,4.75,12.9,4.75s12.9-2.13,12.9-4.75s-5.88-6.61-13.01-6.61
			S598.01,242.04,598.01,244.66z" class="colorf5efef svgShape"></path><ellipse cx="610.39" cy="244.66" fill="#13254c" rx=".83" ry=".41" class="color4c1d13 svgShape"></ellipse><ellipse cx="611.32" cy="241.98" fill="#13254c" rx=".93" ry=".41" class="color4c1d13 svgShape"></ellipse><ellipse cx="615.97" cy="243.94" fill="#13254c" rx=".83" ry=".31" class="color4c1d13 svgShape"></ellipse><ellipse cx="618.65" cy="241.56" fill="#13254c" rx=".62" ry=".41" class="color4c1d13 svgShape"></ellipse><ellipse cx="606.78" cy="242.59" fill="#13254c" rx=".93" ry=".62" class="color4c1d13 svgShape"></ellipse><ellipse cx="602.14" cy="241.36" fill="#13254c" rx="1.03" ry=".41" class="color4c1d13 svgShape"></ellipse><ellipse cx="600.79" cy="243.83" fill="#13254c" rx="1.14" ry=".41" class="color4c1d13 svgShape"></ellipse><ellipse cx="609.67" cy="239.29" fill="#13254c" rx=".72" ry=".41" class="color4c1d13 svgShape"></ellipse><rect width="167.79" height="35.22" x="376.58" y="279.4" fill="#e07a5f" class="colorda8952 svgShape"></rect><ellipse cx="459.96" cy="277.07" fill="#13254c" rx="84.41" ry="11.13" class="color4c1d13 svgShape"></ellipse><path fill="#e07a5f" d="M538.07,461.86l6.8-82.28c-85.91,13.73-144.58,3.58-169.21-2.61l6.34,80.86
			C401.66,464.01,447.71,472.52,538.07,461.86z" class="colorda8952 svgShape"></path><path fill="#fff9f8" d="M544.88 379.58l5.71-69.11-180.22-1.04 5.3 67.54C400.29 383.16 458.96 393.31 544.88 379.58zM382.01 457.84l9.08 115.72h137.76l9.23-111.69C447.71 472.52 401.66 464.01 382.01 457.84z" class="colorf8fffe svgShape"></path><path fill="#e07a5f" stroke="#0b1d42" stroke-miterlimit="10" d="M552.66,314.86c-64.24,15.77-126.18,16.66-185.4,0v-19.93c61.76,21.07,123.56,18.91,185.4,0V314.86z" class="colorda8952 svgShape colorStroke42210b svgStroke"></path><g><path fill="#13254c" d="M343.1,215.04c5.71,4.63,2.69,14.66-2.92,25.94c-1.8,3.62-4.3,6.85-7.34,9.5
			c-10.64,9.26-24.31,12.15-30.91,5.76c-6.48-5.25,2.94-18.01,12.36-29.64S336.62,209.79,343.1,215.04z" class="color4c1d13 svgShape"></path><path fill="#d56446" d="M341.24,212.22c7.04,7.13,0.59,19.43-11.02,30.65c-6.33,4.52-24.09,16.23-29.61,10.52
			c-5.52-5.71-1.98-19.96,9.62-31.18S335.66,206.58,341.24,212.22z" class="colord57346 svgShape"></path><path fill="#163168" d="M302.28,248.08l-0.38-0.68l13.8-7.67c1.12-0.62,2.07-1.53,2.74-2.62l12.11-19.72l0.66,0.41l-12.11,19.72
				c-0.74,1.21-1.78,2.21-3.02,2.89L302.28,248.08z" class="color682b16 svgShape"></path><path fill="#de7a60" d="M321.75 245.2l-.36-.69c13.38-6.95 17.54-26.92 17.58-27.12l.76.15c-.01.05-1.06 5.18-3.78 11.11C333.43 234.15 328.92 241.47 321.75 245.2zM303.67 242.76l-.77-.1c.96-7.44 6.24-15.01 10.49-20.06 4.6-5.45 9.03-9.21 9.08-9.25l.5.59C322.79 214.09 305.46 228.86 303.67 242.76z" class="colorde9960 svgShape"></path></g><g><path fill="#2a406f" d="M586.58,630.16l-2.42-0.66c22.54-82.65,85.71-93.67,86.35-93.77l0.4,2.48
				C670.28,538.3,608.68,549.14,586.58,630.16z" class="color6f2b2a svgShape"></path><rect width="54.96" height="2.51" x="616.14" y="537.19" fill="#2a406f" transform="rotate(-51.625 643.655 538.428)" class="color6f2b2a svgShape"></rect><rect width="25.59" height="2.51" x="607.71" y="553.28" fill="#2a406f" transform="rotate(-78.732 620.532 554.549)" class="color6f2b2a svgShape"></rect><path fill="#2a406f" d="M593.9,607.99l-2.01-1.5c0.62-0.83,15.56-20.48,38.25-28.05l0.79,2.38
				C609,588.13,594.05,607.79,593.9,607.99z" class="color6f2b2a svgShape"></path><ellipse cx="626.15" cy="532.66" fill="#2a406f" rx="13.04" ry="7.9" transform="rotate(-72.428 626.197 532.686)" class="color6f2b2a svgShape"></ellipse><ellipse cx="667.54" cy="510.79" fill="#2a406f" rx="13.04" ry="9.33" transform="rotate(-60 667.552 510.811)" class="color6f2b2a svgShape"></ellipse><ellipse cx="677.58" cy="535.89" fill="#2a406f" rx="13.04" ry="9.33" transform="rotate(-5.578 677.29 535.678)" class="color6f2b2a svgShape"></ellipse><ellipse cx="634.92" cy="576.05" fill="#2a406f" rx="13.04" ry="9.33" transform="rotate(-30 634.881 576.069)" class="color6f2b2a svgShape"></ellipse></g><path fill="#f9bcac" d="M693.75,413.44c-72.36-6.48-144.72,13.32-177.16-35.77c-1.66-2.51-3.89-4.6-6.5-6.1
		c-4.91-2.81-13.55-9.1-20.84-21.4c-1.16-1.96-3.38-3.04-5.63-2.66h0c-2.02,0.34-3.69,1.76-4.31,3.71
		c-1.75,5.5-2.52,17.23,15.53,29.13c1.39,0.92,2.34,2.43,2.43,4.1c0.21,3.91-3.98,8.81-34.27-2.07l-38.7-12.9
		c-2.55-0.85-5.31,0.47-6.26,2.98l0,0c-0.92,2.46,0.22,5.21,2.61,6.3l42.08,19.13c1.36,0.62,1.93,2.23,1.26,3.57l0,0
		c-0.58,1.15-1.89,1.72-3.12,1.34c-7.96-2.47-36.4-11.08-51.89-13.26c-3.28-0.46-6.34,1.7-6.99,4.95l0,0
		c-0.64,3.19,1.28,6.33,4.41,7.22l53.26,15.07v0c0,1.19-1.03,2.11-2.21,1.99l-45.77-4.67c-3.59-0.37-6.84,2.12-7.43,5.67l0,0
		c-0.64,3.82,2.02,7.4,5.86,7.9l50.65,6.57c1.19,0.15,1.98,1.31,1.69,2.47l-0.16,0.65c-0.23,0.93-1.09,1.57-2.05,1.51l-34.89-1.89
		c-2.54-0.14-4.75,1.71-5.07,4.23l0,0c-0.31,2.5,1.34,4.82,3.8,5.34c16.01,3.37,71.95,14.27,96.48,7.83
		c5.06-1.33,10.34-1.58,15.54-1l157.65,17.75V413.44z" class="colorf9aeac svgShape"></path><g><path fill="#f9bcac" d="M173.61 546.73c0 0-21.69 66.43-29.83 77.28l20.34 5.42c0 0 23.05-40.67 31.18-78.64L173.61 546.73zM249.88 550.8c5.42 39.32-5.42 81.35-5.42 81.35l-21.01-6.1c9.49-16.27 8.81-75.25 8.81-75.25H249.88z" class="colorf9aeac svgShape"></path><path fill="#121253" d="M144.76 618.74l2.41 1.88c0 0 9.5 7.12 18.83 3.85 1.43-.5 3-.51 4.37.13 2.33 1.08 5.93 3.21 9.09 6.98 1.26 1.51.18 3.81-1.78 3.83l-14.28.12c-1.47.01-2.87-.6-3.86-1.68l-6.19-6.75c-.47-.51-1.13-.8-1.82-.79l-.67.01c-1.35.01-2.44 1.11-2.42 2.46l.04 5.18-7.35.06L144.76 618.74zM224.79 623.33L224.79 623.33c0 0 10.6 8.46 20.34 5.42 0 0 6.11 1.21 10.87 9.75.71 1.27-.19 2.85-1.65 2.85l-13.23 0c-1.99 0-3.86-.97-5-2.6l-5.2-7.44c-.48-.68-1.26-1.09-2.1-1.09h0c-1.41 0-2.56 1.15-2.56 2.56v6.55h-6.81l2.18-14.36C221.85 623.49 223.46 622.66 224.79 623.33z" class="color165689 svgShape"></path><path fill="#586f9f" d="M261.73,405.73c18.71,29.9,11.52,95.69,5.42,159.98l-104.39-13.56c10.85-14.91,33.89-150.49,33.89-150.49
			L261.73,405.73z" class="color3d4e6a svgShape"></path><path fill="#f9bcac" d="M308.17 340.78c0 0 12.54-28.22 11.49-11.76l8.45-3.66c2.94-1.27 6.25.11 7.74 3.23l2.07 4.33c1.5 3.14.68 7.05-1.92 9.09l-16.35 12.88L308.17 340.78zM150.56 427.42c0 0-17.63 18.98-6.78 32.54 0 0 5.88 4.7 6.69-9.98.11-2 1.75-3.58 3.75-3.58l0 0c1.73 0 3.23 1.18 3.65 2.86.79 3.23 2.6 7.57 6.25 3.92v-21.69L150.56 427.42z" class="colorf9aeac svgShape"></path><path fill="#e5a695" d="M238.35,304.54c0,0-5.17,15.65-0.74,26.04c0,0-16.58,5.24-25.14,1.78c0,0,1.78-19.09-1.85-26.9L238.35,304.54
			z" class="colore5959d svgShape"></path><path fill="#f9bcac" d="M223.61,284.75c7.76,1.75,9.44-16.07,9.8-24.56c0.14,0.15,10.6,4.63,11.25,17.53
			c0.03,0.62,0.19,1.24,0.48,1.79c0.71,1.41,2.47,4.05,6.62,7.23c0.14,0.11,0.25,0.25,0.3,0.42c0.19,0.6,0.23,2.05-2.73,3.54
			c0,0-0.19,2.16,0.91,3.16l-1.77,1.86l1.39,2.46l-1.49,1.28c-0.18,0.16-0.23,0.42-0.11,0.63c0.87,1.54,3.34,7.61-12.07,7.4
			c0,0-18.17,0.69-24.87-0.4C217.63,298.46,208.61,281.19,223.61,284.75z" class="colorf9aeac svgShape"></path><path fill="#303d52" d="M196.43,274.59c0.9-1.42,2.75-2.84,6.55-2.82c5.52-17.75,28.85-19.76,36.87-11.58
			c-0.36,8.49-2.04,26.31-9.8,24.56c-15.01-3.56-5.99,13.7-12.29,22.36c-0.25-0.04-0.49-0.08-0.71-0.13
			c-5.49,1.11-8.08-5.72-10.33-9.53c-15.05,9.85-24.28-14.77-14.36-19.3C194.02,277.38,195.45,276.14,196.43,274.59z" class="color100259 svgShape"></path><path fill="#e68266" d="M241.55,324.51c-6.84,5.94-13.4,6.2-19.65,0.76c-2.1-1.82-4.96-2.49-7.6-1.63
			c-15.31,4.95-62.8,26.8-68.48,108.53l23.05,5.42l28.47-27.12h68.47v-21.01c0,0,46.1,31.18,66.43-33.89l-20.34-23.05l-21.69,18.98
			l-41.03-27.55C246.81,322.35,243.7,322.64,241.55,324.51z" class="colore13268 svgShape"></path></g></svg></g></svg>