<svg id="SvgjsSvg2906" width="360" height="360" xmlns="http://www.w3.org/2000/svg" version="1.1" xmlns:xlink="http://www.w3.org/1999/xlink" xmlns:svgjs="http://svgjs.com/svgjs"><defs id="SvgjsDefs2907"></defs><g id="SvgjsG2908"><svg xmlns="http://www.w3.org/2000/svg" enable-background="new 0 0 850 850" viewBox="0 0 850 850" width="360" height="360"><path fill="#f4ebe9" d="M159.85,549.72c-35.73-50.07-74.17-129.04,5.77-163.46c0.73-0.32,1.49-0.61,2.23-0.91
		c3.77-1.53,23.91-12.12,10.75-59.9c-0.31-1.12-0.85-2.94-1.21-4.05c-2.39-7.38-15.63-55.48,32.29-90.66
		c22.86-16.78,51.23-23.81,79.27-20.67c22.83,2.56,53.9,9.95,87.01,29.27c0,0,24.55,20.3,46.38-0.92c0,0,26.96-53.13,75.91-15.58
		c6.68,5.12,12.21,11.59,16.65,18.79c7.98,12.96,31.37,36.87,85.68,5.09c0,0,97.3-45.2,81.84,95.02c0,0-21.79,86.83,6.61,137.09
		c7.12,12.6,11.89,26.43,13.36,40.87c2.96,29.12-0.39,69.72-41.43,72.21c-17.26,1.05-34.27,4.8-50.06,11.94
		c-99.92,45.25-247.6,48.09-360.14,12.12C214.21,604.31,182.31,581.2,159.85,549.72z" class="colore9e9f4 svgShape"></path><path fill="#de7a60" d="M152.8,365.28c0,0-42.38,129.54-37.34,192.33c18.12-62.02,72.16-165.98,86.85-193.71L152.8,365.28z" class="colorde9960 svgShape"></path><path fill="#ed8569" d="M414.52,357.97l-212.21,5.93c-14.69,27.73-68.72,131.69-86.85,193.71c1.64,20.46,8.31,33.85,23.14,33.34
			c0,0,193.37,33.95,262.1,8.97c11.42-4.15,19.6-15.96,20.81-29.96C425.66,522.33,434.65,393.52,414.52,357.97z" class="colored9169 svgShape"></path><path fill="#e07a5f" d="M136.9,310.76c0.69,6.89,2.18,14.69,5.16,22.04c2.08,5.13,2.39,10.99,1.14,16.48
			c-2.14,9.43-3.75,23,4.28,24.36c0,0,163.62,28.1,265.35-6.19c4.14-1.39,6.92-6.03,6.5-11.07c-0.4-4.76-1.9-10.5-6.24-14.77
			c-4.52-4.45-7.15-11.01-7.41-17.95c-0.01-0.19-0.01-0.38-0.02-0.58c-0.69-16.63-12.97-29.28-27.08-28.12
			c-41.81,3.43-136.52,9.56-159.1-2.99c-3.66-2.03-7.52-3.49-11.55-3.95c-12.11-1.37-35.79-3.52-53.9-1.81
			C143.37,287.23,135.65,298.27,136.9,310.76z" class="colorea8057 svgShape"></path><path fill="none" stroke="#0b1d42" stroke-miterlimit="10" stroke-width="2" d="M184.74,340.2c0,0,117.11,20.9,195.18,0" class="colorStroke42210b svgStroke"></path><path fill="#13254c" d="M331.42,422.26c14.92,14.24,7.02,45.11-7.64,79.83c-4.7,11.13-11.23,21.07-19.19,29.23
				c-27.79,28.51-63.53,37.4-80.78,17.72c-16.95-16.17,7.67-55.41,32.31-91.22C280.76,422.01,314.47,406.09,331.42,422.26z" class="color4c1d13 svgShape"></path><path fill="#d56446" d="M326.56,413.58c18.41,21.93,1.54,59.79-28.78,94.34c-16.55,13.91-62.94,49.93-77.37,32.37
				c-14.42-17.56-5.19-61.42,25.13-95.96S311.97,396.2,326.56,413.58z" class="colord57346 svgShape"></path><path fill="#163168" d="M224.74,523.92l-0.99-2.09l36.05-23.61c2.93-1.92,5.4-4.71,7.15-8.06l31.65-60.68l1.73,1.25l-31.65,60.68
					c-1.93,3.71-4.66,6.79-7.89,8.9L224.74,523.92z" class="color682b16 svgShape"></path><path fill="#de7a60" d="M275.62 515.06l-.94-2.12c34.96-21.39 45.85-82.85 45.95-83.46l1.99.47c-.03.16-2.78 15.94-9.89 34.19C306.15 481.05 294.36 503.6 275.62 515.06zM228.37 507.55l-2.01-.31c2.51-22.88 16.29-46.2 27.42-61.74 12.01-16.77 23.6-28.34 23.72-28.45l1.31 1.83C278.35 419.34 233.06 464.78 228.37 507.55z" class="colorde9960 svgShape"></path><path fill="#d56446" d="M456.26,618.84L456.26,618.84c38.9,0,70.83-26.96,72.3-61.04l5.69-132.24c-61.35,15.5-107.1,19.15-155.98,0
			l5.69,132.24C385.43,591.87,417.37,618.84,456.26,618.84z" class="colord57346 svgShape"></path><ellipse cx="457.3" cy="422.81" fill="#efcbc2" rx="79.03" ry="11.85" class="colorefc2c2 svgShape"></ellipse><path fill="#13254c" d="M387.63,428.28c-0.01,13.76,131.02,14.82,131.02,0c0-4.03-29.33-7.29-65.51-7.29S387.64,424.26,387.63,428.28
			z" class="color4c1d13 svgShape"></path><path fill="#d56446" d="M333.56,495.75v23.71c0,28.2,26.07,51.06,58.23,51.06V444.7C359.63,444.7,333.56,467.55,333.56,495.75z
			 M347.08,500.31c0-19.13,17.69-34.65,39.51-34.65v83.88c-21.82,0-39.51-15.51-39.51-34.65V500.31z" class="colord57346 svgShape"></path><path fill="#efcbc2" d="M513.46,456.55c2.3,11.77,3.47,23.75,3.92,35.76c0.44,12.01,0.01,24.08-1.58,36.04
				c-1.67,11.93-4.46,23.85-9.64,34.85c-2.58,5.49-5.81,10.7-9.77,15.3c-4,4.56-8.76,8.46-14.12,11.16
				c5.02-3.28,9.39-7.4,12.98-12.09c3.59-4.7,6.45-9.91,8.78-15.33c2.29-5.44,4.14-11.07,5.52-16.83
				c1.43-5.74,2.51-11.58,3.28-17.47c0.83-5.88,1.35-11.8,1.7-17.74c0.37-5.94,0.49-11.9,0.52-17.86
				C515.04,480.42,514.52,468.48,513.46,456.55z" class="colorefc2c2 svgShape"></path><g><path fill="#13254c" d="M681.32,220.36c10.57,8.57,4.97,27.13-5.41,48.02c-3.33,6.7-7.95,12.67-13.59,17.58
			c-19.69,17.15-45,22.5-57.22,10.66c-12-9.73,5.43-33.33,22.89-54.87C645.43,220.21,669.31,210.63,681.32,220.36z" class="color4c1d13 svgShape"></path><path fill="#d56446" d="M677.87,215.13c13.04,13.19,1.09,35.97-20.39,56.75c-11.73,8.37-44.59,30.04-54.81,19.47
			c-10.22-10.56-3.67-36.95,17.8-57.73C641.96,212.85,667.54,204.68,677.87,215.13z" class="colord57346 svgShape"></path><path fill="#163168" d="M605.75,281.51l-0.7-1.26l25.54-14.2c2.07-1.15,3.82-2.83,5.07-4.85l22.42-36.5l1.22,0.75l-22.42,36.5
				c-1.37,2.23-3.3,4.08-5.59,5.35L605.75,281.51z" class="color682b16 svgShape"></path><path fill="#de7a60" d="M641.79 276.18l-.66-1.28c24.77-12.86 32.48-49.84 32.55-50.21l1.41.28c-.02.09-1.97 9.59-7 20.57C663.42 255.72 655.07 269.28 641.79 276.18zM608.32 271.66l-1.43-.18c1.78-13.77 11.54-27.79 19.42-37.14 8.51-10.09 16.72-17.05 16.8-17.12l.93 1.1C643.72 218.6 611.64 245.93 608.32 271.66z" class="colorde9960 svgShape"></path></g><g><path fill="#13254c" d="M510.52,260.2c7.32,5.83,3.44,18.45-3.75,32.66c-2.3,4.55-5.5,8.62-9.41,11.96
			c-13.63,11.66-31.15,15.3-39.6,7.25c-8.31-6.62,3.76-22.67,15.84-37.32S502.21,253.59,510.52,260.2z" class="color4c1d13 svgShape"></path><path fill="#d56446" d="M508.14,256.65c9.03,8.97,0.75,24.46-14.11,38.6c-8.11,5.69-30.86,20.43-37.93,13.25
			c-7.07-7.18-2.54-25.13,12.32-39.26C483.28,255.1,500.98,249.54,508.14,256.65z" class="colord57346 svgShape"></path><path fill="#163168" d="M458.22,301.8l-0.48-0.85l17.67-9.66c1.43-0.78,2.65-1.93,3.51-3.3l15.52-24.83l0.85,0.51l-15.52,24.83
				c-0.95,1.52-2.29,2.78-3.87,3.64L458.22,301.8z" class="color682b16 svgShape"></path><path fill="#de7a60" d="M483.16 298.17l-.46-.87c17.14-8.75 22.48-33.9 22.53-34.15l.98.19c-.01.06-1.36 6.52-4.85 13.99C498.13 284.26 492.35 293.48 483.16 298.17zM460 295.1l-.99-.13c1.23-9.36 7.99-18.9 13.44-25.26 5.89-6.86 11.57-11.59 11.63-11.64l.64.75C484.5 259.01 462.3 277.6 460 295.1z" class="colorde9960 svgShape"></path></g><g><path fill="#6f86b7" d="M719.38,444.93c-5.36-12.38-16.78-18.6-31.57-20.47c-5.67-0.71-11.43-0.22-16.88,1.48
			c-24.78,7.73-46.22,27.38-64.24,59.3c-19.24,29.32-22,58.27-19.24,82.46l38.48,12.83l33.9-8.25l21.99-6.41l28.4-35.73l10.08-26.57
			c0,0,1.83-29.32,1.83-31.15C722.13,470.58,719.38,444.93,719.38,444.93z" class="colorbd97f8 svgShape"></path><path fill="#586f9f" d="M715.71,438.52c0.67,0.53,1.38,1.22,2.12,2.08c12.67,14.65,31.78,74.89-1.26,138.6
			c-5.85,11.29-15.23,21.03-27.15,25.45c-38.76,14.37-101.76,14.93-104.73-45.19c43.06,18.32,107.2,21.07,125.52-49.48
			C717.13,484.19,720,459.97,715.71,438.52z" class="color915293 svgShape"></path></g><g><path fill="#e5a695" d="M630.28,440.21c0,0,6.12,9.72,4.31,17.19c0,0,13.15,1.36,19.05-2.04c0,0-4.08-12.44-2.49-18.09
				L630.28,440.21z" class="colore5959d svgShape"></path><polygon fill="#e8ac9c" points="550.2 582.75 545.58 594.25 531.74 598.86 549.74 607.31 553.27 601.16 557.89 588.88" class="colore89c9c svgShape"></polygon><polygon fill="#e8ac9c" points="579.42 606.52 581.73 618.8 570.19 627.23 591.73 628 592.5 621.1 590.19 609.59" class="colore89c9c svgShape"></polygon><path fill="#cc5d40" d="M555.04 599.76c0 0-12.29 2.56-20.8-2.11-1.32-.72-2.8-1.09-4.31-1.09h-6.84c-.75 0-1.35.6-1.35 1.35l0 0c0 .57.36 1.08.9 1.27l29.1 10.42C551.73 609.59 556.04 602.96 555.04 599.76zM570.19 624.93c0 0 12.18 2.7 21.94-3.29.76-.47 1.72.16 1.61 1.04l-1.24 9.92h-30.76l0 0c-.6-.6-.5-1.59.2-2.07L570.19 624.93z" class="colorcc4040 svgShape"></path><path fill="#0d2344" d="M626.44,521.68l-31.37-6.92c-6.51-1.44-13.29,1.25-16.4,6.5l-35.4,59.73l19.46,13.27l30.08-49.94
				L626.44,521.68z" class="color6191f3 svgShape"></path><path fill="#091b3a" d="M630.19,519.09c0,0-17.54,0.44-32.42,0.32c-7.36-0.06-13.55,5.47-14.29,12.77l-7.89,77.41l19.23,2.3
				c0,0,10-49.09,5.38-58.29c0,0,51.18,4.3,55.58-9.74L630.19,519.09z" class="color060351 svgShape"></path><path fill="#e8ac9c" d="M629.27,473.25l-10.62,13.63l-14.61-20.71c0,0-12.31-28.38-10.77-11.5c0,0-10.43-3.47-12.13,3.13
				c-0.9,3.51,1.48,7.03,5.03,7.77l4.35,0.91c3.65,0.77,6.71,3.25,8.2,6.66l7.31,16.72c2,4.57,6.81,7.25,11.75,6.52l17.78-2.61
				L629.27,473.25z" class="colore89c9c svgShape"></path><path fill="#cc5d40" d="M652.49,452.37c0,0-7.53-0.04-20.6,4.56c0,0-11.7,21.52,1.37,42.99c0,0-6.05,7.48-6.92,19.17l27.69,26.84
				C678.02,527.56,671.72,473.84,652.49,452.37z" class="colorcc4040 svgShape"></path><path fill="#f9bcac" d="M640.57,479.79l1.15,9.63c0,0-23.05,14.21-27.75,24.05c0,0-13.3-4.77-17.68,5.76l-1.55,7.51l6.96-3.27
				c0,0,0.86-7.18,9.05-4.25l38.6-16.62c3.15-1.36,5.18-4.47,5.14-7.89l-0.15-14.6L640.57,479.79z" class="colorf9aeac svgShape"></path><path fill="#e15732" d="M637.15,466.7l0.55,17.83l19.32-2.29l-2.69-17.14c-0.76-4.88-5.47-8.12-10.31-7.11l0,0
				C639.92,458.84,637.02,462.52,637.15,466.7z" class="colore13268 svgShape"></path><path fill="#f9bcac" d="M638.44,423.71c-5.55,2.42-9.37-10.62-10.87-16.9c-0.09,0.13-7.25,4.98-5.88,14.69
				c0.07,0.47,0.03,0.95-0.1,1.41c-0.33,1.15-1.26,3.37-3.91,6.34c-0.09,0.1-0.15,0.23-0.16,0.36c-0.05,0.48,0.13,1.56,2.55,2.25
				c0,0,0.45,1.58-0.23,2.49l1.59,1.13l-0.68,2.04l1.3,0.74c0.16,0.09,0.24,0.28,0.18,0.46c-0.43,1.27-1.4,6.15,10.09,3.78
				c0,0,13.68-2.1,18.53-3.87C644.89,433.06,649.15,418.89,638.44,423.71z" class="colorf9aeac svgShape"></path><path fill="#021e59" d="M662.11,411.3c-0.88-0.93-2.47-1.72-5.3-1.16c-6.68-12.44-24.42-10.59-29.23-3.33
				c1.49,6.28,5.32,19.32,10.87,16.9c10.7-4.81,6.45,9.36,12.41,14.9c0.18-0.07,0.36-0.13,0.51-0.2c4.26,0.03,5.22-5.43,6.35-8.59
				c12.67,5.18,16.02-14.5,7.95-16.45C664.31,413.03,663.07,412.31,662.11,411.3z" class="color100259 svgShape"></path><path fill="#cc5d40" d="M573.56,470.12L573.56,470.12c-5.46,0-9.89-4.43-9.89-9.89v-10.28h19.78v10.28
				C583.44,465.7,579.02,470.12,573.56,470.12z" class="colorcc4040 svgShape"></path><rect width="10.88" height="9.08" x="580.48" y="453.99" fill="none" stroke="#cc5d40" stroke-miterlimit="10" stroke-width="3" class="colorStrokecc4040 svgStroke"></rect></g></svg></g></svg>