<svg id="SvgjsSvg2690" width="360" height="360" xmlns="http://www.w3.org/2000/svg" version="1.1" xmlns:xlink="http://www.w3.org/1999/xlink" xmlns:svgjs="http://svgjs.com/svgjs"><defs id="SvgjsDefs2691"></defs><g id="SvgjsG2692"><svg xmlns="http://www.w3.org/2000/svg" enable-background="new 0 0 850 850" viewBox="0 0 850 850" width="360" height="360"><path fill="#f4ddd7" d="M178.55,555.44c-35.13-51.93-72.92-133.84,5.67-169.53c0.72-0.33,1.46-0.63,2.19-0.94
		c3.71-1.59,23.51-12.57,10.57-62.12c-0.3-1.16-0.84-3.05-1.19-4.2c-2.35-7.65-15.36-57.54,31.75-94.03
		c22.47-17.41,50.36-24.69,77.94-21.44c22.45,2.65,53,10.32,85.55,30.36c0,0,24.14,21.05,45.6-0.96c0,0,26.5-55.11,74.63-16.16
		c6.57,5.31,12.01,12.02,16.37,19.49c7.85,13.44,30.84,38.24,84.24,5.28c0,0,95.67-46.88,80.47,98.55c0,0-21.42,90.06,6.5,142.18
		c7,13.07,11.69,27.41,13.13,42.39c2.91,30.21-0.39,72.32-40.74,74.9c-16.97,1.09-33.7,4.97-49.22,12.39
		c-98.24,46.93-243.44,49.88-354.09,12.57C232.01,612.06,200.64,588.09,178.55,555.44z" class="colorf4d7f4 svgShape"></path><path fill="#13254c" d="M321.04,206.96c6.99,7.18,3.29,22.74-3.58,40.25c-2.2,5.61-5.26,10.62-8.99,14.74
			c-13.03,14.37-29.77,18.86-37.86,8.94c-7.94-8.15,3.6-27.93,15.14-45.99C297.3,206.83,313.1,198.81,321.04,206.96z" class="color4c1d13 svgShape"></path><path fill="#d56446" d="M318.76,202.58c8.63,11.06,0.72,30.15-13.49,47.56c-7.76,7.01-29.5,25.17-36.26,16.32
			c-6.76-8.85-2.43-30.97,11.78-48.38C295,200.67,311.93,193.82,318.76,202.58z" class="colord57346 svgShape"></path><path fill="#163168" d="M271.05,258.21l-0.46-1.05l16.9-11.9c1.37-0.97,2.53-2.37,3.35-4.07l14.83-30.59l0.81,0.63l-14.83,30.59
				c-0.91,1.87-2.19,3.42-3.7,4.49L271.05,258.21z" class="color682b16 svgShape"></path><path fill="#de7a60" d="M294.89 253.75l-.44-1.07c16.38-10.78 21.49-41.77 21.53-42.08l.93.24c-.01.08-1.3 8.04-4.63 17.24C309.2 236.6 303.67 247.97 294.89 253.75zM272.75 249.96l-.94-.15c1.17-11.54 7.64-23.29 12.85-31.12 5.63-8.46 11.06-14.29 11.11-14.35l.61.92C296.17 205.48 274.94 228.39 272.75 249.96z" class="colorde9960 svgShape"></path><path fill="#13254c" d="M456.64,251.57c4.24,4.36,2,13.8-2.17,24.42c-1.34,3.4-3.19,6.44-5.46,8.94c-7.9,8.72-18.06,11.44-22.97,5.42
			c-4.82-4.95,2.18-16.95,9.19-27.9C442.24,251.5,451.82,246.63,456.64,251.57z" class="color4c1d13 svgShape"></path><path fill="#d56446" d="M455.26,248.92c5.23,6.71,0.44,18.29-8.18,28.86c-4.71,4.26-17.9,15.27-22,9.9
			c-4.1-5.37-1.47-18.79,7.15-29.35C440.84,247.76,451.11,243.6,455.26,248.92z" class="colord57346 svgShape"></path><path fill="#163168" d="M426.31,282.67l-0.28-0.64l10.25-7.22c0.83-0.59,1.54-1.44,2.03-2.47l9-18.56l0.49,0.38l-9,18.56
				c-0.55,1.13-1.33,2.08-2.24,2.72L426.31,282.67z" class="color682b16 svgShape"></path><path fill="#de7a60" d="M440.77 279.96l-.27-.65c9.94-6.54 13.04-25.34 13.07-25.53l.57.14c-.01.05-.79 4.88-2.81 10.46C449.45 269.56 446.1 276.45 440.77 279.96zM427.34 277.66l-.57-.09c.71-7 4.63-14.13 7.8-18.88 3.42-5.13 6.71-8.67 6.74-8.7l.37.56C441.55 250.68 428.67 264.58 427.34 277.66z" class="colorde9960 svgShape"></path><path fill="#021335" d="M155.37,282.31v-15.16c0-6.37,3.57-12.25,9.28-15.07c5.88-2.9,14.29-4.41,24.49,1.07
			c5.44,2.92,8.8,8.64,8.8,14.82v54.97h-9.54v-19.07h-24.19v19.07h-7.6c0,0-3.25-28.81-1.93-34.99
			C155.08,286.09,155.37,284.21,155.37,282.31z" class="color08085c svgShape"></path><rect width="25.43" height="31.79" x="162.97" y="303.86" fill="#e5a695" class="colore5959d svgShape"></rect><path fill="#d4aaaa" d="M162.99,318.84c0,0,12.56,17.63,25.34-0.26c0,0,28.67-2,35.03,42.5l-15.89,6.36v50.86h-60.39v-50.86
			l-19.07-9.54l14.95-27.41c2.62-4.81,7.15-8.3,12.47-9.62L162.99,318.84z" class="color915293 svgShape"></path><path fill="#021335" d="M147.08,415.11c-17.95,7.31-13.65,94.6-9.54,181.18h19.07l19.07-143.04l19.07,143.04h22.25
			c0,0,6.64-172.26-9.39-183.08L147.08,415.11z" class="color08085c svgShape"></path><path fill="#d4aaaa" d="M156.61 596.29v27.79c0 2.21-1.79 3.99-3.99 3.99h-40.16c-1.95 0-3.53-1.58-3.53-3.53l0 0c0-1.65 1.15-3.08 2.76-3.44l20.23-4.5c3.28-.73 5.62-3.64 5.62-7v-13.32H156.61zM194.76 596.29v27.79c0 2.21 1.79 3.99 3.99 3.99h40.16c1.95 0 3.53-1.58 3.53-3.53l0 0c0-1.65-1.15-3.08-2.76-3.44l-20.23-4.5c-3.28-.73-5.62-3.64-5.62-7v-13.32H194.76z" class="color915293 svgShape"></path><path fill="#f9bcac" d="M170.21,270.27c-4.5,4.98-8.72,11.31-10.87,14.8c-6.78,1.88-8.22,8.22-1.14,10.84
			c1.59,20.66,27.02,27.02,33.38,1.59c5.19-1.48,7.01-11.52,0-12.71c-1.9-5.09-4.86-9.79-8.49-14.24
			C179.8,266.51,173.7,266.41,170.21,270.27z" class="colorf9aeac svgShape"></path><path fill="#d27b64" d="M149.35,400.36c-9.67-3.38-10.64-23.69,0.48-37.72l4.84,9.19l2.9,26.6L149.35,400.36z" class="colord29964 svgShape"></path><rect width="25.93" height="5.44" x="178.87" y="384.71" fill="#da6e52" class="colorda8952 svgShape"></rect><ellipse cx="191.75" cy="384.35" fill="#13254c" rx="13.04" ry="1.72" class="color4c1d13 svgShape"></ellipse><path fill="#13254c" d="M203.82,412.9l1.05-12.71c-13.27,2.12-22.34,0.55-26.15-0.4l0.98,12.49
					C182.74,413.23,189.86,414.55,203.82,412.9z" class="color4c1d13 svgShape"></path><path fill="#fff9f8" d="M204.87 400.19l.88-10.68-27.85-.16.82 10.44C182.53 400.74 191.6 402.31 204.87 400.19zM179.71 412.28l1.4 17.88h21.28l1.43-17.26C189.86 414.55 182.74 413.23 179.71 412.28z" class="colorf8fffe svgShape"></path><path fill="#da6e52" stroke="#0b1d42" stroke-miterlimit="10" d="M206.07,390.19c-9.93,2.44-19.5,2.57-28.65,0v-3.08c9.54,3.26,19.09,2.92,28.65,0V390.19z" class="colorda8952 svgShape colorStroke42210b svgStroke"></path><rect width="25.93" height="5.44" x="146.06" y="382.59" fill="#da6e52" class="colorda8952 svgShape"></rect><ellipse cx="158.94" cy="382.23" fill="#13254c" rx="13.04" ry="1.72" class="color4c1d13 svgShape"></ellipse><path fill="#13254c" d="M171.01,410.78l1.05-12.71c-13.27,2.12-22.34,0.55-26.15-0.4l0.98,12.49
					C149.93,411.11,157.05,412.43,171.01,410.78z" class="color4c1d13 svgShape"></path><path fill="#fff9f8" d="M172.06 398.07l.88-10.68-27.85-.16.82 10.44C149.72 398.62 158.78 400.19 172.06 398.07zM146.89 410.16l1.4 17.88h21.28l1.43-17.26C157.05 412.43 149.93 411.11 146.89 410.16z" class="colorf8fffe svgShape"></path><path fill="#da6e52" stroke="#0b1d42" stroke-miterlimit="10" d="M173.26,388.07c-9.93,2.44-19.5,2.57-28.65,0v-3.08c9.54,3.26,19.09,2.92,28.65,0V388.07z" class="colorda8952 svgShape colorStroke42210b svgStroke"></path><path fill="#ffd6cb" d="M186.46,392.43c9.95-5.76,10.98-14.31,10.57-19.35c-0.16-1.93-0.73-3.82-1.75-5.48
				c-2.05-3.32-2.46-8.14-2.49-11.21c-0.32-0.02-0.65-0.04-0.98-0.04h-31.65c-6.33,0-11.44,5.19-11.34,11.52l0,0.24
				c0.02,1.42,0.47,2.8,1.24,4c6.4,10.09,6.15,22.76-0.7,28.24c0.65,0.09,1.31,0.17,1.97,0.25c8.98-4.43,23.2-5.92,29.14-6.36
				C182.56,394.08,184.63,393.49,186.46,392.43z" class="colorffcfcb svgShape"></path><path fill="#d56446" d="M206.96,394l-1.13-24.26c-0.34-7.16-6-12.86-13.05-13.35c0.03,3.07,0.45,7.9,2.49,11.21
				c1.02,1.65,1.59,3.54,1.75,5.48c0.41,5.04-0.62,13.59-10.57,19.35c-1.83,1.06-3.89,1.65-6,1.81c-5.94,0.44-20.16,1.93-29.14,6.36
				c18.09,2.21,36.69,2.45,52.16-1.8C205.63,398.22,207.07,396.22,206.96,394z" class="colord57346 svgShape"></path><path fill="#de7a60" d="M158.54,390.2c6.77-6.77-0.97-20.31-0.48-28.53C150.32,366.51,160.96,380.05,158.54,390.2z" class="colorde9960 svgShape"></path><path fill="#f7b9a9" d="M188.76,365.65l-17.81,1.7c-1.6,0.15-3.01-1.02-3.16-2.61l0,0c-0.15-1.6,1.02-3.01,2.61-3.16l17.81-1.7
				c1.6-0.15,3.01,1.02,3.16,2.61l0,0C191.52,364.08,190.35,365.49,188.76,365.65z" class="colorf7c1a9 svgShape"></path><path fill="#f9bcac" d="M142.43 364.05l-8.05 20.58 23.9 15.07c.93.59 2.03.83 3.12.68 4.32-.57 15.16-1.65 8.37 3.11-.28.2-.35.58-.16.87l3.44 5.2c1.4 2.12.82 4.97-1.3 6.38l-2.62 1.73c-1.79 1.18-4.16.97-5.71-.51-3.88-3.73-10.96-10.21-13.23-10.22l-27.3-16.53c-2.53-1.53-3.54-4.7-2.36-7.41l10.53-24.26L142.43 364.05zM209.34 366.31l8.05 20.58-23.9 15.07c-.93.59-2.03.83-3.12.68-4.32-.57-15.16-1.65-8.37 3.11.28.2.35.58.16.87l-3.44 5.2c-1.4 2.12-.82 4.97 1.3 6.38l2.62 1.73c1.79 1.18 4.16.97 5.71-.51 3.88-3.73 10.96-10.21 13.23-10.22l26.68-16.15c2.88-1.75 4.03-5.35 2.69-8.44l-10.24-23.6L209.34 366.31z" class="colorf9aeac svgShape"></path><path fill="#fe5427" d="M383.22,436.48c0.04,0,0.08,0,0.11,0c0.97-0.06,1.71-0.9,1.65-1.87l-1.91-29.97
				c-0.11-1.67-1.02-3.19-2.45-4.06l-7.89-4.6c-0.84-0.49-1.92-0.21-2.41,0.63c-0.49,0.84-0.21,1.92,0.63,2.41l7.85,4.58
				c0.41,0.26,0.7,0.73,0.74,1.26l1.91,29.97C381.52,435.77,382.3,436.48,383.22,436.48z" class="colorfec227 svgShape"></path><polygon fill="#cf674c" points="392.85 416.66 390.1 450.58 372.68 450.58 369.56 417.21" opacity=".89" class="colorcf874c svgShape"></polygon><path fill="#efdad5" d="M381.57,405.84c5.49,0,10.11,4.08,11.49,9.63h-22.99C371.46,409.92,376.08,405.84,381.57,405.84z" opacity=".89" class="colord6d5ef svgShape"></path><rect width="25.48" height="2.75" x="368.74" y="414.92" fill="#16326b" transform="rotate(-180 381.478 416.295)" class="color6b2d16 svgShape"></rect><rect width="30.57" height="6.42" x="450.92" y="397.18" fill="#da6e52" class="colorda8952 svgShape"></rect><ellipse cx="466.12" cy="396.76" fill="#13254c" rx="15.38" ry="2.03" class="color4c1d13 svgShape"></ellipse><path fill="#da6e52" d="M480.35,430.43l1.24-14.99c-15.65,2.5-26.35,0.65-30.83-0.48l1.16,14.73
			C455.49,430.82,463.88,432.37,480.35,430.43z" class="colorda8952 svgShape"></path><path fill="#fff9f8" d="M481.59 415.44l1.04-12.59-32.84-.19.97 12.31C455.24 416.09 465.93 417.94 481.59 415.44zM451.91 429.7l1.65 21.09h25.1l1.68-20.35C463.88 432.37 455.49 430.82 451.91 429.7z" class="colorf8fffe svgShape"></path><path fill="#da6e52" stroke="#0b1d42" stroke-miterlimit="10" d="M483.01,403.64c-11.71,2.87-22.99,3.04-33.78,0v-3.63c11.25,3.84,22.52,3.45,33.78,0V403.64z" class="colorda8952 svgShape colorStroke42210b svgStroke"></path><path fill="#de7a60" d="M232.97,406.36c0,0-9.4,24.39-8.28,36.22c4.02-11.68,16-31.26,19.26-36.48L232.97,406.36z" class="colorde9960 svgShape"></path><path fill="#e07a5f" d="M291.01,404.98l-47.06,1.12c-3.26,5.22-15.24,24.8-19.26,36.48c0.36,3.85,1.84,6.38,5.13,6.28
			c0,0,42.88,6.39,58.13,1.69c2.53-0.78,4.35-3.01,4.62-5.64C293.48,435.93,295.48,411.68,291.01,404.98z" class="colorda8a57 svgShape"></path><path fill="#d56446" d="M229.45,396.09c0.15,1.3,0.48,2.77,1.14,4.15c0.46,0.97,0.53,2.07,0.25,3.1c-0.48,1.78-0.83,4.33,0.95,4.59
			c0,0,36.29,5.29,58.85-1.17c0.92-0.26,1.54-1.13,1.44-2.08c-0.09-0.9-0.42-1.98-1.38-2.78c-1-0.84-1.59-2.07-1.64-3.38
			c0-0.04,0-0.07-0.01-0.11c-0.15-3.13-2.88-5.51-6-5.3c-9.27,0.65-30.28,1.8-35.28-0.56c-0.81-0.38-1.67-0.66-2.56-0.74
			c-2.69-0.26-7.94-0.66-11.95-0.34C230.88,391.66,229.17,393.74,229.45,396.09z" class="colord57346 svgShape"></path><path fill="none" stroke="#0b1d42" stroke-miterlimit="10" stroke-width="2" d="M240.06,401.64c0,0,25.97,3.93,43.29,0" class="colorStroke42210b svgStroke"></path><path fill="#13254c" d="M272.58,417.09c3.31,2.68,1.56,8.49-1.69,15.03c-1.04,2.1-2.49,3.97-4.26,5.5
				c-6.16,5.37-14.09,7.04-17.91,3.34c-3.76-3.04,1.7-10.43,7.17-17.18S268.83,414.05,272.58,417.09z" class="color4c1d13 svgShape"></path><path fill="#d56446" d="M271.51,415.45c4.08,4.13,0.34,11.26-6.38,17.77c-3.67,2.62-13.96,9.4-17.16,6.1
				c-3.2-3.31-1.15-11.57,5.57-18.07C260.26,414.74,268.27,412.18,271.51,415.45z" class="colord57346 svgShape"></path><path fill="#163168" d="M248.93,436.24l-0.22-0.39l8-4.45c0.65-0.36,1.2-0.89,1.59-1.52l7.02-11.43l0.38,0.24l-7.02,11.43
					c-0.43,0.7-1.03,1.28-1.75,1.68L248.93,436.24z" class="color682b16 svgShape"></path><path fill="#de7a60" d="M260.21 434.57l-.21-.4c7.75-4.03 10.17-15.6 10.19-15.72l.44.09c-.01.03-.62 3-2.19 6.44C266.98 428.16 264.37 432.41 260.21 434.57zM249.73 433.15l-.45-.06c.56-4.31 3.61-8.7 6.08-11.63 2.66-3.16 5.23-5.34 5.26-5.36l.29.34C260.82 416.54 250.77 425.1 249.73 433.15z" class="colorde9960 svgShape"></path><rect width="268.79" height="161.7" x="229.16" y="459.85" fill="#2a2e37" class="color362a37 svgShape"></rect><rect width="268.79" height="30.1" x="229.16" y="596.61" fill="#e8a99b" class="color060351 svgShape"></rect><rect width="14.62" height="126.44" x="387" y="517.48" fill="#bfbfbf" class="colorbfbfbf svgShape"></rect><rect width="67.95" height="6.88" x="360.33" y="643.92" fill="#e2bdbd" class="color72a5ff svgShape"></rect><path fill="#bfbfbf" d="M420.37,608.65h-52.11c-2,0-3.62-1.62-3.62-3.62v-0.5c0-2,1.62-3.62,3.62-3.62h52.11
		c2,0,3.62,1.62,3.62,3.62v0.5C423.98,607.03,422.36,608.65,420.37,608.65z" class="colorbfbfbf svgShape"></path><path fill="#cc5d40" d="M419.38,522.64h-50.15c-4.44,0-8.04-3.6-8.04-8.04v-1.12c0-4.44,3.6-8.04,8.04-8.04h50.15
		c4.44,0,8.04,3.6,8.04,8.04v1.12C427.42,519.04,423.82,522.64,419.38,522.64z" class="colorcc4040 svgShape"></path><rect width="14.62" height="126.44" x="543.28" y="517.91" fill="#bfbfbf" class="colorbfbfbf svgShape"></rect><rect width="67.95" height="6.88" x="516.62" y="644.35" fill="#e2bdbd" class="color72a5ff svgShape"></rect><path fill="#bfbfbf" d="M576.65,609.08h-52.11c-2,0-3.62-1.62-3.62-3.62v-0.5c0-2,1.62-3.62,3.62-3.62h52.11
		c2,0,3.62,1.62,3.62,3.62v0.5C580.27,607.46,578.65,609.08,576.65,609.08z" class="colorbfbfbf svgShape"></path><path fill="#cc5d40" d="M575.67,523.07h-50.15c-4.44,0-8.04-3.6-8.04-8.04v-1.12c0-4.44,3.6-8.04,8.04-8.04h50.15
		c4.44,0,8.04,3.6,8.04,8.04v1.12C583.71,519.47,580.11,523.07,575.67,523.07z" class="colorcc4040 svgShape"></path><path fill="#bfbfbf" d="M733.15,609.08h-52.11c-2,0-3.62-1.62-3.62-3.62v-0.5c0-2,1.62-3.62,3.62-3.62h52.11
		c2,0,3.62,1.62,3.62,3.62v0.5C736.77,607.46,735.15,609.08,733.15,609.08z" class="colorbfbfbf svgShape"></path><rect width="14.62" height="126.44" x="699.78" y="517.91" fill="#bfbfbf" class="colorbfbfbf svgShape"></rect><rect width="67.95" height="6.88" x="673.12" y="644.35" fill="#e2bdbd" class="color72a5ff svgShape"></rect><rect width="406.16" height="11.54" x="229.16" y="452.18" fill="#e8a99b" class="color060351 svgShape"></rect><path fill="#cc5d40" d="M732.16,523.07h-50.15c-4.44,0-8.04-3.6-8.04-8.04v-1.12c0-4.44,3.6-8.04,8.04-8.04h50.15
		c4.44,0,8.04,3.6,8.04,8.04v1.12C740.21,519.47,736.61,523.07,732.16,523.07z" class="colorcc4040 svgShape"></path><rect width="192.15" height="185.26" x="524.8" y="212.32" fill="#efdad5" class="colord6d5ef svgShape"></rect><g><path fill="#cc5d40" d="M575.78,281.54h-6.93c-5.52,0-10-4.48-10-10v-17.46h26.93v17.46C585.78,277.06,581.31,281.54,575.78,281.54z
			" class="colorcc4040 svgShape"></path><rect width="14.81" height="12.36" x="581.74" y="259.57" fill="none" stroke="#cc5d40" stroke-miterlimit="10" stroke-width="3" class="colorStrokecc4040 svgStroke"></rect></g><g><polygon fill="#90939a" points="586.49 300.47 558.13 300.47 558.89 314.35 585.64 314.35" class="color96909a svgShape"></polygon><path fill="#93a8d5" d="M558.89,314.35l1.03,18.86c7.4,3.71,15.62,2.91,24.55,0.29l1.17-19.16H558.89z" class="color93d5b6 svgShape"></path><path fill="#586f9f" d="M559.92,333.22l0.22,3.97c0.2,3.63,3.2,6.48,6.84,6.48h10.43c3.62,0,6.62-2.82,6.84-6.43l0.23-3.72
			C575.54,336.13,567.32,336.93,559.92,333.22z" class="color64acb2 svgShape"></path><circle cx="578.19" cy="305.69" r="3.53" fill="#414753" class="color534741 svgShape"></circle><path fill="#fdf0ec" d="M581.53 329.34h-10.21c-.26 0-.48-.21-.48-.48l0 0c0-.26.21-.48.48-.48h10.21c.26 0 .48.21.48.48l0 0C582.01 329.13 581.79 329.34 581.53 329.34zM579.57 330.96h-8.34c-.21 0-.38-.17-.38-.38l0 0c0-.21.17-.38.38-.38h8.34c.21 0 .38.17.38.38l0 0C579.95 330.78 579.78 330.96 579.57 330.96z" class="colorecf7fd svgShape"></path><path d="M587.44,302.75h-29.24v-2.2h27.03C586.46,300.54,587.44,301.53,587.44,302.75L587.44,302.75z"></path></g><rect width="94.86" height="21.89" x="573.45" y="220.43" fill="#3f4250" class="color6191f3 svgShape"></rect><rect width="57.57" height="3.24" x="611.96" y="255.29" fill="#2a2e37" class="color362a37 svgShape"></rect><rect width="57.57" height="3.24" x="611.96" y="262.59" fill="#2a2e37" class="color362a37 svgShape"></rect><rect width="57.57" height="3.24" x="611.96" y="269.88" fill="#2a2e37" class="color362a37 svgShape"></rect><rect width="57.57" height="3.24" x="611.96" y="312.04" fill="#2a2e37" class="color362a37 svgShape"></rect><rect width="57.57" height="3.24" x="611.96" y="319.34" fill="#2a2e37" class="color362a37 svgShape"></rect><rect width="57.57" height="3.24" x="611.96" y="326.64" fill="#2a2e37" class="color362a37 svgShape"></rect></svg></g></svg>