<svg id="SvgjsSvg3056" width="360" height="360" xmlns="http://www.w3.org/2000/svg" version="1.1" xmlns:xlink="http://www.w3.org/1999/xlink" xmlns:svgjs="http://svgjs.com/svgjs"><defs id="SvgjsDefs3057"></defs><g id="SvgjsG3058"><svg xmlns="http://www.w3.org/2000/svg" enable-background="new 0 0 850 850" viewBox="0 0 850 850" width="360" height="360" version="1.1" xmlns:xlink="http://www.w3.org/1999/xlink" xmlns:svgjs="http://svgjs.com/svgjs"><path fill="#f4ebe9" d="M594.83,611.47c-42.94-15.19-121.8-33.85-178.83,6.28c-4.73,3.33-9.64,6.43-14.85,9.04
		c-27.31,13.7-106.88,47.12-165.83,6.17c-30.52-21.2-46.68-56.56-42.34-91.76c2.1-17.06,8.6-37.07,23.62-58.25
		c8.13-11.47,3.33-27.22-10.19-32.96c-32.43-13.77-80.32-44.62-85.3-107.71c-3.99-50.58,23.75-98.34,70.31-122.63
		c43.28-22.58,107.85-32.43,185.15,30.02c2.38,1.93,4.68,3.95,6.88,6.07c9.56,9.2,52.73,44.56,106.65-7.22
		c5.77-5.54,12.13-10.51,19.12-14.63c8.51-5.02,20.73-11.38,35.42-16.62c82.96-29.57,172.54,31.18,171.29,115.47
		c-0.01,0.6-0.02,1.2-0.04,1.81c-0.34,14-3.24,27.77-8.02,40.94c-5.59,15.42-11.65,48.09,9.97,94.75
		c7.75,16.74,11.95,34.76,11.4,52.91c-0.73,23.99-8.73,53.79-38.34,75.59C663.86,618.64,627.37,622.98,594.83,611.47z" class="colore9e9f4 svgShape"></path><path fill="#13254c" d="M361.5,211.94c7.43,7.63,3.49,24.16-3.81,42.76c-2.34,5.96-5.59,11.28-9.55,15.66
			c-13.84,15.27-31.63,20.03-40.22,9.49c-8.44-8.66,3.82-29.68,16.09-48.86S353.06,203.28,361.5,211.94z" class="color4c1d13 svgShape"></path><path fill="#e07a5f" d="M359.08,207.29c9.17,11.75,0.77,32.03-14.33,50.53c-8.24,7.45-31.34,26.75-38.52,17.34s-2.58-32.9,12.51-51.4
			S351.82,197.98,359.08,207.29z" class="colord57346 svgShape"></path><path fill="#163168" d="M308.39,266.39l-0.49-1.12l17.95-12.65c1.46-1.03,2.69-2.52,3.56-4.32l15.76-32.5l0.86,0.67l-15.76,32.5
				c-0.96,1.99-2.32,3.64-3.93,4.77L308.39,266.39z" class="color682b16 svgShape"></path><path fill="#de7a60" d="M333.72 261.65l-.47-1.14c17.41-11.45 22.83-44.37 22.88-44.71l.99.25c-.01.08-1.38 8.54-4.92 18.32C348.92 243.43 343.05 255.51 333.72 261.65zM310.2 257.63l-1-.16c1.25-12.26 8.11-24.75 13.65-33.07 5.98-8.98 11.75-15.18 11.81-15.24l.65.98C335.08 210.38 312.53 234.71 310.2 257.63z" class="colorde9960 svgShape"></path><path fill="#13254c" d="M716.62,250.86c7.43,7.63,3.49,24.16-3.81,42.76c-2.34,5.96-5.59,11.28-9.55,15.66
			c-13.84,15.27-31.63,20.03-40.22,9.49c-8.44-8.66,3.82-29.68,16.09-48.86S708.18,242.2,716.62,250.86z" class="color4c1d13 svgShape"></path><path fill="#e07a5f" d="M714.2,246.21c9.17,11.75,0.77,32.03-14.33,50.53c-8.24,7.45-31.34,26.75-38.52,17.34
			c-7.18-9.41-2.58-32.9,12.51-51.4C688.96,244.18,706.94,236.9,714.2,246.21z" class="colord57346 svgShape"></path><path fill="#163168" d="M663.51,305.31l-0.49-1.12l17.95-12.65c1.46-1.03,2.69-2.52,3.56-4.32l15.76-32.5l0.86,0.67l-15.76,32.5
				c-0.96,1.99-2.32,3.64-3.93,4.77L663.51,305.31z" class="color682b16 svgShape"></path><path fill="#de7a60" d="M688.84 300.57l-.47-1.14c17.41-11.45 22.83-44.37 22.88-44.71l.99.25c-.01.08-1.38 8.54-4.92 18.32C704.04 282.35 698.17 294.43 688.84 300.57zM665.32 296.54l-1-.16c1.25-12.26 8.11-24.75 13.65-33.07 5.98-8.98 11.75-15.18 11.81-15.24l.65.98C690.2 249.29 667.65 273.63 665.32 296.54z" class="colorde9960 svgShape"></path><g></g><path fill="none" stroke="#fe5427" stroke-linecap="round" stroke-miterlimit="10" stroke-width="9" d="M419.13,329.13l45.28,26.42c5.41,3.32,8.86,9.06,9.27,15.39l10.99,172.77" class="colorStrokefec227 svgStroke"></path><polygon fill="#cf674c" points="540.16 439.59 524.31 635.14 423.89 635.14 405.92 442.76" opacity=".89" class="colorcf874c svgShape"></polygon><path fill="#efdad5" d="M475.15,377.22c31.66,0,58.31,23.51,66.27,55.5H408.89C416.85,400.74,443.49,377.22,475.15,377.22z" opacity=".89" class="colord6d5ef svgShape"></path><rect width="146.93" height="15.86" x="401.16" y="429.55" fill="#3f3838" transform="rotate(-180 474.624 437.475)" class="color6b2d16 svgShape"></rect><g></g><path fill="#cc5d40" d="M311.36,412.23l-34.88-16.37c-14.27-45-31.83-52.69-31.83-52.69l14.78,59.36c0,0,2.78,19.67,47.79,17.47
			s2.2,0,2.2,0h0C313.89,420.24,315.42,414.14,311.36,412.23z" class="colore13268 svgShape"></path><path fill="#13254c" d="M373.99,373.69c11.67,9.45,5.49,29.95-5.98,53c-3.67,7.39-8.78,13.99-15,19.41
				c-21.73,18.93-49.67,24.83-63.15,11.77c-13.25-10.73,6-36.79,25.26-60.56C334.39,373.53,360.75,362.95,373.99,373.69z" class="color4c1d13 svgShape"></path><path fill="#e07a5f" d="M370.2,367.92c14.39,14.56,1.2,39.7-22.51,62.63c-12.94,9.24-49.21,33.15-60.49,21.49
				c-11.28-11.66-4.06-40.78,19.65-63.71C330.56,365.41,358.79,356.39,370.2,367.92z" class="colord57346 svgShape"></path><path fill="#163168" d="M290.59,441.19l-0.77-1.39l28.19-15.68c2.29-1.27,4.22-3.12,5.59-5.35l24.75-40.29l1.35,0.83l-24.75,40.29
					c-1.51,2.46-3.65,4.51-6.17,5.91L290.59,441.19z" class="color682b16 svgShape"></path><path fill="#de7a60" d="M330.37 435.31l-.73-1.41c27.33-14.2 35.84-55 35.93-55.41l1.56.31c-.02.1-2.17 10.59-7.73 22.7C354.24 412.72 345.03 427.69 330.37 435.31zM293.43 430.32l-1.57-.2c1.96-15.19 12.74-30.68 21.44-40.99 9.39-11.14 18.45-18.81 18.54-18.89l1.02 1.21C332.5 371.75 297.1 401.92 293.43 430.32z" class="colorde9960 svgShape"></path><path fill="#e5a695" d="M246.15,317.32c0,0-7.99,11.25-6.33,20.33c0,0-15.83,0.73-22.66-3.74c0,0,5.73-14.65,4.22-21.54
			L246.15,317.32z" class="colore5959d svgShape"></path><path fill="#f9bcac" d="M237.17,299.12c6.47,3.28,11.94-12.11,14.16-19.54c0.09,0.16,8.34,6.47,6.04,18.02
			c-0.11,0.56-0.1,1.14,0.02,1.69c0.31,1.41,1.28,4.14,4.25,7.87c0.1,0.13,0.16,0.28,0.17,0.44c0.03,0.57-0.26,1.86-3.2,2.53
			c0,0-0.65,1.87,0.1,3l-1.98,1.25l0.68,2.49l-1.6,0.8c-0.2,0.1-0.3,0.32-0.24,0.54c0.43,1.55,1.26,7.48-12.33,3.85
			c0,0-16.23-3.45-21.92-5.9C228.81,309.91,224.69,292.61,237.17,299.12z" class="colorf9aeac svgShape"></path><path fill="#021e59" d="M209.69,282.62c1.12-1.06,3.07-1.9,6.42-1.03c8.85-14.48,29.95-11.04,35.21-2.01
			c-2.22,7.43-7.68,22.83-14.16,19.54c-12.48-6.5-8.36,10.79-15.87,17.04c-0.22-0.09-0.42-0.18-0.6-0.27
			c-5.11-0.25-5.87-6.87-7.01-10.74c-15.52,5.35-18.18-18.49-8.39-20.28C206.94,284.55,208.48,283.77,209.69,282.62z" class="color100259 svgShape"></path><path fill="#2a2e37" d="M175.5 600.02l-7.68 34.03h47.2c.04-.1.09-.2.13-.3 2.74-6.47-1.69-13.75-8.68-14.39-12.4-1.15-16.69-22.63-16.69-22.63L175.5 600.02zM227.09 602.21c0 0-4.39 24.15-7.68 32.93h49.39c6.86-15.01-19.76-16.46-26.34-32.93H227.09z" class="color362a37 svgShape"></path><path fill="#3a4866" d="M266.61,423.3v185.5h-51.59c0,0,25.25-80.13,9.88-104.28v-59.27l7.68-28.54L266.61,423.3z" class="color18304a svgShape"></path><path fill="#cc5d40" d="M242.93,337.67c12.39,11.68,26.73,38.72,21.48,101h-72.44c0,0,10.8-45.02,7.13-73.08
			c-1.34-10.25,2.13-20.65,9.57-27.82c0.15-0.14,0.3-0.28,0.45-0.42C218.69,328.45,233.42,328.71,242.93,337.67z" class="colorcc4040 svgShape"></path><path fill="#f9bcac" d="M279.78,428.79c0,0,16.46-8.78,19.76-3.29c0,0,2.2,3.29-5.49,4.39c0,0,27.44,4.39,10.98,15.37
			c0,0-7.68,8.78-25.25-9.88V428.79z" class="colorf9aeac svgShape"></path><path fill="#cc5d40" d="M201.85,381.59c0,0-2.2,49.39,81.23,58.17l2.2-15.37c0,0-16.46-1.1-31.83-31.83l-14.27-19.76L201.85,381.59z
			" class="colore13268 svgShape"></path><g><line x1="713.58" x2="718.43" y1="531.47" y2="624.72" fill="none" stroke="#031c51" stroke-miterlimit="10" stroke-width="2" class="colorStroke060351 svgStroke"></line><line x1="678.1" x2="682.95" y1="531.47" y2="624.72" fill="none" stroke="#031c51" stroke-miterlimit="10" stroke-width="2" class="colorStroke060351 svgStroke"></line><line x1="628.12" x2="623.27" y1="531.47" y2="624.72" fill="none" stroke="#031c51" stroke-miterlimit="10" stroke-width="2" class="colorStroke060351 svgStroke"></line></g><path fill="#3c4c6d" d="M198.55,429.89c0,0-5.49,90.01-17.56,109.76c0,0-19.76,42.81-19.76,66.96h52.69
			c9.88-74.64,28.45-141.87,26.34-187.7" class="color3c4f6d svgShape"></path><path fill="#e5a695" d="M671.94,407.95c0,0,5.43,8.65,3.82,15.29c0,0,11.67,1.21,16.9-1.81c0,0-3.62-11.06-2.21-16.09L671.94,407.95z
			" class="colore5959d svgShape"></path><path fill="#f9bcac" d="M679.18,393.26c-4.92,2.15-8.31-9.45-9.64-15.03c-0.08,0.11-6.43,4.43-5.22,13.06
			c0.06,0.42,0.03,0.84-0.09,1.25c-0.29,1.03-1.12,3-3.47,5.64c-0.08,0.09-0.13,0.2-0.15,0.32c-0.05,0.42,0.11,1.39,2.26,2
			c0,0,0.4,1.41-0.2,2.21l1.41,1.01l-0.6,1.81l1.15,0.66c0.14,0.08,0.21,0.25,0.16,0.41c-0.38,1.13-1.24,5.47,8.95,3.36
			c0,0,12.14-1.87,16.44-3.44C684.9,401.59,688.68,388.98,679.18,393.26z" class="colorf9aeac svgShape"></path><path fill="#021e59" d="M700.18,382.22c-0.78-0.83-2.19-1.53-4.7-1.03c-5.93-11.07-21.67-9.42-25.93-2.96
			c1.33,5.58,4.72,17.19,9.64,15.03c9.5-4.28,5.72,8.32,11.01,13.25c0.16-0.06,0.32-0.12,0.46-0.18c3.78,0.03,4.63-4.83,5.63-7.64
			c11.24,4.61,14.21-12.9,7.05-14.64C702.13,383.77,701.03,383.13,700.18,382.22z" class="color100259 svgShape"></path><path fill="#7a97d3" d="M649.43,532h67.63c2.99,0,5.41-2.42,5.41-5.41V439.3c0-5.81-4.71-10.52-10.52-10.52h-59.6
				c-5.81,0-10.52,4.71-10.52,10.52v85.09C641.83,528.6,645.23,532,649.43,532z" class="color7a8fd3 svgShape"></path><path fill="#7a97d3" d="M633.28,539.25h79.18c5.52,0,10-4.48,10-10v-6.13h-99.18v6.13C623.28,534.78,627.76,539.25,633.28,539.25z
				" class="color7a8fd3 svgShape"></path><polyline fill="#1f3665" points="673.86 523.17 668.17 511.39 635.43 511.39" class="color1f3a65 svgShape"></polyline><polygon fill="#ff7d5b" points="700.87 447.34 696.8 466.17 679.49 476.93 686.62 478.27 704.94 479.62 705.62 456.96" class="colorff5b7e svgShape"></polygon><path fill="#f9bcac" d="M582.15 564.67c0 0-5.64 5.64-4.61 12.81l-17.93.51-4.1-3.07c0 0 11.27-3.07 17.42-11.27L582.15 564.67zM642.6 568.77c4.1 17.42 10.25 15.37 10.25 15.37l-8.2 17.42-6.15 2.05h-1.02l-1.54.51c.56-1.4 1.02-2.05 2.32-3.45.83-1.43 1.26-3.06 1.26-4.71v-6.15c0-.99-.19-1.98-.56-2.9-1.01-2.55-4.05-8.41-3.03-14.55L642.6 568.77z" class="colorf9aeac svgShape"></path><path fill="#031c51" d="M652.85 584.14l-5.12 9.22c0 0-3.48 6.46-10.44 8.62-.2.06-.38.19-.49.37l-3.18 4.99c-.16.25-.12.57.1.76.56.47 1.93 1.04 4.79-.39 0 0 6.15-3.07 9.22-8.2 0 0 1.02-2.05 5.12-6.15 0 0 6.15-4.1 3.07-7.17L652.85 584.14zM578.01 577.89c.22 1.83-.41 3.88-4.16 4.17-.52.04-1.05-.01-1.55-.15-1.78-.5-7.29-1.83-15.46-1.86-.22 0-.44-.02-.66-.07-1.27-.26-5.63-1.32-6.72-3.76-.07-.16 0-.34.15-.43.8-.46 3.35-1.72 5.89-.87l4.32 1.73c.55.22 1.13.35 1.72.38 2.5.13 9.5.37 13.4-.95C576.32 575.6 577.84 576.44 578.01 577.89z" class="color060351 svgShape"></path><path fill="#cc5d40" d="M651.83,461.17c0,0,4.1-28.69,8.2-33.82c0,0,4.61-6.66,15.88-7.69c1.68,6.29,14.09,3.39,15.88-0.51
			c0,0,21.52-2.05,26.64,21.52c0,0,14.35,40.99,3.07,45.09l-29.95,1.93c-1.2,0.08-2.41-0.05-3.57-0.38l-5.42-1.55v-8.2l28.69-7.17
			l-10.25-15.37l-6.15,25.62c0.11,4.68-5.71,7.61-28.18,5.64l-7.69-2.56L651.83,461.17z" class="colore13268 svgShape"></path><path fill="#ffc9bb" d="M682.57,477.57c-4.1,2.05-7.17-3.07-12.3,0l-6.15,4.1l2.56,4.61c0,0,2.56-7.69,10.76-3.59l5.33,1.97
			L682.57,477.57z" class="colorffc1bb svgShape"></path><path fill="#031c51" d="M632.36,507.29c0,0,12.3,27.67,12.3,64.56c0,0-5.12,3.07-11.27,3.07l-9.73-28.18
			c-0.23-0.24-1.11-1.96-1.13-2.59l-7.58-21.49L632.36,507.29z" class="color2b468a svgShape"></path><polygon fill="#031c51" points="637.99 524.19 622.62 544.69 614.42 523.17 632.87 504.72" class="color0843a3 svgShape"></polygon><path fill="#031c51" d="M619.04,483.72c0,0-35.87,53.29-48.16,80.95l10.25,2.05c0,0,29.72-25.62,35.87-32.79
			c0,0,4.71-3.92,7.26-11.77c0.86-2.66,2.01-5.21,3.56-7.53l0.24-0.35c0.73-1.09,2.11-1.53,3.34-1.06
			c7.49,6.05,15.54,11.57,30.19,10.98c0.87,0.33,3.17,0.02,4.1,0h34.69c2.75,0,5.24-1.73,6.1-4.35c1.52-4.66,2.23-14.11-2.36-33.05
			l-39.45,0.51l-11.27-11.27l-3.59,2.56L619.04,483.72z" class="color060351 svgShape"></path><polygon fill="#7a97d3" points="667.71 487.3 617.47 487.3 602.13 449.39 654.42 449.39" class="color7a8fd3 svgShape"></polygon><rect width="19.47" height="1.02" x="666.68" y="486.28" fill="#586f9f" class="colorgray svgShape"></rect><ellipse cx="634.41" cy="468.35" fill="#fffcfb" rx="2.05" ry="3.07" transform="rotate(-33.812 634.4 468.334)" class="colorfbfffe svgShape"></ellipse></svg></g></svg>