<svg id="SvgjsSvg3593" width="360" height="360" xmlns="http://www.w3.org/2000/svg" version="1.1" xmlns:xlink="http://www.w3.org/1999/xlink" xmlns:svgjs="http://svgjs.com/svgjs"><defs id="SvgjsDefs3594"></defs><g id="SvgjsG3595"><svg xmlns="http://www.w3.org/2000/svg" enable-background="new 0 0 850 850" viewBox="0 0 850 850" width="360" height="360"><path fill="#efe0dc" d="M174.68,549.72c-35.13-50.07-72.92-129.04,5.67-163.46c0.72-0.32,1.46-0.61,2.19-0.91
		c3.71-1.53,23.51-12.12,10.57-59.9c-0.3-1.12-0.84-2.94-1.19-4.05c-2.35-7.38-15.36-55.48,31.75-90.66
		c22.47-16.78,50.37-23.81,77.94-20.67c22.45,2.56,53,9.95,85.55,29.27c0,0,24.14,20.3,45.6-0.92c0,0,26.5-53.13,74.63-15.58
		c6.57,5.12,12.01,11.59,16.37,18.79c7.85,12.96,30.84,36.87,84.24,5.09c0,0,95.67-45.2,80.47,95.02c0,0-21.42,86.83,6.5,137.09
		c7,12.6,11.69,26.43,13.13,40.87c2.91,29.12-0.39,69.72-40.74,72.21c-16.97,1.05-33.7,4.8-49.22,11.94
		c-98.24,45.25-243.44,48.09-354.09,12.12C228.13,604.31,196.76,581.2,174.68,549.72z" class="colordcdcef svgShape"></path><path fill="#13254c" d="M610.7,582.46c0,14.31-76.4,32.38-166.21,32.38s-166.21-18.07-166.21-32.38s76.4-19.43,166.21-19.43
			S610.7,568.16,610.7,582.46z" class="color4c1d13 svgShape"></path><path fill="#18233f" d="M546.87,440.72h-23.95v116.56h23.95c26.91,0,48.72-21.81,48.72-48.72v-19.12
			C595.59,462.53,573.77,440.72,546.87,440.72z M585.52,506.34c0,22.57-18.29,40.86-40.86,40.86h-18.14v-96.42h18.14
			c22.57,0,40.86,18.29,40.86,40.86V506.34z" class="color08085c svgShape"></path><ellipse cx="444.49" cy="577.42" fill="#d56446" rx="162.61" ry="25.9" class="colord57346 svgShape"></ellipse><ellipse cx="443.05" cy="586.78" fill="#efdad5" rx="128.08" ry="13.67" class="colord6d5ef svgShape"></ellipse><path fill="#fd9579" d="M510.54,594.69H374.12c-20.75,0-37.56-16.82-37.56-37.56V427.76H548.1v129.37
			C548.1,577.88,531.28,594.69,510.54,594.69z" class="colorfdc179 svgShape"></path><path fill="none" stroke="#efdad5" stroke-linecap="round" stroke-miterlimit="10" stroke-width="3" d="M366.78,456.54c0,0-23.02,79.15,31.66,113.68" class="colorStroked6d5ef svgStroke"></path><ellipse cx="441.61" cy="431.36" fill="#8a3d28" rx="107.21" ry="20.15" class="color8a2829 svgShape"></ellipse><path fill="#13254c" d="M364.03,355.73c5.77,5.92,2.71,18.76-2.96,33.21c-1.82,4.63-4.34,8.76-7.42,12.16
				c-10.75,11.86-24.57,15.56-31.23,7.37c-6.55-6.73,2.97-23.05,12.49-37.95S357.47,349,364.03,355.73z" class="color4c1d13 svgShape"></path><path fill="#d56446" d="M362.15,352.11c7.12,9.12,0.59,24.87-11.13,39.24c-6.4,5.79-24.34,20.77-29.92,13.47
				c-5.58-7.3-2.01-25.55,9.72-39.92C342.54,350.54,356.51,344.89,362.15,352.11z" class="colord57346 svgShape"></path><path fill="#163168" d="M322.78,398.02l-0.38-0.87l13.94-9.82c1.13-0.8,2.09-1.96,2.77-3.35l12.24-25.24l0.67,0.52l-12.24,25.24
					c-0.75,1.54-1.8,2.82-3.05,3.7L322.78,398.02z" class="color682b16 svgShape"></path><path fill="#de7a60" d="M342.45 394.33l-.36-.88c13.52-8.9 17.73-34.46 17.77-34.72l.77.2c-.01.07-1.07 6.63-3.82 14.22C354.26 380.18 349.7 389.56 342.45 394.33zM324.18 391.21l-.78-.13c.97-9.52 6.3-19.22 10.6-25.68 4.65-6.98 9.13-11.79 9.17-11.84l.51.76C343.51 354.51 325.99 373.41 324.18 391.21z" class="colorde9960 svgShape"></path><path fill="#f9bcac" d="M177.6,400.96c0,0-9.03,12.06-3.01,12.06l0,0c0.9,0,1.77,0.37,2.45,1.05c2.26,2.25,7.67,6,6.19-11.53
			L177.6,400.96z" class="colorf9aeac svgShape"></path><path fill="#e5a695" d="M256.88,307.93l-6.59,15.27c-8,1.55-14.67,0.04-20.25-3.98c0,0,8.13-11.83,6.97-17.58L256.88,307.93z" class="colore5959d svgShape"></path><path fill="#f9bcac" d="M250.34,291.35c0.44,0.31,1.04,0,1.05-0.53c0.16-9.13,2.27-15.03,10.06-10.03c-0.06,0.07-0.11,0.15-0.16,0.22
			c0,0,3.46,4.02,2.9,10.36l4.04,5.17l-2.59,1.73l0.44,2.45l-0.86,0.87l0.29,1.44l-1.15,0.87c2.03,6.04-2.87,4.32-8.05,5.77
			l-14.85-4.62C240.9,295.02,239.21,283.55,250.34,291.35z" class="colorf9aeac svgShape"></path><path fill="#021e59" d="M234.87,275.4c0.24-0.17,0.47-0.34,0.69-0.53c9.64-7.94,33.46-4.32,25.89,5.91
			c-7.79-4.99-9.91,0.9-10.06,10.03c-0.01,0.54-0.61,0.84-1.05,0.53c-11.13-7.8-9.44,3.67-8.88,13.68l-4.45-1.38
			C230.96,291.49,227.47,280.64,234.87,275.4z" class="color100259 svgShape"></path><path fill="#ca5e41" d="M172.52 561.09l-6.96 4.06c-2.28 1.33-3.09 4.23-1.82 6.54 1.92 3.5 4.56 8.68 6.09 13.35.58 1.76 2.21 2.96 4.06 2.96h8.31c1.42 0 2.05-1.78.96-2.68l0 0c-4.39-3.59-6.94-8.97-6.94-14.64v-11.45L172.52 561.09zM232.73 576.15l-3.12 13.24c-.3 1.3.68 2.54 2.01 2.54h27.4c.88 0 1.2-1.17.43-1.61-5.32-3.01-16.05-9.78-17.44-16.02L232.73 576.15z" class="color915293 svgShape"></path><path fill="#3c4c6d" d="M203.5,423.04c0,0-6.34,44.51-22.33,61.54c-2.22,2.36-3.77,5.24-4.54,8.39
			c-3.76,15.39-13.92,59.19-11.64,74.38l11.14,2.78l40.94-73.35c0.66-1.18,2.46-0.55,2.24,0.79c-4.95,30.25,0.23,57.44,11.58,82.77
			l13.92-0.93c5.32-64.94,11.75-131.63,8.35-160.54L203.5,423.04z" class="color3c4f6d svgShape"></path><circle cx="326.05" cy="371.64" r="3.71" fill="#f9bcac" class="colorf9aeac svgShape"></circle><path fill="#ca5e41" d="M239.68,320.65c2.06,0.91,4.15,1.66,6.12,2.11c3.65,0.84,6.8,3.02,8.55,6.17
			c5.08,9.13,16.05,26.29,29.43,32.01l40.83,7.05l-0.93,7.05l-51.97-0.88l-10.21-6.17l-7.42,61.66h-52.9l3.71-56.38l-21.34,31.71
			l-6.5-1.76c-1.44-24.62,14.27-45.4,34.34-65.18c0-0.09,0-0.18,0-0.27C211.35,324.02,226.54,314.88,239.68,320.65z" class="colorca4143 svgShape"></path><path fill="#de7a60" d="M475.83,310.06c0,0-16.98,44.06-14.96,65.42c7.26-21.1,28.91-56.46,34.79-65.89L475.83,310.06z" class="colorde9960 svgShape"></path><path fill="#e07a5f" d="M580.67,307.57l-85.01,2.02c-5.88,9.43-27.53,44.8-34.79,65.89c0.66,6.96,3.33,11.52,9.27,11.34
			c0,0,77.46,11.55,104.99,3.05c4.57-1.41,7.85-5.43,8.34-10.19C585.13,363.48,588.73,319.67,580.67,307.57z" class="colorda8a57 svgShape"></path><path fill="#d56446" d="M469.46,291.52c0.28,2.34,0.87,5,2.07,7.5c0.83,1.75,0.96,3.74,0.46,5.6c-0.86,3.21-1.5,7.83,1.71,8.28
			c0,0,65.54,9.56,106.3-2.11c1.66-0.47,2.77-2.05,2.6-3.76c-0.16-1.62-0.76-3.57-2.5-5.02c-1.81-1.52-2.86-3.75-2.97-6.11
			c0-0.07-0.01-0.13-0.01-0.2c-0.28-5.66-5.2-9.96-10.85-9.57c-16.75,1.17-54.69,3.25-63.73-1.02c-1.47-0.69-3.01-1.19-4.63-1.34
			c-4.85-0.47-14.34-1.2-21.59-0.61C472.05,283.51,468.96,287.27,469.46,291.52z" class="colord57346 svgShape"></path><path fill="none" stroke="#0b1d42" stroke-miterlimit="10" stroke-width="2" d="M488.62,301.53c0,0,46.91,7.11,78.19,0" class="colorStroke42210b svgStroke"></path><path fill="#13254c" d="M547.38,329.44c5.98,4.84,2.81,15.34-3.06,27.15c-1.88,3.79-4.5,7.17-7.69,9.94
				c-11.13,9.7-25.45,12.72-32.36,6.03c-6.79-5.5,3.07-18.85,12.94-31.03C527.09,329.36,540.59,323.94,547.38,329.44z" class="color4c1d13 svgShape"></path><path fill="#d56446" d="M545.43,326.49c7.37,7.46,0.62,20.34-11.53,32.09c-6.63,4.73-25.21,16.99-30.99,11.01
				s-2.08-20.89,10.07-32.64C525.12,325.2,539.59,320.58,545.43,326.49z" class="colord57346 svgShape"></path><path fill="#163168" d="M504.65,364.03l-0.4-0.71l14.44-8.03c1.17-0.65,2.16-1.6,2.86-2.74l12.68-20.64l0.69,0.43l-12.68,20.64
					c-0.77,1.26-1.87,2.31-3.16,3.03L504.65,364.03z" class="color682b16 svgShape"></path><path fill="#de7a60" d="M525.03 361.01l-.37-.72c14.01-7.27 18.36-28.18 18.41-28.39l.8.16c-.01.05-1.11 5.42-3.96 11.63C537.26 349.44 532.54 357.11 525.03 361.01zM506.1 358.46l-.81-.1c1-7.78 6.53-15.72 10.98-21 4.81-5.71 9.45-9.64 9.5-9.68l.52.62C526.12 328.45 507.98 343.91 506.1 358.46z" class="colorde9960 svgShape"></path><path fill="#13254c" d="M459.8,220.62c3.76,3.04,1.77,9.64-1.92,17.07c-1.18,2.38-2.83,4.5-4.83,6.25c-7,6.1-16,8-20.34,3.79
			c-4.27-3.46,1.93-11.85,8.14-19.5C447.05,220.57,455.54,217.17,459.8,220.62z" class="color4c1d13 svgShape"></path><path fill="#d56446" d="M458.58,218.77c4.64,4.69,0.39,12.78-7.25,20.17c-4.17,2.97-15.85,10.68-19.48,6.92s-1.31-13.13,6.33-20.52
			C445.81,217.96,454.91,215.05,458.58,218.77z" class="colord57346 svgShape"></path><path fill="#163168" d="M432.94,242.36l-0.25-0.45l9.08-5.05c0.74-0.41,1.36-1.01,1.8-1.72l7.97-12.97l0.44,0.27l-7.97,12.97
				c-0.49,0.79-1.17,1.45-1.99,1.9L432.94,242.36z" class="color682b16 svgShape"></path><path fill="#de7a60" d="M445.75 240.47l-.24-.45c8.8-4.57 11.54-17.71 11.57-17.85l.5.1c-.01.03-.7 3.41-2.49 7.31C453.44 233.19 450.47 238.01 445.75 240.47zM433.86 238.86l-.51-.07c.63-4.89 4.1-9.88 6.9-13.2 3.02-3.59 5.94-6.06 5.97-6.08l.33.39C446.44 220 435.04 229.71 433.86 238.86z" class="colorde9960 svgShape"></path><path fill="#13254c" d="M428.99,287.11c3.76,3.04,1.77,9.64-1.92,17.07c-1.18,2.38-2.83,4.5-4.83,6.25c-7,6.1-16,8-20.34,3.79
			c-4.27-3.46,1.93-11.85,8.14-19.5C416.24,287.05,424.73,283.65,428.99,287.11z" class="color4c1d13 svgShape"></path><path fill="#d56446" d="M427.77,285.25c4.64,4.69,0.39,12.78-7.25,20.17c-4.17,2.97-15.85,10.68-19.48,6.92s-1.31-13.13,6.33-20.52
			C415,284.44,424.1,281.54,427.77,285.25z" class="colord57346 svgShape"></path><path fill="#163168" d="M402.13,308.84l-0.25-0.45l9.08-5.05c0.74-0.41,1.36-1.01,1.8-1.72l7.97-12.97l0.44,0.27l-7.97,12.97
				c-0.49,0.79-1.17,1.45-1.99,1.9L402.13,308.84z" class="color682b16 svgShape"></path><path fill="#de7a60" d="M414.94 306.95l-.24-.45c8.8-4.57 11.54-17.71 11.57-17.85l.5.1c-.01.03-.7 3.41-2.49 7.31C422.63 299.68 419.66 304.5 414.94 306.95zM403.05 305.34l-.51-.07c.63-4.89 4.1-9.88 6.9-13.2 3.02-3.59 5.94-6.06 5.97-6.08l.33.39C415.63 286.48 404.23 296.2 403.05 305.34z" class="colorde9960 svgShape"></path><path fill="#13254c" d="M411.15,246.57c3.76,3.04,1.77,9.64-1.92,17.07c-1.18,2.38-2.83,4.5-4.83,6.25c-7,6.1-16,8-20.34,3.79
			c-4.27-3.46,1.93-11.85,8.14-19.5S406.89,243.11,411.15,246.57z" class="color4c1d13 svgShape"></path><path fill="#d56446" d="M409.93,244.71c4.64,4.69,0.39,12.78-7.25,20.17c-4.17,2.97-15.85,10.68-19.48,6.92s-1.31-13.13,6.33-20.52
			S406.26,241,409.93,244.71z" class="colord57346 svgShape"></path><path fill="#163168" d="M384.3,268.3l-0.25-0.45l9.08-5.05c0.74-0.41,1.36-1.01,1.8-1.72l7.97-12.97l0.44,0.27l-7.97,12.97
				c-0.49,0.79-1.17,1.45-1.99,1.9L384.3,268.3z" class="color682b16 svgShape"></path><path fill="#de7a60" d="M397.11 266.41l-.24-.45c8.8-4.57 11.54-17.71 11.57-17.85l.5.1c-.01.03-.7 3.41-2.49 7.31C404.79 259.14 401.83 263.96 397.11 266.41zM385.21 264.8l-.51-.07c.63-4.89 4.1-9.88 6.9-13.2 3.02-3.59 5.94-6.06 5.97-6.08l.33.39C397.79 245.94 386.39 255.66 385.21 264.8z" class="colorde9960 svgShape"></path><path fill="#13254c" d="M433.86,352.78c3.76,3.04,1.77,9.64-1.92,17.07c-1.18,2.38-2.83,4.5-4.83,6.25c-7,6.1-16,8-20.34,3.79
			c-4.27-3.46,1.93-11.85,8.14-19.5C421.1,352.73,429.59,349.32,433.86,352.78z" class="color4c1d13 svgShape"></path><path fill="#d56446" d="M432.63,350.92c4.64,4.69,0.39,12.78-7.25,20.17c-4.17,2.97-15.85,10.68-19.48,6.92s-1.31-13.13,6.33-20.52
			C419.87,350.11,428.96,347.21,432.63,350.92z" class="colord57346 svgShape"></path><path fill="#163168" d="M407,374.52l-0.25-0.45l9.08-5.05c0.74-0.41,1.36-1.01,1.8-1.72l7.97-12.97l0.44,0.27l-7.97,12.97
				c-0.49,0.79-1.17,1.45-1.99,1.9L407,374.52z" class="color682b16 svgShape"></path><path fill="#de7a60" d="M419.81 372.62l-.24-.45c8.8-4.57 11.54-17.71 11.57-17.85l.5.1c-.01.03-.7 3.41-2.49 7.31C427.49 365.35 424.53 370.17 419.81 372.62zM407.91 371.02l-.51-.07c.63-4.89 4.1-9.88 6.9-13.2 3.02-3.59 5.94-6.06 5.97-6.08l.33.39C420.49 352.16 409.09 361.87 407.91 371.02z" class="colorde9960 svgShape"></path><g><path fill="#13254c" d="M452.5,381.16c3.76,3.04,1.77,9.64-1.92,17.07c-1.18,2.38-2.83,4.5-4.83,6.25c-7,6.1-16,8-20.34,3.79
			c-4.27-3.46,1.93-11.85,8.14-19.5C439.75,381.11,448.24,377.7,452.5,381.16z" class="color4c1d13 svgShape"></path><path fill="#d56446" d="M451.28,379.3c4.64,4.69,0.39,12.78-7.25,20.17c-4.17,2.97-15.85,10.68-19.48,6.92s-1.31-13.13,6.33-20.52
			C438.52,378.49,447.61,375.59,451.28,379.3z" class="colord57346 svgShape"></path><path fill="#163168" d="M425.65,402.89l-0.25-0.45l9.08-5.05c0.74-0.41,1.36-1.01,1.8-1.72l7.97-12.97l0.44,0.27l-7.97,12.97
				c-0.49,0.79-1.17,1.45-1.99,1.9L425.65,402.89z" class="color682b16 svgShape"></path><path fill="#de7a60" d="M438.46 401l-.24-.45c8.8-4.57 11.54-17.71 11.57-17.85l.5.1c-.01.03-.7 3.41-2.49 7.31C446.14 393.73 443.18 398.55 438.46 401zM426.56 399.39l-.51-.07c.63-4.89 4.1-9.88 6.9-13.2 3.02-3.59 5.94-6.06 5.97-6.08l.33.39C439.14 380.53 427.74 390.25 426.56 399.39z" class="colorde9960 svgShape"></path></g><polygon fill="#f9bcac" points="662.1 579.82 659.44 593.14 666.54 593.14 669.2 578.94" class="colorf9aeac svgShape"></polygon><polygon fill="#f9bcac" points="701.15 583.37 701.15 594.91 708.25 594.91 709.13 583.37" class="colorf9aeac svgShape"></polygon><path fill="#021e59" d="M667.31 589.47c0 0-3.43 3.66-7.87-1.66l-22.48 14.15c-.65.41-.6 1.37.08 1.72l0 0c.14.07.29.1.44.1h27.95c2.81 0 4.86-2.65 4.16-5.37L667.31 589.47zM708.96 590.03c0 0-3.9 5.18-8.07-.73 0 0-7.53 5.69-9.23 12.96-.18.78.44 1.53 1.24 1.53h16.62c1.25 0 2.24-1.05 2.15-2.3C711.42 598 710.74 591.61 708.96 590.03z" class="color100259 svgShape"></path><path fill="#3c4c6d" d="M670.09,453.81c0,0-11.12,98.39-9.84,127.99c0.04,0.88,0.76,1.56,1.64,1.56h6.9c0.76,0,1.43-0.53,1.6-1.27
		l21.89-94.57l6.14,96.5c0.04,0.63,0.56,1.11,1.19,1.11h9.29c0.63,0,1.16-0.5,1.19-1.13l5.86-125.55c0.19-4.07-1.43-8.01-4.44-10.77
		l-5.91-5.42L670.09,453.81z" class="color3c4f6d svgShape"></path><polyline fill="none" stroke="#000" stroke-linecap="round" stroke-miterlimit="10" stroke-width="2" points="702.04 465.35 694.94 469.79 691.39 482.21"></polyline><path fill="#f9bcac" d="M603.09,404.56c0,0-15.97,1.77-30.17-9.76l-7.1,3.55c0,0,21.3,27.51,35.5,23.07L603.09,404.56z" class="colorf9aeac svgShape"></path><path fill="#f9bcac" d="M567.71,388.37c-5.5,3.26-18.59,10.5-26.25,10.31c-0.37-0.01-0.47,0.49-0.13,0.63
		c4.56,1.85,15.59,5.21,24.5-0.96l5.87-2.93c1.61-0.81,2.18-2.82,1.22-4.35l-1.06-1.69C570.98,387.97,569.14,387.53,567.71,388.37z" class="colorf9aeac svgShape"></path><path fill="#e5a695" d="M636.59,354.24l6.44,17.49c7.65,1.82,13.43-1.84,18.97-5.49c0,0-7.35-11.74-5.99-17.24L636.59,354.24z" class="colore5959d svgShape"></path><path fill="#f9bcac" d="M643.58,338.53c-0.44,0.28-1-0.04-0.99-0.56c0.23-8.81-1.56-14.58-9.29-10.09c0.05,0.07,0.1,0.15,0.15,0.22
		c0,0-3.5,3.74-3.22,9.87l-4.11,4.82l2.42,1.78l-0.52,2.34l0.8,0.87l-0.34,1.38l1.07,0.88c-2.2,5.74,2.59,4.29,7.52,5.9l14.51-3.84
		C652.53,342.46,654.64,331.47,643.58,338.53z" class="colorf9aeac svgShape"></path><path fill="#021e59" d="M659.16,323.79c-0.22-0.17-0.44-0.35-0.65-0.54c-8.97-8.06-32.09-5.56-25.21,4.62
		c7.72-4.49,9.52,1.28,9.29,10.09c-0.01,0.52,0.55,0.84,0.99,0.56c11.06-7.06,8.95,3.93,8,13.56l4.35-1.15
		C662.26,339.47,666.08,329.15,659.16,323.79z" class="color100259 svgShape"></path><path fill="#f9bcac" d="M619.03,365.39c0,0-20.61-4.67-27.55-19c-0.71-1.47-0.75-3.19-0.12-4.7l1.12-2.67
		c0.45-1.08,0.32-2.32-0.36-3.28l-5.66-8.05c-0.5-0.72-1.63-0.28-1.52,0.59l3.28,26.61c0,0,10.86,22.8,24.28,22.94L619.03,365.39z" class="colorf9aeac svgShape"></path><path fill="#ca5e41" d="M616.75,364.19c0,0,20.06,4.88,36.03,6.66l-16.96,21.74c0,0-21.93-6.21-30.51-14.2L616.75,364.19z" class="color915293 svgShape"></path><path fill="#d5806a" d="M600.87,404.12c0,0,15.09-3.55,24.85-22.18l35.5-17.75c25.91-10.61,28.4,45.26,48.81,80.75l-41.71,15.09
		l-29.28-52.36c0,0-22.18,26.62-42.59,15.09L600.87,404.12z" class="colorfec227 svgShape"></path></svg></g></svg>