<svg id="SvgjsSvg4163" width="360" height="360" xmlns="http://www.w3.org/2000/svg" version="1.1" xmlns:xlink="http://www.w3.org/1999/xlink" xmlns:svgjs="http://svgjs.com/svgjs"><defs id="SvgjsDefs4164"></defs><g id="SvgjsG4165"><svg xmlns="http://www.w3.org/2000/svg" enable-background="new 0 0 850 850" viewBox="0 0 850 850" width="360" height="360"><path fill="#f7e4df" d="M178.2,549.72c-35.13-50.07-72.92-129.04,5.67-163.46c0.72-0.32,1.46-0.61,2.19-0.91
		c3.71-1.53,23.51-12.12,10.57-59.9c-0.3-1.12-0.84-2.94-1.19-4.05c-2.35-7.38-15.36-55.48,31.75-90.66
		c22.47-16.78,50.37-23.81,77.94-20.67c22.45,2.56,53,9.95,85.55,29.27c0,0,24.14,20.3,45.6-0.92c0,0,26.5-53.13,74.63-15.58
		c6.57,5.12,12.01,11.59,16.37,18.79c7.85,12.96,30.84,36.87,84.24,5.09c0,0,95.67-45.2,80.47,95.02c0,0-21.42,86.83,6.5,137.09
		c7,12.6,11.69,26.43,13.13,40.87c2.91,29.12-0.39,69.72-40.74,72.21c-16.97,1.05-33.7,4.8-49.22,11.94
		c-98.24,45.25-243.44,48.09-354.09,12.12C231.65,604.31,200.28,581.2,178.2,549.72z" class="colordfeff7 svgShape"></path><path fill="#f9bcac" d="M338.29,518.6c0,0,19.46,30,3.24,25.94c0,0-17.23,19.47-27.79,11.95c-3.12-2.22-4.53-6.15-3.88-9.92
		l4.58-26.74L338.29,518.6z" class="colorf9aeac svgShape"></path><polygon fill="#e5a695" points="385.79 336.44 385.79 378.74 422.55 375.15 421.84 332.45" class="colore5959d svgShape"></polygon><path fill="#de7a60" d="M553.37,513.37c0,0-14.42,45.66-11.03,67.15c6.02-21.8,25.71-58.95,31.07-68.87L553.37,513.37z" class="colorde9960 svgShape"></path><path fill="#e07a5f" d="M659.31,504.28l-85.9,7.37c-5.36,9.91-25.05,47.06-31.07,68.87c1.1,7,4.09,11.44,10.09,10.9
			c0,0,79.11,6.83,106.44-3.5c4.54-1.72,7.6-5.99,7.8-10.84C667.33,560.58,668.23,516.01,659.31,504.28z" class="colorda8a57 svgShape"></path><path fill="#d56446" d="M545.76,495c0.43,2.36,1.2,5,2.56,7.46c0.95,1.71,1.2,3.72,0.82,5.64c-0.67,3.3-1.03,8.01,2.25,8.28
			c0,0,66.93,5.56,107.44-8.8c1.65-0.58,2.68-2.25,2.4-3.97c-0.26-1.63-1-3.57-2.84-4.93c-1.93-1.42-3.13-3.61-3.39-5.99
			c-0.01-0.07-0.01-0.13-0.02-0.2c-0.64-5.71-5.88-9.75-11.58-9c-16.88,2.23-55.14,6.72-64.56,2.97c-1.53-0.61-3.12-1.01-4.77-1.07
			c-4.94-0.17-14.59-0.31-21.89,0.73C547.88,486.74,544.99,490.73,545.76,495z" class="colord57346 svgShape"></path><path fill="none" stroke="#0b1d42" stroke-miterlimit="10" stroke-width="2" d="M565.78,503.94c0,0,47.92,4.25,79.12-4.9" class="colorStroke42210b svgStroke"></path><path fill="#13254c" d="M626.99,528.5c6.35,4.53,3.81,15.35-1.4,27.67c-1.67,3.95-4.1,7.53-7.15,10.54
				c-10.66,10.51-24.96,14.47-32.37,8.13c-7.21-5.14,1.93-19.27,11.15-32.21C606.45,529.69,619.78,523.36,626.99,528.5z" class="color4c1d13 svgShape"></path><path fill="#d56446" d="M624.84,525.63c7.93,7.09,1.9,20.55-9.66,33.2c-6.41,5.2-24.45,18.77-30.67,13.09
				c-6.22-5.68-3.41-21.01,8.14-33.67C604.2,525.6,618.55,520.02,624.84,525.63z" class="colord57346 svgShape"></path><path fill="#163168" d="M585.92,566.18l-0.44-0.69l14.11-9.03c1.15-0.73,2.09-1.76,2.73-2.96l11.54-21.68l0.73,0.39l-11.54,21.68
					c-0.71,1.33-1.75,2.45-3.01,3.26L585.92,566.18z" class="color682b16 svgShape"></path><path fill="#de7a60" d="M606.35 561.85l-.42-.71c13.72-8.24 16.82-29.67 16.85-29.89l.82.11c-.01.05-.79 5.56-3.28 12.02C618 549.37 613.71 557.43 606.35 561.85zM587.04 560.45l-.82-.05c.53-7.94 5.62-16.31 9.8-21.94 4.51-6.08 8.96-10.35 9.01-10.39l.57.6C605.42 528.83 588.03 545.61 587.04 560.45z" class="colorde9960 svgShape"></path><path fill="#13254c" d="M664.37,246.85c7.75,6.28,3.64,19.88-3.97,35.19c-2.44,4.91-5.83,9.29-9.96,12.89
			c-14.43,12.57-32.98,16.49-41.93,7.81c-8.8-7.13,3.98-24.42,16.77-40.21C638.08,246.74,655.58,239.72,664.37,246.85z" class="color4c1d13 svgShape"></path><path fill="#d56446" d="M661.85,243.02c9.56,9.67,0.8,26.36-14.94,41.58c-8.59,6.13-32.67,22.01-40.16,14.27s-2.69-27.08,13.05-42.3
			C635.53,241.35,654.28,235.36,661.85,243.02z" class="colord57346 svgShape"></path><path fill="#163168" d="M609,291.66l-0.51-0.92l18.71-10.41c1.52-0.85,2.8-2.07,3.71-3.56l16.43-26.75l0.9,0.55l-16.43,26.75
				c-1,1.63-2.42,2.99-4.1,3.92L609,291.66z" class="color682b16 svgShape"></path><path fill="#de7a60" d="M635.41 287.76l-.49-.93c18.15-9.43 23.8-36.52 23.85-36.79l1.03.21c-.01.07-1.44 7.03-5.13 15.07C651.26 272.76 645.14 282.7 635.41 287.76zM610.88 284.45l-1.04-.13c1.3-10.09 8.46-20.37 14.23-27.21 6.24-7.39 12.25-12.49 12.31-12.54l.68.81C636.82 245.56 613.32 265.59 610.88 284.45z" class="colorde9960 svgShape"></path><path fill="#13254c" d="M519.7,239.8c6.26,5.07,2.94,16.07-3.21,28.45c-1.97,3.97-4.71,7.51-8.05,10.42
			c-11.66,10.16-26.66,13.33-33.9,6.32c-7.11-5.76,3.22-19.74,13.56-32.51C498.44,239.71,512.59,234.04,519.7,239.8z" class="color4c1d13 svgShape"></path><path fill="#d56446" d="M517.66,236.71c7.73,7.81,0.64,21.31-12.08,33.62c-6.95,4.96-26.41,17.79-32.47,11.54
			c-6.05-6.26-2.18-21.89,10.55-34.2C496.39,235.36,511.54,230.52,517.66,236.71z" class="colord57346 svgShape"></path><path fill="#163168" d="M474.94,276.03l-0.41-0.74l15.13-8.41c1.23-0.68,2.27-1.68,3-2.87l13.28-21.62l0.73,0.45l-13.28,21.62
				c-0.81,1.32-1.96,2.42-3.31,3.17L474.94,276.03z" class="color682b16 svgShape"></path><path fill="#de7a60" d="M496.28 272.87l-.39-.76c14.67-7.62 19.24-29.52 19.28-29.74l.83.17c-.01.06-1.16 5.68-4.15 12.19C509.1 260.75 504.15 268.79 496.28 272.87zM476.46 270.2l-.84-.11c1.05-8.15 6.84-16.46 11.51-22 5.04-5.98 9.9-10.1 9.95-10.14l.55.65C497.43 238.76 478.43 254.95 476.46 270.2z" class="colorde9960 svgShape"></path><path fill="#cc5d40" d="M386.14,356.43c0,27.42,32.08,28.44,34.44-1.2c0,0,62.14,3.21,109.55,80.96
			c10.16,16.67-1.43,38.21-20.94,38.85c-100.61-28.86-40.78,115.74-40.78,115.74l-122.16,2.49l9.97-137.11
			c0,0-14.96,22.44-12.46,72.3h-39.89C302.84,440.07,318.81,370.25,386.14,356.43z" class="colorcc4040 svgShape"></path><path fill="#3d4c6a" d="M363.71,364.02l18.08-7.1v55.23h49.23v-53.2h10.18c2.42,0,4.46,1.78,4.79,4.18l7.46,54.09l22.44,53.2
			l14.96,121.6h-99.72l-38.64-62.32L363.71,364.02z" class="color3d4e6a svgShape"></path><path fill="#f9bcac" d="M448.47,428.73c0,0-40.4-21.26-42.65,14.75c-0.34,5.49,3.96,10.18,9.46,10.18l0,0c3.26,0,6.27-1.68,8.01-4.43
			c2.94-4.64,8.51-9.77,15.2,1.94L448.47,428.73z" class="colorf9aeac svgShape"></path><path fill="#cc5d40" d="M445.3,360.38c5.97,2.25,57.8,23.33,91.61,88.46c6.25,12.04-1.07,26.65-14.47,28.75
			c-16.41,2.58-44.63-0.27-92.66-20.19l13.71-38.64l17.45,2.49l-16.05-60.48C444.82,360.52,445.05,360.29,445.3,360.38z" class="colorcc4040 svgShape"></path><rect width="500.25" height="25.3" x="177.35" y="590.99" fill="#586f9f" class="color915293 svgShape"></rect><path fill="#e5a695" d="M424.12 314.84c.76-1.31 1.52-2.63 2.27-3.94.22-.38.44-.76.78-1.04 1.05-.87 2.81-.24 3.41.98s.26 2.73-.46 3.88c-.27.43-.6.84-.76 1.32-.27.81-.05 1.68.05 2.53.25 2.03-.19 4.16-1.32 5.86-1.13 1.7-2.96 2.95-4.98 3.3M381 314.26c-.02-1.65-.46-3.3-1.26-4.75-.28-.49-.62-.99-1.12-1.25-1.14-.59-2.52.24-3.35 1.23-.26.31-.5.64-.6 1.03-.15.57.04 1.17.21 1.73.15.46.29.92.44 1.37.75 2.35 1.51 4.77 1.35 7.23-.05.78-.19 1.58.01 2.34.29 1.1 1.29 1.91 2.38 2.26 1.08.35 2.26.31 3.39.21" class="colore5959d svgShape"></path><path fill="#021e59" d="M380.81,315.61c-14.56-34.75,5.05-56.48,36.73-46.34c0.75,0.24,1.48,0.54,2.17,0.9
		c14.67,7.63,14.01,28.35,4.74,46.15l-13.52-10.67l-14.47,2.85L380.81,315.61z" class="color100259 svgShape"></path><path fill="#f9bcac" d="M384.52,292.62c-3.21,8.55-7.76,26.13-0.04,43.88c0.29,0.67,0.72,1.28,1.26,1.78l9.11,8.39
		c1.41,1.3,3.26,2.02,5.18,2.02h5.28c1.86,0,3.65-0.67,5.04-1.9l9.7-8.5c2.38-2.09,3.92-4.97,4.34-8.1
		c1.07-8.08,2.4-24.38-1.96-36.66c-1.33-3.75-4.67-6.43-8.61-7.01c-5.43-0.8-13.71-1.67-20.43-0.88
		C389.36,286.11,385.95,288.82,384.52,292.62z" class="colorf9aeac svgShape"></path><g><path fill="#163168" d="M209.88,358.65l-0.44,0.02l-0.47-8.95c-0.04-0.73-0.26-1.44-0.65-2.05l-7.03-11.1l0.37-0.24l7.03,11.1
					c0.43,0.68,0.68,1.46,0.72,2.26L209.88,358.65z" class="color682b16 svgShape"></path><path fill="#de7a60" d="M213.28 348l-.44.01c-.2-8.56-9.35-15.67-9.44-15.74l.27-.35c.02.02 2.38 1.84 4.72 4.7C210.56 339.29 213.17 343.41 213.28 348zM207.52 356.61l-.24.37c-3.55-2.35-6.1-6.93-7.61-10.36-1.63-3.7-2.44-6.9-2.45-6.94l.43-.11C197.68 339.7 200.88 352.23 207.52 356.61z" class="colorde9960 svgShape"></path><path fill="#13254c" d="M275.68,501.14c2.35-0.26,3.97,2.7,5.28,6.54c0.42,1.23,0.6,2.53,0.52,3.83c-0.28,4.53-2.71,8.32-5.67,8.38
				c-2.67,0.3-3.46-4.74-4-9.54C271.28,505.56,273.01,501.43,275.68,501.14z" class="color4c1d13 svgShape"></path><path fill="#d56446" d="M274.61,500.92c3.23,0,4.58,4.26,4.53,9.46c-0.4,2.47-1.73,9.19-4.28,9.16c-2.56-0.03-5.02-4.06-4.97-9.26
				C269.94,505.09,272.06,500.92,274.61,500.92z" class="colord57346 svgShape"></path><path fill="#163168" d="M274.02,517.96l-0.24-0.07l1.36-4.9c0.11-0.4,0.12-0.82,0.02-1.22l-1.78-7.23l0.24-0.06l1.78,7.23
					c0.11,0.44,0.1,0.91-0.02,1.35L274.02,517.96z" class="color682b16 svgShape"></path><path fill="#de7a60" d="M277.76 512.85l-.24-.07c1.43-4.64-2.2-10.11-2.24-10.16l.21-.14c.01.01.95 1.42 1.69 3.38C277.87 507.67 278.53 510.36 277.76 512.85zM273.11 516.44l-.2.15c-1.49-1.9-2.03-4.82-2.22-6.94-.21-2.29-.07-4.15-.07-4.17l.25.02C270.87 505.57 270.33 512.88 273.11 516.44z" class="colorde9960 svgShape"></path><path fill="#3d4c6a" d="M209.73 489.15c-3.04 8.21-6.18 16.3-9.25 24.4-3.03 8.11-6.02 16.21-8.7 24.39-2.67 8.17-5.1 16.41-6.69 24.78-.75 4.18-1.32 8.41-1.25 12.63.03 4.21.72 8.48 3.04 12.22-1.6-1.51-2.82-3.45-3.7-5.51-.9-2.07-1.41-4.28-1.79-6.5-.67-4.45-.61-8.96-.17-13.38.86-8.87 3.09-17.46 5.81-25.81 2.76-8.35 6.08-16.47 9.87-24.35C200.68 504.14 204.84 496.43 209.73 489.15zM287.9 489.15c4.89 7.27 9.05 14.98 12.83 22.87 3.79 7.88 7.11 16.01 9.87 24.35 2.72 8.35 4.95 16.94 5.81 25.81.44 4.42.5 8.93-.17 13.38-.38 2.22-.89 4.43-1.79 6.5-.88 2.07-2.1 4-3.7 5.51 2.32-3.74 3.01-8.02 3.04-12.22.07-4.22-.5-8.45-1.25-12.63-1.59-8.37-4.02-16.61-6.69-24.78-2.68-8.18-5.67-16.28-8.7-24.39C294.08 505.45 290.94 497.36 287.9 489.15z" class="color3d4e6a svgShape"></path><ellipse cx="249.27" cy="576.15" fill="#00194e" rx="65.91" ry="34.27" class="color4e0c00 svgShape"></ellipse><ellipse cx="249.27" cy="564.73" fill="#8a3d28" rx="65.91" ry="36.91" class="color8a2829 svgShape"></ellipse><line x1="248.39" x2="248.39" y1="490.91" y2="564.73" fill="none" stroke="#3c4c6d" stroke-miterlimit="10" stroke-width="5" class="colorStroke3c4f6d svgStroke"></line><path fill="#a36c60" d="M204.23,439.5c0,0,2.61,32.19-2.67,46.89c-1.1,3.06,1.14,6.28,4.4,6.28h92.4c3.1,0,5.31-2.98,4.43-5.95
			c-3.29-11.03-9.57-34.46-6.93-45.02L204.23,439.5z" class="colorffcfcb svgShape"></path><polygon fill="#a36c60" stroke="#ca5e41" stroke-miterlimit="10" points="293.07 428.52 207.23 428.52 187.76 381.06 312.54 381.06" class="colorffcfcb svgShape colorStrokeca4143 svgStroke"></polygon><path fill="#efcbc2" d="M296.58,441.7h-92.87c-1.05,0-1.9-0.85-1.9-1.9v-13.78c0-1.05,0.85-1.9,1.9-1.9h92.87
			c1.05,0,1.9,0.85,1.9,1.9v13.78C298.48,440.85,297.63,441.7,296.58,441.7z" class="colorefc2c2 svgShape"></path><path fill="#13254c" d="M286.86,519.58c2.35-0.26,3.97,2.7,5.28,6.54c0.42,1.23,0.6,2.53,0.52,3.83c-0.28,4.53-2.71,8.32-5.67,8.38
				c-2.67,0.3-3.46-4.74-4-9.54C282.46,524.01,284.19,519.88,286.86,519.58z" class="color4c1d13 svgShape"></path><path fill="#d56446" d="M285.79,519.37c3.23,0,4.58,4.26,4.53,9.46c-0.4,2.47-1.73,9.19-4.28,9.16c-2.56-0.03-5.02-4.06-4.97-9.26
				S283.24,519.37,285.79,519.37z" class="colord57346 svgShape"></path><path fill="#163168" d="M285.2,536.41l-0.24-0.07l1.36-4.9c0.11-0.4,0.12-0.82,0.02-1.22l-1.78-7.23l0.24-0.06l1.78,7.23
					c0.11,0.44,0.1,0.91-0.02,1.35L285.2,536.41z" class="color682b16 svgShape"></path><path fill="#de7a60" d="M288.94 531.3l-.24-.07c1.43-4.64-2.2-10.11-2.24-10.16l.21-.14c.01.01.95 1.42 1.69 3.38C289.05 526.12 289.71 528.81 288.94 531.3zM284.29 534.89l-.2.15c-1.49-1.9-2.03-4.82-2.22-6.94-.21-2.29-.07-4.15-.07-4.17l.25.02C282.05 524.02 281.51 531.33 284.29 534.89z" class="colorde9960 svgShape"></path><g><path fill="#13254c" d="M263.94,515.67c2.35-0.26,3.97,2.7,5.28,6.54c0.42,1.23,0.6,2.53,0.52,3.83c-0.28,4.53-2.71,8.32-5.67,8.38
				c-2.67,0.3-3.46-4.74-4-9.54S261.27,515.97,263.94,515.67z" class="color4c1d13 svgShape"></path><path fill="#d56446" d="M262.87,515.46c3.23,0,4.58,4.26,4.53,9.46c-0.4,2.47-1.73,9.19-4.28,9.16c-2.56-0.03-5.02-4.06-4.97-9.26
				C258.2,519.62,260.32,515.46,262.87,515.46z" class="colord57346 svgShape"></path><path fill="#163168" d="M262.28,532.49l-0.24-0.07l1.36-4.9c0.11-0.4,0.12-0.82,0.02-1.22l-1.78-7.23l0.24-0.06l1.78,7.23
					c0.11,0.44,0.1,0.91-0.02,1.35L262.28,532.49z" class="color682b16 svgShape"></path><path fill="#de7a60" d="M266.02 527.38l-.24-.07c1.43-4.64-2.2-10.11-2.24-10.16l.21-.14c.01.01.95 1.42 1.69 3.38C266.13 522.21 266.79 524.9 266.02 527.38zM261.37 530.97l-.2.15c-1.49-1.9-2.03-4.82-2.22-6.94-.21-2.29-.07-4.15-.07-4.17l.25.02C259.13 520.11 258.59 527.42 261.37 530.97z" class="colorde9960 svgShape"></path></g><g><path fill="#13254c" d="M226.72,517.85c1.77-0.2,2.98,2.03,3.97,4.92c0.32,0.93,0.45,1.91,0.39,2.88c-0.21,3.41-2.04,6.26-4.27,6.31
				c-2.01,0.22-2.6-3.57-3.01-7.17C223.41,521.18,224.71,518.08,226.72,517.85z" class="color4c1d13 svgShape"></path><path fill="#d56446" d="M225.92,517.69c2.43,0,3.45,3.2,3.41,7.11c-0.3,1.86-1.3,6.91-3.22,6.89s-3.78-3.05-3.74-6.96
				C222.41,520.83,224,517.7,225.92,517.69z" class="colord57346 svgShape"></path><path fill="#163168" d="M225.47,530.51l-0.18-0.05l1.02-3.68c0.08-0.3,0.09-0.62,0.01-0.92l-1.34-5.44l0.18-0.04l1.34,5.44
					c0.08,0.33,0.08,0.68-0.02,1.01L225.47,530.51z" class="color682b16 svgShape"></path><path fill="#de7a60" d="M228.29 526.67l-.18-.06c1.08-3.49-1.66-7.6-1.68-7.64l.16-.11c.01.01.71 1.06 1.27 2.54C228.37 522.77 228.87 524.79 228.29 526.67zM224.79 529.37l-.15.12c-1.12-1.43-1.53-3.63-1.67-5.22-.16-1.72-.05-3.12-.05-3.14l.19.01C223.11 521.19 222.7 526.69 224.79 529.37z" class="colorde9960 svgShape"></path></g><g><path fill="#13254c" d="M271.87,541.08c1.99,0.33,2.63,3.13,2.83,6.57c0.06,1.11-0.09,2.21-0.46,3.26
				c-1.27,3.65-4.14,6.19-6.58,5.57c-2.26-0.37-1.75-4.69-1.08-8.74S269.61,540.71,271.87,541.08z" class="color4c1d13 svgShape"></path><path fill="#d56446" d="M271.04,540.66c2.64,0.74,2.78,4.55,1.54,8.79c-0.89,1.94-3.53,7.13-5.62,6.52
				c-2.09-0.61-3.18-4.48-1.94-8.73S268.95,540.08,271.04,540.66z" class="colord57346 svgShape"></path><path fill="#163168" d="M266.63,554.49l-0.18-0.11l2.24-3.7c0.18-0.3,0.28-0.64,0.3-1l0.21-6.34l0.21,0.01l-0.21,6.34
					c-0.01,0.39-0.13,0.77-0.33,1.1L266.63,554.49z" class="color682b16 svgShape"></path><path fill="#de7a60" d="M270.88 551.16l-.18-.12c2.24-3.47.52-8.79.5-8.85l.2-.07c0 .01.45 1.38.61 3.16C272.16 546.95 272.08 549.3 270.88 551.16zM266.24 553.04l-.2.08c-.78-1.9-.55-4.42-.23-6.2.35-1.92.9-3.42.91-3.43l.2.07C266.9 543.62 264.78 549.48 266.24 553.04z" class="colorde9960 svgShape"></path></g></g><g><path fill="#d56446" d="M441.01,450.22c-12.4,2.31-22.91,1.95-33.8,1.09c-1.4-0.11-2.8-0.31-4.18-0.6
			c-6.38-1.34-27.78-5.35-45.86-3.12l12.97,10.02l37.72,1.77l30.06-4.13L441.01,450.22z" class="colord57346 svgShape"></path><path fill="#b7ceff" d="M440.33,571.21l-24.21-49.95l-28.88,2.06l-23.15,47.23C377.37,576.41,416.21,582.1,440.33,571.21z" opacity=".39" class="colorb7dfff svgShape"></path><path fill="#d56446" d="M424.66,486.78c0,0-6.48,13.26-5.6,23.58l-34.19-1.47c0,0,3.24-7.66-4.72-21.81L424.66,486.78z" class="colord57346 svgShape"></path><path fill="#d56446" d="M417.1,528.01c-10.03,2.02-19.82,2.13-29.29-0.52c-1.22-0.34-2.05-1.47-2.05-2.73v-19.4h33.89
			c-1.41,5.3-1.73,10.64-0.4,19.61C419.47,526.39,418.51,527.72,417.1,528.01z" class="colord57346 svgShape"></path><path fill="none" stroke="#031c51" stroke-miterlimit="10" stroke-width="2" d="M394.22,507.19c-3.45,8.47,6.87,13.19,1.27,18.79" class="colorStroke060351 svgStroke"></path><rect width="34.69" height="3.29" x="385.19" y="506.65" fill="#13254c" transform="rotate(3.492 402.256 507.918)" class="color4c1d13 svgShape"></rect><path fill="#de7a60" d="M436.75,459.37c0,0-3.76,15.68-10.31,27.74c-1.77,3.25-5.17,5.27-8.86,5.27h-30.3c-3.88,0-7.41-2.28-9-5.82
			c-3.06-6.81-7.55-18.13-7.55-25.72L436.75,459.37z" class="colorde9960 svgShape"></path><path fill="#c26a53" d="M447.8,446.85c-26.45,11.36-56.61,11.85-90.77,0.59C367.78,480.89,434.69,479.12,447.8,446.85z" class="colorfec227 svgShape"></path><path fill="#d56446" d="M445.81,582.52l-5.48-11.31c-24.12,10.88-62.97,5.2-76.25-0.66l-4.96,10.11
			c-4.29,8.75,1.49,19.09,11.19,20.03c18.08,1.75,44.79,3.64,64.04,2.01C444.19,601.87,450.12,591.41,445.81,582.52z" class="colord57346 svgShape"></path><ellipse cx="401.82" cy="572.05" fill="#13254c" rx="38.61" ry="5.84" class="color4c1d13 svgShape"></ellipse></g></svg></g></svg>