<svg id="SvgjsSvg3776" width="360" height="360" xmlns="http://www.w3.org/2000/svg" version="1.1" xmlns:xlink="http://www.w3.org/1999/xlink" xmlns:svgjs="http://svgjs.com/svgjs"><defs id="SvgjsDefs3777"></defs><g id="SvgjsG3778"><svg xmlns="http://www.w3.org/2000/svg" enable-background="new 0 0 850 850" viewBox="0 0 850 850" width="360" height="360"><path fill="#f4ebe9" d="M172.32,553.6c-36.52-51.4-75.81-132.47,5.9-167.8c0.75-0.32,1.52-0.62,2.28-0.93
		c3.86-1.57,24.44-12.44,10.98-61.49c-0.32-1.15-0.87-3.02-1.24-4.15c-2.44-7.57-15.97-56.95,33.01-93.07
		c23.36-17.23,52.36-24.44,81.03-21.22c23.34,2.62,55.1,10.21,88.94,30.05c0,0,25.1,20.83,47.4-0.95c0,0,27.55-54.54,77.59-15.99
		c6.83,5.26,12.48,11.9,17.02,19.29c8.16,13.3,32.06,37.85,87.57,5.22c0,0,99.46-46.4,83.66,97.54c0,0-22.27,89.13,6.76,140.73
		c7.28,12.93,12.15,27.13,13.65,41.96c3.03,29.9-0.4,71.58-42.35,74.13c-17.64,1.07-35.03,4.92-51.17,12.26
		c-102.13,46.45-253.08,49.37-368.12,12.44C227.89,609.64,195.28,585.92,172.32,553.6z" class="colore9e9f4 svgShape"></path><path fill="#e15732" d="M188.59,605.13c0,0-11.95-36.86-29.41-48.22c-4.59-2.99-8.68-6.69-11.84-11.16
			c-4.86-6.89-9.81-16.72-7.03-25.6c1.17-3.76,1.67-7.71,1.16-11.61c-0.77-5.97-3.16-14.04-9.93-20.6c0,0-5.13-5.44-8.21-11.1
			c-2.59-4.76-0.11-10.71,5.1-12.23c6.41-1.88,16.51-2.38,27.17,6.65c0,0,3.43,2.64,7.25,0.3c2.8-1.72,6.13-2.39,9.3-1.56
			c5.47,1.43,12.7,5.57,15.66,17.17l3.05,13.32c0.67,2.9,2.81,5.2,5.62,6.19c3.57,1.26,7.26,4.31,2.19,11.62
			c-1.95,2.8-2.67,6.28-2.08,9.64l7.91,45.38l1.55,24.84L188.59,605.13z" class="colore13268 svgShape"></path><path fill="none" stroke="#fff3f0" stroke-miterlimit="10" d="M153.67 485.21c0 0 41.13 26.78 34.54 109.43M156 497.63c0 0 7.2 7.31 14.66 6.76M156 516.65c0 0 3.43 18.61 28.49 22.11M152.5 531.78c0 0 7.75 4.75 13.96-.15M180.44 498.41c0 0 3.1 11.25-1.16 21.73M188.98 505.78c0 0-6.77 1.12-7.85 6.57" class="colorStrokef0f8ff svgStroke"></path><line x1="171.91" x2="187.84" y1="556.62" y2="558.46" fill="none" stroke="#fff3f0" stroke-miterlimit="10" class="colorStrokef0f8ff svgStroke"></line><line x1="173.07" x2="178.62" y1="547.3" y2="557.2" fill="none" stroke="#fff3f0" stroke-miterlimit="10" class="colorStrokef0f8ff svgStroke"></line><path fill="#fb6d47" d="M206.68,608.41c0,0,1.84-38.7-10.47-55.5c-3.24-4.42-5.76-9.32-7.13-14.63c-2.11-8.16-3.26-19.1,2.47-26.43
			c2.43-3.1,4.28-6.62,5.19-10.45c1.39-5.86,2.01-14.25-2.01-22.78c0,0-2.87-6.9-3.75-13.29c-0.74-5.37,3.69-10.06,9.09-9.64
			c6.66,0.51,16.29,3.61,23.06,15.82c0,0,2.28,3.68,6.68,2.84c3.22-0.62,6.58-0.07,9.25,1.83c4.61,3.28,9.91,9.7,8.58,21.6
			l-1.85,13.53c-0.4,2.95,0.79,5.86,3.07,7.78c2.9,2.44,5.27,6.6-2.06,11.64c-2.81,1.94-4.71,4.93-5.35,8.29l-8.64,45.24
			l-7.32,23.78L206.68,608.41z" class="colorfb9847 svgShape"></path><path fill="none" stroke="#fff3f0" stroke-miterlimit="10" d="M222.64 483.89c0 0-29.02 39.59 6.36 114.58M224.85 496.33c0 0-4.15 9.38-11.33 11.5M231.57 514.12c0 0 3.37 18.62-18.84 30.75M240.19 527.04c0 0-5.57 7.18-13.11 4.8M202.26 505.69c0 0 1.07 11.62 8.77 19.92M196.88 515.61c0 0 6.73-1.35 9.66 3.38" class="colorStrokef0f8ff svgStroke"></path><line x1="230.81" x2="216.56" y1="557.13" y2="564.48" fill="none" stroke="#fff3f0" stroke-miterlimit="10" class="colorStrokef0f8ff svgStroke"></line><line x1="226.43" x2="224.74" y1="548.83" y2="560.05" fill="none" stroke="#fff3f0" stroke-miterlimit="10" class="colorStrokef0f8ff svgStroke"></line><path fill="#526793" d="M201.32,629.43h5.77c17.37,0,31.46-14.08,31.46-31.46v-18.21h-68.69v18.21
			C169.86,615.34,183.95,629.43,201.32,629.43z" class="color915293 svgShape"></path><path fill="#cc5d40" d="M558.64,300.02h-16.38c-5.52,0-10-4.48-10-10v-27.1h36.38v27.1C568.64,295.54,564.16,300.02,558.64,300.02z" class="colorcc4040 svgShape"></path><rect width="20.01" height="16.69" x="563.18" y="270.34" fill="none" stroke="#cc5d40" stroke-miterlimit="10" stroke-width="3" class="colorStrokecc4040 svgStroke"></rect><polygon fill="#90939a" points="569.59 325.6 531.29 325.6 532.31 344.36 568.44 344.36" class="color96909a svgShape"></polygon><path fill="#93a8d5" d="M532.31,344.36l1.39,25.49c10,5.02,21.11,3.93,33.16,0.4l1.58-25.88H532.31z" class="color93d5b6 svgShape"></path><path fill="#586f9f" d="M533.69,369.84l0.29,5.36c0.27,4.91,4.32,8.75,9.24,8.75h14.09c4.89,0,8.94-3.81,9.24-8.69l0.31-5.02
			C554.8,373.77,543.7,374.86,533.69,369.84z" class="color64acb2 svgShape"></path><circle cx="558.38" cy="332.65" r="4.76" fill="#414753" class="color534741 svgShape"></circle><path fill="#fdf0ec" d="M563.12 364.6h-14.25c-.23 0-.42-.19-.42-.42v-.46c0-.23.19-.42.42-.42h14.25c.23 0 .42.19.42.42v.46C563.54 364.41 563.35 364.6 563.12 364.6zM560.43 366.78h-11.64c-.18 0-.33-.15-.33-.33v-.37c0-.18.15-.33.33-.33h11.64c.18 0 .33.15.33.33v.37C560.76 366.63 560.61 366.78 560.43 366.78z" class="colorecf7fd svgShape"></path><path d="M570.88,328.68h-39.5v-2.98h37.58c1.06,0,1.92,0.86,1.92,1.92V328.68z"></path><rect width="77.77" height="4.38" x="604" y="264.56" fill="#2a2e37" class="color362a37 svgShape"></rect><rect width="77.77" height="4.38" x="604" y="274.42" fill="#2a2e37" class="color362a37 svgShape"></rect><rect width="77.77" height="4.38" x="604" y="284.28" fill="#2a2e37" class="color362a37 svgShape"></rect><rect width="77.77" height="4.38" x="604" y="341.23" fill="#2a2e37" class="color362a37 svgShape"></rect><rect width="77.77" height="4.38" x="604" y="351.09" fill="#2a2e37" class="color362a37 svgShape"></rect><rect width="77.77" height="4.38" x="604" y="360.95" fill="#2a2e37" class="color362a37 svgShape"></rect><g><path fill="#de7a60" d="M532.15,484.67c0,0-26.52,68.83-23.36,102.19c11.34-32.95,45.15-88.19,54.34-102.92L532.15,484.67z" class="colorde9960 svgShape"></path><path fill="#e07a5f" d="M695.91,480.78l-132.78,3.15c-9.19,14.73-43,69.97-54.34,102.92c1.03,10.87,5.2,17.99,14.48,17.71
			c0,0,120.99,18.04,163.99,4.76c7.15-2.21,12.26-8.48,13.02-15.92C702.87,568.11,708.5,499.67,695.91,480.78z" class="colorda8a57 svgShape"></path><path fill="#d56446" d="M522.2,455.7c0.43,3.66,1.36,7.81,3.23,11.71c1.3,2.73,1.5,5.84,0.72,8.75c-1.34,5.01-2.35,12.22,2.68,12.94
			c0,0,102.38,14.93,166.03-3.29c2.59-0.74,4.33-3.2,4.07-5.88c-0.25-2.53-1.19-5.58-3.9-7.85c-2.83-2.37-4.47-5.85-4.64-9.54
			c0-0.1-0.01-0.2-0.01-0.31c-0.43-8.84-8.12-15.56-16.94-14.94c-26.16,1.82-85.42,5.08-99.55-1.59c-2.29-1.08-4.71-1.85-7.23-2.1
			c-7.58-0.73-22.4-1.87-33.73-0.96C526.24,443.2,521.41,449.06,522.2,455.7z" class="colord57346 svgShape"></path><path fill="none" stroke="#0b1d42" stroke-miterlimit="10" stroke-width="2" d="M552.13,471.35c0,0,73.27,11.1,122.12,0" class="colorStroke42210b svgStroke"></path><path fill="#40455f" d="M643.91,514.94c9.34,7.57,4.39,23.97-4.78,42.41c-2.94,5.91-7.03,11.19-12.01,15.53
				c-17.39,15.15-39.75,19.87-50.54,9.42c-10.6-8.59,4.8-29.44,20.22-48.47S633.3,506.35,643.91,514.94z" class="color4c1d13 svgShape"></path><path fill="#d56446" d="M640.87,510.33c11.52,11.65,0.96,31.77-18.01,50.12c-10.36,7.39-39.38,26.53-48.41,17.2
				s-3.25-32.64,15.73-50.99C609.15,508.32,631.74,501.1,640.87,510.33z" class="colord57346 svgShape"></path><path fill="#163168" d="M577.16,568.96l-0.62-1.11l22.56-12.55c1.83-1.02,3.38-2.5,4.47-4.29l19.8-32.24l1.08,0.66l-19.8,32.24
					c-1.21,1.97-2.92,3.61-4.94,4.73L577.16,568.96z" class="color682b16 svgShape"></path><path fill="#de7a60" d="M608.99 564.25l-.59-1.13c21.88-11.36 28.69-44.02 28.75-44.35l1.24.25c-.02.08-1.74 8.47-6.19 18.17C628.1 546.18 620.72 558.16 608.99 564.25zM579.43 560.26l-1.26-.16c1.57-12.16 10.2-24.55 17.16-32.8 7.52-8.91 14.77-15.06 14.84-15.12l.82.97C610.7 513.39 582.37 537.54 579.43 560.26z" class="colorde9960 svgShape"></path></g><g><path fill="#2b3848" d="M443.24,347.73c-28.4-52.61-7.1-148.96-69.22-144.52c-55.02,1.27-33.13,84.31-56.2,145.79
			c0,0,27.21-1.27,36.09-6.97C353.91,342.02,417.21,341.39,443.24,347.73z" class="color100259 svgShape"></path><path fill="#091328" d="M402.72 287.5c0 0 8.28 38.46 15.97 46.15l-23.24 2.13-12.09-42.88L402.72 287.5zM355.55 287.5c0 0-8.28 42.01-15.97 49.7l23.24-1.42 12.09-42.88L355.55 287.5z" class="color0a0928 svgShape"></path><path fill="#e5a695" d="M358.64,294.3c0,0-0.59,31.36-4.14,42.01h45.55c0,0-3.55-37.27,0.59-46.74L358.64,294.3z" class="colore5959d svgShape"></path><path fill="#f9bcac" d="M402.94,287.76c7.96-36.76,0.05-65.87-26.66-67.12c-23.99,1.02-30.76,24.87-23.63,67.14
			c0.66,3.88,3.02,7.27,6.42,9.26l11.51,7.24c1.5,0.94,3.23,1.44,5.01,1.44h4.85c1.9,0,3.75-0.57,5.32-1.65l11.53-7.91
			C400.17,294.19,402.2,291.18,402.94,287.76z" class="colorf9aeac svgShape"></path><rect width="141.11" height="34.49" x="309.37" y="587.31" fill="#3c4c6d" class="color3c4f6d svgShape"></rect><path fill="#e15732" d="M389.82,329.64c-7.3,4.53-20,9.91-28.88,0.02c-2.42-2.7-6.1-3.87-9.66-3.16
			c-13.7,2.73-46.1,12.48-74.85,46.02l40.76,31.36c0,0,10.97,114.45-17.25,192.84h150.51c0,0-9.41-147.38-3.14-194.41l28.22-31.36
			c0,0-35.63-35.63-69.06-43.84C400.82,325.72,394.79,326.56,389.82,329.64z" class="colore13268 svgShape"></path><rect width="90.27" height="18.95" x="331.78" y="401.55" fill="#da6e52" class="colorda8952 svgShape"></rect><ellipse cx="376.63" cy="400.3" fill="#40455f" rx="45.41" ry="5.99" class="color4c1d13 svgShape"></ellipse><path fill="#da6e52" d="M418.66,499.71l3.66-44.26c-46.22,7.39-77.78,1.92-91.03-1.4l3.41,43.5
				C345.27,500.87,370.04,505.44,418.66,499.71z" class="colorda8952 svgShape"></path><path fill="#fff9f8" d="M422.32 455.45l3.07-37.18-96.96-.56 2.85 36.33C344.53 457.37 376.1 462.83 422.32 455.45zM334.7 497.55l4.88 62.25h74.11l4.97-60.09C370.04 505.44 345.27 500.87 334.7 497.55z" class="colorf8fffe svgShape"></path><path fill="#da6e52" stroke="#0b1d42" stroke-miterlimit="10" d="M426.5,420.63c-34.56,8.48-67.88,8.96-99.74,0v-10.72c33.22,11.34,66.47,10.17,99.74,0V420.63z" class="colorda8952 svgShape colorStroke42210b svgStroke"></path><path fill="#f9bcac" d="M306.77 396.98l-39.61 40.99c-4.33 4.48-4.01 11.67.68 15.76l63.48 55.2c0 0 37.63-12.54 18.81 6.27 0 0 34.84 15.24 22.86 33.03-5.3 7.87-15.78 10.34-24.47 6.53-10.32-4.53-25.3-12.36-33.06-22.36-3.21-4.14-6.91-7.86-10.97-11.16l-79.42-64.53c-7.01-5.7-7.79-16.12-1.7-22.79l54.62-59.83L306.77 396.98zM450.48 396.04l34.49 37.63-59.58-6.27c0 0-46.7-12.97-48.06 20.08-.27 6.6 4.57 12.28 11.14 12.95 5.8.59 13.04.68 18.68-1.36 5.5-1.99 11.25-3.19 17.1-2.91l100.78 4.8c9.59.46 16.79-8.64 14.16-17.87h0c-.59-2.08-1.66-3.99-3.11-5.58l-60.51-66.56L450.48 396.04z" class="colorf9aeac svgShape"></path><path fill="#2b3848" d="M418.69,333.65c-7.99-42.16-15.69-101.45-42.6-113l-0.59-4.73l26.03,8.28l10.06,32.54l11.24,52.65l1.18,25.44
			L418.69,333.65z" class="color100259 svgShape"></path></g></svg></g></svg>