<svg xmlns="http://www.w3.org/2000/svg" viewBox="0 0 128 128" id="coffeecup"><path fill="#e07a5f" fill-rule="evenodd" d="M100.037,46.157v4.382A37.927,37.927,0,0,1,94.859,69.7q.412.125.832.222a12.089,12.089,0,1,0,4.346-23.76ZM25.588,39.218H97.915a2.124,2.124,0,0,1,2.122,2.122v1.488A15.389,15.389,0,1,1,93.02,72.552a38.642,38.642,0,0,1-4.216,5,38.126,38.126,0,0,1-27.01,11.233H61.71A38.351,38.351,0,0,1,23.467,50.539v-9.2a2.124,2.124,0,0,1,2.122-2.122Z" class="colorf1944e svgShape"></path><path fill="#f9d8cf" fill-rule="evenodd" d="M25.588,39.218H61.752V88.782H61.71A38.351,38.351,0,0,1,23.467,50.539v-9.2a2.124,2.124,0,0,1,2.122-2.122Z" class="colorf7cb91 svgShape"></path><path fill="#e07a5f" d="M15.877,88.782a1.652,1.652,0,0,1,0-3.3h91.749a1.652,1.652,0,1,1,0,3.3Z" class="colorf1944e svgShape"></path></svg>