<svg xmlns="http://www.w3.org/2000/svg" viewBox="0 0 128 128" id="coffeecup"><path fill="#e07a5f" fill-rule="evenodd" d="M100.037,63.445v4.382a37.926,37.926,0,0,1-5.178,19.156q.412.125.832.222a12.089,12.089,0,1,0,4.346-23.76ZM25.588,56.507H97.915a2.124,2.124,0,0,1,2.122,2.122v1.488A15.389,15.389,0,1,1,93.02,89.841a38.658,38.658,0,0,1-4.216,5,38.127,38.127,0,0,1-27.01,11.233H61.71A38.351,38.351,0,0,1,23.467,67.828v-9.2a2.124,2.124,0,0,1,2.122-2.122Z" class="colorf1944e svgShape"></path><path fill="#f9d8cf" fill-rule="evenodd" d="M25.588,56.507H61.752V106.07H61.71A38.351,38.351,0,0,1,23.467,67.828v-9.2a2.124,2.124,0,0,1,2.122-2.122Z" class="colorf7cb91 svgShape"></path><path fill="#e07a5f" d="M15.877,106.07a1.652,1.652,0,1,1,0-3.3h91.749a1.652,1.652,0,1,1,0,3.3Z" class="colorf1944e svgShape"></path><path fill="#f9d8cf" d="M63.092,47.354A1.648,1.648,0,1,1,60.369,45.5c.009-.014,3.4-4.855.026-9.527l-.032-.045c-4.7-6.562-.007-13.256.006-13.275a1.648,1.648,0,0,1,2.723,1.858c-.009.014-3.4,4.855-.026,9.527l.032.045C67.8,40.641,63.105,47.335,63.092,47.354Zm15.746,0A1.648,1.648,0,1,1,76.115,45.5c.009-.014,3.4-4.855.026-9.527l-.032-.045c-4.7-6.562-.007-13.256.006-13.275a1.648,1.648,0,0,1,2.723,1.858c-.009.014-3.4,4.855-.026,9.527l.032.045C83.546,40.641,78.851,47.335,78.838,47.354ZM44.623,22.649a1.648,1.648,0,0,1,2.723,1.858c-.009.014-3.4,4.855-.026,9.527l.032.045c4.7,6.562.007,13.256-.006,13.275A1.648,1.648,0,1,1,44.623,45.5c.009-.014,3.4-4.855.026-9.527l-.032-.045C39.915,29.362,44.61,22.668,44.623,22.649Z" class="colorf7cb91 svgShape"></path></svg>