<svg xmlns="http://www.w3.org/2000/svg" viewBox="0 0 128 128" id="coffeepack"><path fill="#f9d8cf" fill-rule="evenodd" d="M31.352,39.446H84.776v66.916H35.941a4.6,4.6,0,0,1-4.589-4.589Z" class="colorf7cb91 svgShape"></path><path fill="#303952" fill-rule="evenodd" d="M32.557,39.446h6.925a5.452,5.452,0,0,1,1.3,6.862,5.941,5.941,0,1,1-4.54,10.857,3.666,3.666,0,0,1-4.893,1.747V39.446Z" class="colorb54d3e svgShape"></path><path fill="#e07a5f" fill-rule="evenodd" d="M37.288,30.542H90.712l2.968,4.452,2.968,4.452h0v62.327a4.6,4.6,0,0,1-4.589,4.589H84.777V39.446h0l2.968-4.452-2.968,4.452H31.351l2.968-4.452Z" class="colorf1944e svgShape"></path><path fill="#f9d8cf" fill-rule="evenodd" d="M37.288,30.542H90.712V26.227a4.6,4.6,0,0,0-4.589-4.589H41.877a4.6,4.6,0,0,0-4.589,4.589Z" class="colorf7cb91 svgShape"></path><path fill="#303952" fill-rule="evenodd" d="M79.627,72.07a10.467,10.467,0,0,1,5.149,1.345v32.947H62.995a7.1,7.1,0,0,1-.116-3.8,11.46,11.46,0,1,1,6.388-21.786A10.52,10.52,0,0,1,79.627,72.07Z" class="colorb54d3e svgShape"></path><circle cx="67.775" cy="55.118" r="6.122" fill="#303952" class="colorb54d3e svgShape"></circle><circle cx="41.56" cy="81.96" r="3.532" fill="#303952" class="colorb54d3e svgShape"></circle></svg>