<svg xmlns="http://www.w3.org/2000/svg" viewBox="0 0 128 128" id="coffeecup"><path fill="#303952" fill-rule="evenodd" d="M64,20.132A43.869,43.869,0,1,1,32.98,32.981,43.733,43.733,0,0,1,64,20.132Z" class="colorf7cb91 svgShape"></path><path fill="#e07a5f" fill-rule="evenodd" d="M64,32.981a31.02,31.02,0,1,1-21.934,9.085A30.923,30.923,0,0,1,64,32.981Z" class="colorf1944e svgShape"></path><circle cx="64" cy="64" r="23.973" fill="#b5573e" class="colorb54d3e svgShape"></circle><path fill="#f9d8cf" d="M79.758,48.242A22.287,22.287,0,1,0,86.284,64,22.214,22.214,0,0,0,79.758,48.242ZM64,38.338a25.662,25.662,0,1,1-18.145,7.516A25.579,25.579,0,0,1,64,38.338Z" class="colorffffff svgShape"></path><path fill="#f9d8cf" d="M64 51.576A1.688 1.688 0 0 1 64 48.2 15.8 15.8 0 0 1 79.8 64a1.688 1.688 0 1 1-3.377 0A12.423 12.423 0 0 0 64 51.576zM40.027 62.312a1.688 1.688 0 1 1 0 3.377H31.836a1.688 1.688 0 1 1 0-3.377z" class="colorffffff svgShape"></path></svg>