<svg xmlns="http://www.w3.org/2000/svg" viewBox="0 0 128 128" id="coffeepack"><path fill="#f9d8cf" fill-rule="evenodd" d="M31.352,39.446H84.776v66.916H35.941a4.6,4.6,0,0,1-4.589-4.589Z" class="colorf7cb91 svgShape"></path><path fill="#e07a5f" fill-rule="evenodd" d="M96.648,39.446h0L93.68,34.994l-2.968-4.452H37.288L34.32,34.994l-2.968,4.452H84.776v66.916H92.06a4.6,4.6,0,0,0,4.589-4.589V39.446Z" class="colorf1944e svgShape"></path><path fill="#f9d8cf" fill-rule="evenodd" d="M37.288,30.542H90.712V26.227a4.6,4.6,0,0,0-4.589-4.589H41.877a4.6,4.6,0,0,0-4.589,4.589Z" class="colorf7cb91 svgShape"></path><ellipse cx="58.064" cy="72.904" fill="#303952" rx="13.174" ry="16.328" class="color893729 svgShape"></ellipse><path fill="#b5573e" fill-rule="evenodd" d="M58.064,56.576c-7.276,0-13.174,7.31-13.174,16.327s5.9,16.328,13.174,16.328c0,0,5.814-8.289,0-16.328S58.064,56.576,58.064,56.576Z" class="colorb54d3e svgShape"></path></svg>