<svg xmlns="http://www.w3.org/2000/svg" viewBox="0 0 128 128" id="coffeedonut"><path fill="#f9d8cf" fill-rule="evenodd" d="M64,50.154A13.846,13.846,0,1,1,50.154,64,13.846,13.846,0,0,1,64,50.154Zm0-27.428A41.274,41.274,0,1,1,22.726,64,41.274,41.274,0,0,1,64,22.726Z" class="colorf7cb91 svgShape"></path><path fill="#e07a5f" fill-rule="evenodd" d="M64,50.154A13.846,13.846,0,1,1,50.154,64,13.846,13.846,0,0,1,64,50.154Zm0-22.324a8.367,8.367,0,0,1,8.055,6.108,8.366,8.366,0,0,1,13.952,8.056,8.366,8.366,0,0,1,8.055,13.952,8.366,8.366,0,0,1,0,16.111,8.366,8.366,0,0,1-8.055,13.952,8.366,8.366,0,0,1-13.952,8.055,8.366,8.366,0,0,1-16.11,0,8.366,8.366,0,0,1-13.952-8.055,8.366,8.366,0,0,1-8.055-13.952,8.366,8.366,0,0,1,0-16.111,8.366,8.366,0,0,1,8.055-13.952,8.366,8.366,0,0,1,13.952-8.055A8.367,8.367,0,0,1,64,27.829Z" class="colorb54d3e svgShape"></path><path fill="#303952" d="M72.623 55.377A12.2 12.2 0 1 0 76.194 64 12.157 12.157 0 0 0 72.623 55.377zM64 48.5a15.5 15.5 0 1 1-10.959 4.54A15.451 15.451 0 0 1 64 48.5zM58.328 44.5a1.65 1.65 0 1 1-1.936-2.672l4.317-3.14a1.65 1.65 0 1 1 1.936 2.672zM45.809 59.018a1.65 1.65 0 0 1-1.936 2.672l-4.317-3.139a1.65 1.65 0 1 1 1.936-2.672zM83.022 46.753a1.65 1.65 0 0 1-1.936 2.672L76.77 46.285a1.65 1.65 0 0 1 1.936-2.672zM77.31 79.425A1.65 1.65 0 1 1 79.245 82.1l-4.317 3.14a1.65 1.65 0 0 1-1.936-2.672zM52.014 84.473a1.65 1.65 0 0 1-3.278.387l-.629-5.3a1.65 1.65 0 1 1 3.278-.387zM90.448 63.24a1.65 1.65 0 0 1 1.936 2.672l-4.317 3.14a1.65 1.65 0 0 1-1.936-2.672z" class="color893729 svgShape"></path></svg>