<svg xmlns="http://www.w3.org/2000/svg" viewBox="0 0 128 128" id="coffeemaker"><path fill="#f9d8cf" fill-rule="evenodd" d="M38.863,40.832H78.312L88.7,92.391c1.332,6.613-5.52,12.266-12.266,12.266H40.744c-6.746,0-13.6-5.653-12.266-12.266Z" class="colorf7cb91 svgShape"></path><path fill="#e07a5f" fill-rule="evenodd" d="M38.863,40.832H78.312v-13.4a4.1,4.1,0,0,0-4.089-4.089H32.567c-5.076,0-4.858,3.095-2.482,6.162Z" class="colorf1944e svgShape"></path><path fill="#303952" d="M98.037,40.832h.043l.042,0h0l.042,0h0l.041,0h0l.041,0h0l.041.006h0l.041.007h0l.04.008h0l.04.009h0l.039.01h0l.039.011h0l.038.012h0l.038.013h0l.038.013h0l.037.014h0l.037.015h0l.037.016h0l.036.017h0l.036.018h0l.035.019h0l.035.019h0l.034.02h0l.033.021h0l.033.022h0l.032.023h0l.032.023h0l.031.024h0l.031.025h0l.03.026h0l.029.026h0l.029.027h0l.028.027h0l.027.028h0l.027.029h0l.026.03h0l.025.03h0l.025.031h0l.024.032h0l.023.032h0l.022.032h0l.022.033h0l.021.034h0l.02.034h0l.019.035h0l.018.035h0l.018.036h0l.016.036h0l.016.037h0l.015.037h0l.014.038h0l.013.038h0l.012.039h0l.011.039h0l.01.04h0l.009.04h0l.008.04h0l.007.04h0l.007.041h0l.005.041h0l0,.042h0l0,.042h0l0,.042h0v.042h0v.043h0V62.208a1.652,1.652,0,1,1-3.3,0V44.136H38.207l.657-3.3Z" class="color893729 svgShape"></path><path fill="#303952" fill-rule="evenodd" d="M32.409,72.875,28.478,92.391C27.146,99,34,104.657,40.744,104.657H76.432c6.746,0,13.6-5.653,12.266-12.266L84.706,72.575c-1.91-1.228-14.184-8.46-26.118.17C46.52,81.471,34.1,73.978,32.409,72.875Z" class="color893729 svgShape"></path></svg>