<svg xmlns="http://www.w3.org/2000/svg" viewBox="0 0 128 128" id="coffeemug"><path fill="#e07a5f" fill-rule="evenodd" d="M99.978,64.529a15.75,15.75,0,0,0-9.519-4.542V51.506A2.159,2.159,0,0,0,88.3,49.349H39.627a2.14,2.14,0,0,0-1.334.469,1.652,1.652,0,0,1,1.334-.282l-1.334.282a1.674,1.674,0,0,0-.19.163,2.152,2.152,0,0,0-.632,1.524V95.572a12.493,12.493,0,0,0,12.46,12.46H77.994A12.5,12.5,0,0,0,90.459,95.566V91.414a15.8,15.8,0,0,0,9.519-26.885ZM97.642,84.536a12.459,12.459,0,0,1-7.183,3.551V63.315a12.5,12.5,0,0,1,7.183,21.222Z" class="colorf1944e svgShape"></path><path fill="#f9d8cf" fill-rule="evenodd" d="M39.627,49.349a2.14,2.14,0,0,0-1.334.469,1.652,1.652,0,0,1,1.334-.282l-1.334.282a1.674,1.674,0,0,0-.19.163,2.152,2.152,0,0,0-.632,1.524V95.572a12.493,12.493,0,0,0,12.46,12.46H63.965V49.349Z" class="colorf7cb91 svgShape"></path><path fill="#f9d8cf" d="M62.6,20.7a1.65,1.65,0,0,1,2.736,1.846c-.007.011-2.8,3.991-.032,7.815l.032.045c4.091,5.718.012,11.535,0,11.551A1.65,1.65,0,0,1,62.6,40.108c.007-.011,2.8-3.991.032-7.815l-.032-.045C58.506,26.529,62.585,20.713,62.6,20.7Zm-13.379,0a1.65,1.65,0,1,1,2.736,1.846c-.007.011-2.8,3.991-.032,7.815l.032.045c4.092,5.718.011,11.535,0,11.551a1.65,1.65,0,1,1-2.736-1.846c.007-.011,2.8-3.991.032-7.815l-.032-.045C45.127,26.529,49.206,20.713,49.218,20.7ZM78.711,41.954a1.65,1.65,0,0,1-2.736-1.846c.007-.011,2.8-3.991.032-7.815l-.032-.045c-4.091-5.718-.012-11.534,0-11.551a1.65,1.65,0,0,1,2.736,1.846c-.007.011-2.8,3.991-.032,7.815l.032.045C82.8,36.12,78.723,41.937,78.711,41.954Z" class="colorf7cb91 svgShape"></path><path fill="#e07a5f" d="M25.023,108.031a1.652,1.652,0,0,1,0-3.3h77.955a1.652,1.652,0,0,1,0,3.3Z" class="colorf1944e svgShape"></path></svg>