<svg xmlns="http://www.w3.org/2000/svg" viewBox="0 0 128 128" id="coffeecup"><path fill="#303952" fill-rule="evenodd" d="M64,20.132A43.869,43.869,0,1,1,32.98,32.981,43.734,43.734,0,0,1,64,20.132Z" class="colorf7cb91 svgShape"></path><path fill="#e07a5f" fill-rule="evenodd" d="M64,32.981a31.02,31.02,0,1,1-21.934,9.085A30.923,30.923,0,0,1,64,32.981Z" class="colorf1944e svgShape"></path><circle cx="64" cy="64" r="23.973" fill="#b5573e" class="colorb54d3e svgShape"></circle><path fill="#f9d8cf" d="M79.758,48.242A22.287,22.287,0,1,0,86.284,64,22.214,22.214,0,0,0,79.758,48.242ZM64,38.338a25.662,25.662,0,1,1-18.145,7.516A25.579,25.579,0,0,1,64,38.338Z" class="colorffffff svgShape"></path><path fill="#f9d8cf" d="M40.027,62.312a1.688,1.688,0,1,1,0,3.377H31.836a1.688,1.688,0,1,1,0-3.377Z" class="colorffffff svgShape"></path><path fill="#f9d8cf" fill-rule="evenodd" d="M64,50.061h0a1.967,1.967,0,0,1,1.962,1.962V75.977a1.962,1.962,0,0,1-3.924,0V52.023A1.967,1.967,0,0,1,64,50.061Z" class="colorffffff svgShape"></path><path fill="#f9d8cf" fill-rule="evenodd" d="M55.571,52.922c1.331-1.331,4.142-.677,6.279,1.46s2.791,4.948,1.46,6.279-4.142.677-6.279-1.461S54.241,54.253,55.571,52.922Zm16.858,4.75C71.1,56.341,68.287,57,66.15,59.132s-2.791,4.948-1.46,6.279,4.142.677,6.279-1.46S73.76,59,72.429,57.672Zm-16.858,6.5c1.331-1.331,4.142-.677,6.279,1.46s2.791,4.948,1.46,6.279-4.142.677-6.279-1.46S54.241,65.508,55.571,64.177Z" class="colorffffff svgShape"></path></svg>