<svg xmlns="http://www.w3.org/2000/svg" viewBox="0 0 128 128" id="coffeecup"><path fill="#f9d8cf" fill-rule="evenodd" d="M74.151,29.805a31.482,31.482,0,0,1,7.93,5.314,32.424,32.424,0,0,1,6.236,7.819,26.34,26.34,0,0,1,3.223,8.8,1.1,1.1,0,0,1-1.08,1.315H33.053v0a1.118,1.118,0,0,1-.2-.019,1.1,1.1,0,0,1-.878-1.282c.873-4.637,3.871-7.81,7.7-10.172C43.369,39.3,47.8,37.8,51.8,36.453c1.286-.434,2.529-.855,3.782-1.315,1.191-.438,2.292-.88,3.254-1.341a11.547,11.547,0,0,0,3.742-2.567,3.817,3.817,0,0,0,.995-2.954,1.1,1.1,0,0,1,1.25-1.264A33.63,33.63,0,0,1,74.151,29.805Z" class="colorf7cb91 svgShape"></path><path fill="#e07a5f" fill-rule="evenodd" d="M100.037,58.376v4.382a37.926,37.926,0,0,1-5.178,19.156q.412.125.832.222a12.089,12.089,0,1,0,4.346-23.76ZM25.588,51.438H97.915a2.124,2.124,0,0,1,2.122,2.122v1.488A15.389,15.389,0,1,1,93.02,84.772a38.649,38.649,0,0,1-4.216,5A38.126,38.126,0,0,1,61.794,101H61.71A38.351,38.351,0,0,1,23.467,62.759v-9.2a2.124,2.124,0,0,1,2.122-2.122Z" class="colorf1944e svgShape"></path><path fill="#f9d8cf" fill-rule="evenodd" d="M25.588,51.438H61.752V101H61.71A38.351,38.351,0,0,1,23.467,62.759v-9.2a2.124,2.124,0,0,1,2.122-2.122Z" class="colorf7cb91 svgShape"></path><path fill="#e07a5f" d="M15.877,101a1.652,1.652,0,1,1,0-3.3h91.749a1.652,1.652,0,1,1,0,3.3Z" class="colorf1944e svgShape"></path></svg>