<svg xmlns="http://www.w3.org/2000/svg" viewBox="0 0 128 128" id="coffeemaker"><rect width="68.488" height="33.178" x="26.404" y="70.628" fill="#f9d8cf" class="colorf7cb91 svgShape"></rect><rect width="34.244" height="33.178" x="60.648" y="70.628" fill="#e07a5f" class="colorf1944e svgShape"></rect><rect width="76.242" height="6.382" x="22.527" y="103.806" fill="#b5573e" rx="3.191" ry="3.191" class="colorb54d3e svgShape"></rect><path fill="#303952" fill-rule="evenodd" d="M60.648,110.188h34.93A3.2,3.2,0,0,0,98.769,107h0a3.2,3.2,0,0,0-3.191-3.191H60.648Z" class="color893729 svgShape"></path><path fill="#303952" d="M62.294,41.666A1.646,1.646,0,1,1,59,41.653l.034-8.449a1.646,1.646,0,0,1,1.646-1.639v-.006h39.463V30.144a1.652,1.652,0,0,1,3.3,0v3.066a1.652,1.652,0,0,1-1.652,1.652H62.321Z" class="color893729 svgShape"></path><rect width="7.352" height="12.332" x="98.121" y="17.812" fill="#b5573e" rx="3.676" ry="3.676" class="colorb54d3e svgShape"></rect><rect width="76.242" height="6.382" x="22.527" y="64.247" fill="#b5573e" rx="3.191" ry="3.191" class="colorb54d3e svgShape"></rect><path fill="#303952" fill-rule="evenodd" d="M60.648,70.628h34.93a3.2,3.2,0,0,0,3.191-3.191h0a3.2,3.2,0,0,0-3.191-3.191H60.648Z" class="color893729 svgShape"></path><path fill="#f9d8cf" fill-rule="evenodd" d="M40,41.66H81.3A18.116,18.116,0,0,1,69.859,58.448h5.33a2.9,2.9,0,0,1,0,5.8H46.108a2.9,2.9,0,0,1,0-5.8h5.329A18.117,18.117,0,0,1,40,41.66Z" class="colorf7cb91 svgShape"></path><path fill="#e07a5f" fill-rule="evenodd" d="M60.648,41.66H81.3A18.116,18.116,0,0,1,69.859,58.448h5.329a2.9,2.9,0,0,1,0,5.8H60.648Z" class="colorf1944e svgShape"></path></svg>