<svg xmlns="http://www.w3.org/2000/svg" viewBox="0 0 128 128" id="cockie"><path fill="#e07a5f" fill-rule="evenodd" d="M100.424,90.263a42.919,42.919,0,1,1-37.2-69.124,1.651,1.651,0,0,1,1.709,1.189C65.453,23.67,66,25.061,66.6,26.351A13.1,13.1,0,0,0,68.245,29.2a32.417,32.417,0,0,0,8.167,6.462c5.3,3.28,9.754,6.032,10.162,15.393a19.257,19.257,0,0,1-1.248,6.85c-1.081,3.432-2.155,6.843,1.192,11.388,1.57,2.132,1.822,4.639,2.082,7.242.415,4.137.861,8.582,8.723,10.438.388.092.8.2,1.234.309.464.122.815.218,1.088.3a1.651,1.651,0,0,1,.779,2.688Z" class="colorb54d3e svgShape"></path><path fill="#303952" d="M50.317 48.473a1.65 1.65 0 0 1-3.278.387l-.629-5.3a1.65 1.65 0 0 1 3.278-.387zM70.64 53.628A1.65 1.65 0 0 1 68.7 56.3l-4.317-3.14a1.65 1.65 0 0 1 1.936-2.672z" class="color893729 svgShape"></path><circle cx="57.311" cy="73.486" r="4.003" fill="#f9d8cf" class="colorf7cb91 svgShape"></circle><path fill="#f9d8cf" d="M42.084,54.174a4.479,4.479,0,1,1-3.166,1.312A4.465,4.465,0,0,1,42.084,54.174ZM57.31,32.041a4.465,4.465,0,0,1,3.166,1.312c.036.036.071.074.1.113a4.478,4.478,0,1,1-6.432-.11l0,0A4.464,4.464,0,0,1,57.31,32.041Zm18.68,53.922a4.944,4.944,0,0,1,3.5,8.441l-.006.006a4.932,4.932,0,0,1-6.985,0l-.006-.006a4.945,4.945,0,0,1,3.5-8.441Z" class="colorf7cb91 svgShape"></path><path fill="#303952" d="M56.512 93.891a1.65 1.65 0 1 1-1.936 2.672L50.26 93.424A1.65 1.65 0 0 1 52.2 90.752zM38.7 73.352a1.65 1.65 0 1 1-3.278.387l-.629-5.3a1.65 1.65 0 0 1 3.278-.387z" class="color893729 svgShape"></path><circle cx="84.973" cy="32.313" r="2.826" fill="#e07a5f" class="colorb54d3e svgShape"></circle><circle cx="98.713" cy="61.046" r="5.69" fill="#e07a5f" class="colorb54d3e svgShape"></circle><circle cx="97.668" cy="44.171" r="2.826" fill="#e07a5f" class="colorb54d3e svgShape"></circle></svg>