<svg xmlns="http://www.w3.org/2000/svg" viewBox="0 0 128 128" id="greenteapack"><path fill="#f9d8cf" fill-rule="evenodd" d="M91.719,87.014l6.254,4a1.644,1.644,0,0,1,.761,1.387h.007v13.05a3.024,3.024,0,0,1-.889,2.135l0,0,0,0,0,0a3.025,3.025,0,0,1-2.131.885H85.9a3.018,3.018,0,0,1-2.135-.889l-.006-.006a3.018,3.018,0,0,1-.889-2.136V92.4a1.652,1.652,0,0,1,.9-1.47L89.922,87A1.645,1.645,0,0,1,91.719,87.014Z" class="colorf7cb91 svgShape"></path><path fill="#e07a5f" fill-rule="evenodd" d="M91.719,87.014l6.254,4a1.644,1.644,0,0,1,.761,1.387h.007v13.05a3.024,3.024,0,0,1-.889,2.135l0,0,0,0,0,0a3.025,3.025,0,0,1-2.131.885h-4.9V86.738A1.652,1.652,0,0,1,91.719,87.014Z" class="colorf1944e svgShape"></path><path fill="#f9d8cf" fill-rule="evenodd" d="M51.535,47.593,71.218,60.167a1.644,1.644,0,0,1,.761,1.387h.007V102.5a5.961,5.961,0,0,1-1.755,4.223c-.034.034-.07.066-.106.1a5.958,5.958,0,0,1-4.118,1.658H35.236a5.962,5.962,0,0,1-4.22-1.758l0,0a5.961,5.961,0,0,1-1.755-4.223V61.554a1.652,1.652,0,0,1,.9-1.47l19.583-12.51A1.645,1.645,0,0,1,51.535,47.593Z" class="colorf7cb91 svgShape"></path><circle cx="50.622" cy="59.009" r="3.184" fill="#303952" class="color893729 svgShape"></circle><path fill="#303952" d="M52.274,59.009a1.652,1.652,0,1,1-3.3,0V41.267a1.652,1.652,0,1,1,3.3,0Z" class="color893729 svgShape"></path><path fill="#303952" d="M52.274,41.267a1.652,1.652,0,1,1-3.3,0,21.744,21.744,0,0,1,43.489,0,1.652,1.652,0,1,1-3.3,0,18.44,18.44,0,1,0-36.881,0Z" class="color893729 svgShape"></path><path fill="#303952" d="M92.459,88.383a1.652,1.652,0,1,1-3.3,0V41.267a1.652,1.652,0,1,1,3.3,0Z" class="color893729 svgShape"></path><path fill="#e07a5f" fill-rule="evenodd" d="M71.986,102.5V82.605c-4.129-1.988-12.843-4.779-21.364,1.383s-17.234,3.371-21.364,1.383V102.5a6,6,0,0,0,5.978,5.978H66.008a5.958,5.958,0,0,0,4.118-1.658l.106-.1A5.961,5.961,0,0,0,71.986,102.5Z" class="colorf1944e svgShape"></path></svg>