<svg xmlns="http://www.w3.org/2000/svg" viewBox="0 0 128 128" id="spoon"><path fill="#f7a791" fill-rule="evenodd" d="M47.6,23.307a15.681,15.681,0,0,1,13.736.582A23.652,23.652,0,0,1,71.961,35.2,23.65,23.65,0,0,1,73.7,50.614a15.681,15.681,0,0,1-8.456,10.844,15.679,15.679,0,0,1-13.735-.582A23.652,23.652,0,0,1,40.887,49.567a23.651,23.651,0,0,1-1.74-15.416A15.682,15.682,0,0,1,47.6,23.307Z" class="colorf7cb91 svgShape"></path><path fill="#303952" d="M60.763,55.69a1.649,1.649,0,1,1,2.994-1.381l5.323,11.507A1.649,1.649,0,1,1,66.087,67.2Z" class="color893729 svgShape"></path><path fill="#b5573e" fill-rule="evenodd" d="M66.919,65a6.7,6.7,0,0,1,8.853,3.277l0,.007L88.834,96.517a6.7,6.7,0,0,1-3.148,8.823,1.65,1.65,0,0,1-.229.106,6.7,6.7,0,0,1-8.767-3.316L63.627,73.889a6.7,6.7,0,0,1,3.266-8.879Z" class="colorb54d3e svgShape"></path><path fill="#e07a5f" fill-rule="evenodd" d="M63.711,62.062,60.763,55.69A1.649,1.649,0,0,1,61.57,53.5l.043-.019L47.6,23.307a15.682,15.682,0,0,0-8.456,10.844,23.651,23.651,0,0,0,1.74,15.416A23.652,23.652,0,0,0,51.51,60.875,16.005,16.005,0,0,0,63.711,62.062Z" class="colorf1944e svgShape"></path><path fill="#303952" fill-rule="evenodd" d="M65.482,65.89a6.71,6.71,0,0,0-1.855,8L76.69,102.13a6.7,6.7,0,0,0,8.767,3.316l.229-.106L68.338,67.972l-1.387-2.989L66.919,65l-.027.012A6.676,6.676,0,0,0,65.482,65.89Z" class="color893729 svgShape"></path><path fill="#f9d8cf" d="M60.91,31.585a1.642,1.642,0,0,1-1.122-.44c-2.575-2.382-5.752-3.132-8.295-1.959l-.217.107a1.652,1.652,0,0,1-1.506-2.942c.108-.055.217-.108.327-.159,3.787-1.752,8.36-.782,11.934,2.528a1.652,1.652,0,0,1-1.122,2.864Z" class="colorffffff svgShape"></path></svg>