<svg xmlns="http://www.w3.org/2000/svg" viewBox="0 0 128 128" id="takeawaycup"><path fill="#b5573e" fill-rule="evenodd" d="M41.207,52.076H86.792a1.653,1.653,0,0,1,1.591,2.1l-9.849,46.393a7.372,7.372,0,0,1-1.881,3.686,4.984,4.984,0,0,1-3.619,1.51H54.964a4.985,4.985,0,0,1-3.619-1.51c-.034-.034-.066-.07-.1-.106a7.427,7.427,0,0,1-1.783-3.58l-9.871-46.5a1.65,1.65,0,0,1,1.613-1.991Z" class="colorb54d3e svgShape"></path><path fill="#303952" fill-rule="evenodd" d="M64,52.076H86.792a1.653,1.653,0,0,1,1.591,2.1l-9.849,46.393a7.372,7.372,0,0,1-1.881,3.686,4.984,4.984,0,0,1-3.619,1.51H64Z" class="color893729 svgShape"></path><path fill="#f9d8cf" fill-rule="evenodd" d="M64,45.031H41.205a22.794,22.794,0,0,1,45.589,0Z" class="colorf7cb91 svgShape"></path><path fill="#e07a5f" fill-rule="evenodd" d="M66.133,22.337A22.766,22.766,0,0,1,82.2,31.311a9.408,9.408,0,0,1-16.07-8.974Z" class="colorf1944e svgShape"></path><path fill="#f9d8cf" fill-rule="evenodd" d="M87.586,55.38H40.414a5.977,5.977,0,0,1-4.233-1.762l-.006-.006a5.978,5.978,0,0,1-1.761-4.233h0a5.977,5.977,0,0,1,1.761-4.233l.006-.006a5.978,5.978,0,0,1,4.233-1.761H87.586a5.984,5.984,0,0,1,4.239,1.762l0,0a5.986,5.986,0,0,1,1.765,4.236h0a5.981,5.981,0,0,1-1.667,4.136c-.03.035-.061.07-.094.1A5.984,5.984,0,0,1,87.586,55.38Z" class="colorf7cb91 svgShape"></path><path fill="#e07a5f" fill-rule="evenodd" d="M87.586,55.38H64v-12H87.586a5.984,5.984,0,0,1,4.239,1.762l0,0a5.986,5.986,0,0,1,1.765,4.236h0a5.981,5.981,0,0,1-1.667,4.136c-.03.035-.061.07-.094.1A5.984,5.984,0,0,1,87.586,55.38Z" class="colorf1944e svgShape"></path></svg>