<svg id="SvgjsSvg1052" width="360" height="360" xmlns="http://www.w3.org/2000/svg" version="1.1" xmlns:xlink="http://www.w3.org/1999/xlink" xmlns:svgjs="http://svgjs.com/svgjs"><defs id="SvgjsDefs1053"></defs><g id="SvgjsG1054"><svg xmlns="http://www.w3.org/2000/svg" enable-background="new 0 0 850 850" viewBox="0 0 850 850" width="360" height="360"><path fill="#de7a60" d="M152.8,365.28c0,0-42.38,129.54-37.34,192.33c18.12-62.02,72.16-165.98,86.85-193.71L152.8,365.28z" class="colorde9960 svgShape"></path><path fill="#ed8569" d="M414.52,357.97l-212.21,5.93c-14.69,27.73-68.72,131.69-86.85,193.71c1.64,20.46,8.31,33.85,23.14,33.34
			c0,0,193.37,33.95,262.1,8.97c11.42-4.15,19.6-15.96,20.81-29.96C425.66,522.33,434.65,393.52,414.52,357.97z" class="colored9169 svgShape"></path><path fill="#e07a5f" d="M136.9,310.76c0.69,6.89,2.18,14.69,5.16,22.04c2.08,5.13,2.39,10.99,1.14,16.48
			c-2.14,9.43-3.75,23,4.28,24.36c0,0,163.62,28.1,265.35-6.19c4.14-1.39,6.92-6.03,6.5-11.07c-0.4-4.76-1.9-10.5-6.24-14.77
			c-4.52-4.45-7.15-11.01-7.41-17.95c-0.01-0.19-0.01-0.38-0.02-0.58c-0.69-16.63-12.97-29.28-27.08-28.12
			c-41.81,3.43-136.52,9.56-159.1-2.99c-3.66-2.03-7.52-3.49-11.55-3.95c-12.11-1.37-35.79-3.52-53.9-1.81
			C143.37,287.23,135.65,298.27,136.9,310.76z" class="colorea8057 svgShape"></path><path fill="none" stroke="#0b1d42" stroke-miterlimit="10" stroke-width="2" d="M184.74,340.2c0,0,117.11,20.9,195.18,0" class="colorStroke42210b svgStroke"></path><path fill="#13254c" d="M331.42,422.26c14.92,14.24,7.02,45.11-7.64,79.83c-4.7,11.13-11.23,21.07-19.19,29.23
				c-27.79,28.51-63.53,37.4-80.78,17.72c-16.95-16.17,7.67-55.41,32.31-91.22C280.76,422.01,314.47,406.09,331.42,422.26z" class="color4c1d13 svgShape"></path><path fill="#d56446" d="M326.56,413.58c18.41,21.93,1.54,59.79-28.78,94.34c-16.55,13.91-62.94,49.93-77.37,32.37
				c-14.42-17.56-5.19-61.42,25.13-95.96S311.97,396.2,326.56,413.58z" class="colord57346 svgShape"></path><path fill="#163168" d="M224.74,523.92l-0.99-2.09l36.05-23.61c2.93-1.92,5.4-4.71,7.15-8.06l31.65-60.68l1.73,1.25l-31.65,60.68
					c-1.93,3.71-4.66,6.79-7.89,8.9L224.74,523.92z" class="color682b16 svgShape"></path><path fill="#de7a60" d="M275.62 515.06l-.94-2.12c34.96-21.39 45.85-82.85 45.95-83.46l1.99.47c-.03.16-2.78 15.94-9.89 34.19C306.15 481.05 294.36 503.6 275.62 515.06zM228.37 507.55l-2.01-.31c2.51-22.88 16.29-46.2 27.42-61.74 12.01-16.77 23.6-28.34 23.72-28.45l1.31 1.83C278.35 419.34 233.06 464.78 228.37 507.55z" class="colorde9960 svgShape"></path><g></g><g></g><g></g><g><rect width="10.88" height="9.08" x="580.48" y="453.99" fill="none" stroke="#cc5d40" stroke-miterlimit="10" stroke-width="3" class="colorStrokecc4040 svgStroke"></rect></g></svg></g></svg>